<?xml version="1.0" encoding="utf-8" ?>
<svg baseProfile="full" height="2048" version="1.1" width="2048" xmlns="http://www.w3.org/2000/svg" xmlns:ev="http://www.w3.org/2001/xml-events" xmlns:xlink="http://www.w3.org/1999/xlink"><defs /><polyline fill="none" points="1721,147 1720,148 1716,148 1715,149 1711,149 1710,150 1707,150 1706,151 1705,151 1704,152 1702,152 1701,153 1699,153 1698,154 1696,154 1695,155 1694,155 1693,156 1692,156 1691,157 1690,157 1689,158 1688,158 1687,159 1686,159 1685,160 1684,160 1682,162 1681,162 1680,163 1679,163 1676,166 1675,166 1673,168 1672,168 1669,171 1668,171 1668,172 1667,173 1666,173 1661,178 1660,178 1660,179 1659,180 1658,180 1653,185 1653,186 1647,192 1647,193 1641,199 1641,200 1639,202 1639,203 1636,206 1636,207 1634,209 1634,210 1632,212 1632,213 1630,215 1630,216 1629,217 1629,218 1627,220 1627,221 1625,223 1625,224 1624,225 1624,226 1623,227 1623,228 1622,229 1622,230 1621,231 1621,232 1620,233 1620,234 1619,235 1619,237 1618,238 1618,239 1617,240 1617,241 1616,242 1616,244 1615,245 1615,247 1614,248 1614,249 1613,250 1613,252 1612,253 1612,256 1611,257 1611,259 1610,260 1610,263 1609,264 1609,268 1608,269 1608,275 1607,276 1607,279 1606,280 1606,291 1605,292 1605,309 1606,310 1606,320 1607,321 1607,324 1608,325 1608,331 1609,332 1609,336 1610,337 1610,340 1611,341 1611,343 1612,344 1612,348 1613,349 1613,351 1614,352 1614,354 1615,355 1615,357 1616,358 1616,361 1617,362 1617,364 1618,365 1618,366 1619,367 1619,369 1620,370 1620,372 1621,373 1621,374 1622,375 1622,376 1623,377 1623,379 1625,381 1625,382 1626,383 1626,384 1627,385 1627,386 1628,387 1628,388 1629,389 1629,390 1630,391 1630,392 1633,395 1633,396 1634,397 1634,398 1636,400 1636,401 1639,404 1639,405 1643,409 1643,410 1646,413 1646,414 1651,419 1651,420 1657,426 1657,427 1664,434 1664,435 1665,436 1666,436 1667,437 1667,438 1672,443 1673,443 1674,444 1674,445 1675,445 1683,453 1684,453 1689,458 1688,459 1687,459 1686,460 1685,460 1684,461 1683,461 1682,462 1681,462 1680,463 1678,463 1677,464 1676,464 1675,465 1674,465 1673,466 1672,466 1671,467 1670,467 1668,469 1667,469 1657,479 1657,480 1653,484 1653,485 1650,488 1649,487 1649,486 1648,485 1648,481 1647,480 1647,475 1646,474 1646,469 1645,468 1645,466 1644,465 1644,460 1643,459 1643,454 1642,453 1642,450 1641,449 1641,447 1640,446 1640,443 1639,442 1639,440 1637,438 1637,437 1636,436 1636,435 1635,434 1635,433 1633,431 1633,430 1627,424 1626,424 1623,421 1622,421 1621,420 1620,420 1618,418 1616,418 1615,417 1613,417 1612,416 1611,416 1610,415 1607,415 1606,414 1601,414 1600,413 1596,413 1595,414 1590,414 1589,415 1588,415 1587,416 1586,416 1585,417 1584,417 1578,423 1578,424 1577,425 1577,426 1576,427 1576,428 1575,429 1575,430 1574,431 1574,433 1573,434 1573,436 1572,437 1572,438 1571,439 1571,441 1570,442 1570,444 1569,445 1569,446 1568,447 1564,443 1563,443 1556,436 1555,436 1546,427 1545,427 1540,422 1539,422 1535,418 1534,418 1532,416 1531,416 1529,414 1528,414 1525,411 1524,411 1523,410 1522,410 1519,407 1518,407 1517,406 1516,406 1514,404 1513,404 1512,403 1511,403 1509,401 1508,401 1507,400 1506,400 1504,398 1503,398 1502,397 1501,397 1500,396 1499,396 1497,394 1496,394 1495,393 1494,393 1493,392 1492,392 1491,391 1490,391 1489,390 1488,390 1487,389 1486,389 1485,388 1484,388 1483,387 1482,387 1481,386 1480,386 1479,385 1477,385 1476,384 1475,384 1474,383 1473,383 1472,382 1470,382 1468,380 1466,380 1465,379 1463,379 1462,378 1461,378 1460,377 1459,377 1458,376 1455,376 1454,375 1452,375 1451,374 1450,374 1449,373 1447,373 1446,372 1443,372 1442,371 1440,371 1439,370 1437,370 1436,369 1433,369 1432,368 1428,368 1427,367 1425,367 1424,366 1419,366 1418,365 1412,365 1411,364 1407,364 1406,363 1396,363 1395,362 1369,362 1368,363 1360,363 1359,364 1356,364 1355,365 1351,365 1350,366 1347,366 1346,367 1345,367 1344,368 1342,368 1341,369 1339,369 1338,370 1337,370 1336,371 1335,371 1334,372 1333,372 1332,373 1331,373 1329,375 1328,375 1327,376 1326,376 1323,379 1322,379 1318,383 1317,383 1316,384 1316,385 1315,386 1314,386 1312,388 1312,389 1311,390 1310,390 1310,391 1305,396 1305,397 1302,400 1302,401 1299,404 1299,405 1298,406 1298,407 1296,409 1296,410 1295,411 1295,412 1294,413 1294,414 1293,415 1293,416 1292,417 1292,418 1291,419 1291,421 1290,422 1290,423 1289,424 1289,426 1288,427 1288,429 1287,430 1287,432 1286,433 1286,435 1285,436 1285,440 1284,441 1284,447 1283,448 1283,453 1282,454 1282,478 1283,479 1283,484 1284,485 1284,492 1285,493 1285,497 1286,498 1286,501 1287,502 1287,503 1288,504 1288,506 1289,507 1289,508 1290,509 1290,510 1291,511 1291,512 1292,513 1292,514 1293,515 1293,516 1295,518 1295,519 1296,520 1296,521 1299,524 1299,525 1313,539 1314,539 1316,541 1317,541 1319,543 1320,543 1323,546 1324,546 1325,547 1326,547 1327,548 1328,548 1329,549 1330,549 1331,550 1332,550 1333,551 1334,551 1335,552 1336,552 1337,553 1338,553 1339,554 1341,554 1342,555 1343,555 1344,556 1347,556 1348,557 1352,557 1353,558 1359,558 1360,559 1365,559 1366,558 1372,558 1373,557 1377,557 1378,556 1380,556 1381,555 1382,555 1383,554 1385,554 1386,553 1388,553 1390,551 1391,551 1393,549 1394,549 1396,547 1396,546 1399,543 1399,542 1400,541 1400,539 1401,538 1401,537 1402,536 1402,533 1403,532 1403,517 1402,516 1402,512 1401,511 1401,509 1400,508 1400,506 1399,505 1399,502 1398,501 1398,500 1397,499 1397,498 1396,497 1395,497 1394,496 1393,496 1392,495 1387,495 1385,497 1385,498 1384,499 1384,500 1383,501 1383,502 1382,503 1382,505 1381,506 1381,507 1380,508 1380,509 1379,510 1379,511 1378,512 1378,513 1373,518 1372,518 1371,519 1369,519 1368,520 1367,520 1366,521 1355,521 1354,520 1352,520 1351,519 1349,519 1348,518 1347,518 1345,516 1344,516 1342,514 1341,514 1340,513 1340,512 1339,512 1337,510 1337,509 1334,506 1334,505 1333,504 1333,503 1332,502 1332,501 1331,500 1331,499 1330,498 1330,494 1329,493 1329,477 1330,476 1330,471 1331,470 1331,467 1332,466 1332,464 1333,463 1333,461 1334,460 1334,458 1335,457 1335,456 1336,455 1336,454 1337,453 1337,452 1339,450 1339,449 1341,447 1341,446 1344,443 1344,442 1352,434 1353,434 1356,431 1357,431 1360,428 1361,428 1362,427 1363,427 1365,425 1366,425 1367,424 1368,424 1369,423 1370,423 1371,422 1372,422 1373,421 1375,421 1376,420 1378,420 1379,419 1380,419 1381,418 1383,418 1384,417 1388,417 1389,416 1392,416 1393,415 1401,415 1402,414 1407,414 1408,415 1416,415 1417,416 1421,416 1422,417 1426,417 1427,418 1430,418 1431,419 1433,419 1434,420 1436,420 1437,421 1439,421 1440,422 1442,422 1443,423 1444,423 1445,424 1447,424 1448,425 1450,425 1452,427 1454,427 1455,428 1456,428 1457,429 1458,429 1459,430 1460,430 1461,431 1462,431 1463,432 1465,432 1467,434 1468,434 1469,435 1470,435 1471,436 1472,436 1473,437 1474,437 1476,439 1477,439 1478,440 1479,440 1481,442 1482,442 1483,443 1484,443 1486,445 1487,445 1488,446 1489,446 1492,449 1493,449 1495,451 1496,451 1498,453 1499,453 1505,459 1506,459 1520,473 1521,473 1523,475 1522,476 1521,476 1520,475 1517,475 1516,474 1511,474 1510,473 1505,473 1504,472 1501,472 1500,471 1497,471 1496,470 1492,470 1491,469 1487,469 1486,468 1484,468 1483,467 1477,467 1476,466 1470,466 1469,467 1464,467 1463,468 1462,468 1461,469 1459,469 1458,470 1457,470 1456,471 1455,471 1453,473 1452,473 1449,476 1448,476 1445,479 1444,479 1440,483 1439,483 1425,497 1425,498 1424,499 1424,500 1423,501 1423,502 1422,503 1422,504 1421,505 1421,509 1420,510 1420,515 1421,516 1421,520 1422,521 1422,522 1423,523 1423,524 1424,525 1424,526 1428,530 1428,531 1436,539 1437,539 1440,542 1441,542 1442,543 1443,543 1445,545 1446,545 1447,546 1448,546 1449,547 1451,547 1452,548 1454,548 1455,549 1458,549 1459,550 1465,550 1466,551 1478,551 1479,552 1500,552 1501,553 1529,553 1530,554 1554,554 1555,555 1557,555 1558,556 1558,557 1557,558 1556,558 1555,559 1554,559 1553,560 1551,560 1550,561 1548,561 1547,562 1546,562 1545,563 1543,563 1542,564 1541,564 1540,565 1538,565 1537,566 1536,566 1535,567 1533,567 1532,568 1530,568 1529,569 1528,569 1527,570 1525,570 1524,571 1522,571 1521,572 1519,572 1518,573 1516,573 1515,574 1513,574 1512,575 1510,575 1509,576 1508,576 1507,577 1504,577 1503,578 1501,578 1500,579 1498,579 1497,580 1495,580 1494,581 1492,581 1491,582 1489,582 1488,583 1486,583 1485,584 1483,584 1482,585 1479,585 1478,586 1477,586 1476,587 1474,587 1473,588 1471,588 1470,589 1467,589 1466,590 1465,590 1464,591 1462,591 1461,592 1458,592 1457,593 1455,593 1454,594 1453,594 1452,595 1449,595 1448,596 1446,596 1445,597 1444,597 1443,598 1441,598 1440,599 1437,599 1436,600 1435,600 1434,601 1432,601 1431,602 1428,602 1427,603 1425,603 1424,604 1423,604 1422,605 1420,605 1419,606 1416,606 1415,607 1414,607 1413,608 1411,608 1410,609 1407,609 1406,610 1404,610 1403,611 1402,611 1401,612 1398,612 1397,613 1395,613 1394,614 1392,614 1391,615 1389,615 1388,616 1386,616 1385,617 1382,617 1381,618 1380,618 1379,619 1376,619 1375,620 1373,620 1372,621 1370,621 1369,622 1367,622 1366,623 1363,623 1362,624 1359,624 1358,625 1356,625 1355,626 1352,626 1351,627 1348,627 1347,628 1345,628 1344,629 1341,629 1340,630 1337,630 1336,631 1333,631 1332,632 1330,632 1329,633 1325,633 1324,634 1321,634 1320,635 1317,635 1316,636 1313,636 1312,637 1308,637 1307,638 1304,638 1303,639 1300,639 1299,640 1295,640 1294,641 1290,641 1289,642 1287,642 1286,643 1283,643 1282,644 1277,644 1276,645 1273,645 1272,646 1269,646 1268,647 1264,647 1263,648 1259,648 1258,649 1256,649 1255,650 1251,650 1250,651 1246,651 1245,652 1241,652 1240,653 1237,653 1236,654 1232,654 1231,655 1227,655 1226,656 1223,656 1222,657 1217,657 1216,658 1208,658 1207,659 1197,659 1196,660 1191,660 1190,661 1181,661 1180,662 1172,662 1171,663 1167,663 1166,664 1158,664 1157,665 1149,665 1148,666 1141,666 1140,667 1135,667 1134,668 1125,668 1124,669 1115,669 1114,670 1109,670 1108,671 1096,671 1095,672 1080,672 1079,673 1061,673 1060,674 1011,674 1010,673 996,673 995,672 985,672 984,671 976,671 975,670 972,670 971,669 965,669 964,668 959,668 958,667 956,667 955,666 951,666 950,665 946,665 945,664 941,664 940,663 939,663 938,662 934,662 933,661 929,661 928,660 926,660 925,659 922,659 921,658 918,658 917,657 914,657 913,656 911,656 910,655 907,655 906,654 903,654 902,653 900,653 899,652 896,652 895,651 893,651 892,650 890,650 889,649 888,649 887,648 886,648 885,647 884,647 883,646 882,646 881,645 880,645 879,644 878,644 877,643 875,643 874,642 873,642 872,641 871,642 870,642 868,644 868,645 866,647 866,648 864,650 864,651 861,654 861,655 857,659 857,660 852,665 852,666 830,688 829,688 825,692 825,693 824,694 824,695 829,700 830,700 833,703 833,704 834,705 834,706 835,707 835,709 836,710 836,713 837,714 837,715 838,716 838,719 839,720 839,723 840,724 840,726 841,727 841,729 842,730 842,733 843,734 843,737 844,738 844,740 845,741 845,744 846,745 846,746 843,749 842,749 839,752 838,752 837,753 836,753 834,755 833,755 830,758 829,758 828,759 827,759 826,760 825,760 823,762 822,762 820,764 819,764 817,766 816,766 815,767 814,767 812,769 811,769 810,770 809,770 807,772 805,772 804,773 803,773 802,774 801,774 799,776 797,776 796,777 795,777 794,778 793,778 792,779 791,779 790,780 788,780 787,781 786,781 785,782 784,782 783,783 782,783 781,784 779,784 778,785 777,785 776,786 775,786 774,787 772,787 771,788 770,788 769,789 768,789 767,790 765,790 764,791 762,791 760,793 758,793 757,794 755,794 754,795 753,795 752,796 751,796 750,797 748,797 747,798 746,798 744,800 742,800 741,801 740,801 739,802 738,802 737,803 736,803 735,804 733,804 732,805 731,805 730,806 729,806 728,807 727,807 726,808 724,808 723,809 722,809 721,810 719,810 718,811 716,811 715,812 713,812 712,813 711,813 710,814 708,814 707,815 705,815 704,816 702,816 701,817 699,817 698,818 695,818 694,819 691,819 690,820 689,820 688,821 685,821 684,822 681,822 680,823 678,823 677,824 674,824 673,825 669,825 668,826 664,826 663,827 661,827 660,828 656,828 655,829 650,829 649,830 647,830 646,831 641,831 640,832 635,832 634,833 629,833 628,834 625,834 624,835 617,835 616,836 610,836 609,837 605,837 604,838 598,838 597,839 589,839 588,840 580,840 579,841 571,841 570,842 535,842 534,841 527,841 526,840 519,840 518,839 512,839 511,838 507,838 506,837 503,837 502,836 498,836 497,835 493,835 492,834 489,834 488,833 484,833 483,832 479,832 478,831 475,831 474,830 472,830 471,829 467,829 466,828 462,828 461,827 459,827 458,826 455,826 454,825 451,825 450,824 447,824 446,823 444,823 443,822 440,822 439,821 436,821 435,820 433,820 432,819 429,819 428,818 426,818 425,817 423,817 422,816 420,816 419,815 418,815 417,814 415,814 414,813 413,813 412,812 411,812 410,811 408,811 406,809 405,809 404,808 403,808 402,807 400,807 398,805 397,805 396,804 395,804 394,803 393,803 391,801 390,801 389,800 388,800 386,798 385,798 381,794 380,794 378,792 377,792 376,791 372,791 370,793 369,793 368,794 367,794 365,796 364,796 363,797 362,797 361,798 360,798 358,800 357,800 356,801 355,801 353,803 352,803 351,804 350,804 349,805 348,805 346,807 345,807 344,808 343,808 341,810 340,810 339,811 337,809 337,808 335,806 335,805 334,804 334,803 333,802 333,801 332,800 332,799 331,798 331,797 330,796 330,794 329,793 329,792 328,791 328,790 327,789 327,788 326,787 326,785 324,783 324,781 323,780 323,779 322,778 322,777 321,776 321,775 320,774 320,772 319,771 319,770 318,769 318,768 317,767 317,765 316,764 316,763 315,762 315,760 314,759 314,758 313,757 313,755 312,754 312,751 311,750 311,749 310,748 310,745 309,744 309,741 308,740 308,738 307,737 307,734 306,733 306,729 305,728 305,723 304,722 304,716 303,715 303,698 304,697 304,690 305,689 305,683 306,682 306,677 307,676 307,673 308,672 308,670 309,669 309,666 310,665 310,663 311,662 311,661 312,660 312,658 313,657 313,655 314,654 314,653 315,652 315,651 316,650 316,649 317,648 317,646 319,644 319,643 320,642 320,641 321,640 321,639 322,638 322,637 324,635 324,634 326,632 326,631 327,630 327,629 330,626 330,625 332,623 332,622 335,619 335,618 338,615 338,614 344,608 344,607 350,601 351,601 354,598 355,598 357,596 359,596 360,595 362,595 363,594 367,594 368,593 371,593 372,594 377,594 378,595 380,595 381,596 382,596 390,604 390,605 391,606 391,607 392,608 392,610 393,611 393,627 392,628 392,634 393,635 393,636 396,639 398,639 399,640 402,640 403,639 406,639 407,638 409,638 410,637 412,637 413,636 415,636 417,634 418,634 419,633 420,633 421,632 422,632 424,630 425,630 436,619 436,618 438,616 438,615 439,614 439,613 440,612 440,611 441,610 441,603 440,602 440,594 439,593 439,588 438,587 438,584 437,583 437,581 436,580 436,578 435,577 435,575 434,574 434,573 433,572 433,571 432,570 432,569 431,568 431,567 425,561 424,561 423,560 422,560 420,558 419,558 418,557 417,557 416,556 415,556 414,555 413,555 412,554 411,554 410,553 409,553 407,551 405,551 404,550 403,550 402,549 401,549 400,548 399,548 398,547 396,547 395,546 392,546 391,545 389,545 388,544 384,544 383,543 378,543 377,542 367,542 366,541 362,541 361,542 352,542 351,543 348,543 347,544 345,544 344,545 343,545 342,546 340,546 339,547 338,547 336,549 335,549 334,550 333,550 331,552 330,552 328,554 327,554 322,559 321,559 312,568 312,569 311,570 310,570 309,571 309,572 306,575 306,576 303,579 303,580 300,583 300,584 299,585 299,586 296,589 296,590 295,591 295,592 293,594 293,595 292,596 292,597 291,598 291,599 289,601 289,602 288,603 288,604 287,605 287,606 286,607 286,608 285,609 285,610 283,612 283,613 282,614 282,615 281,616 281,617 279,619 279,620 278,621 278,622 277,623 277,624 276,625 276,626 275,627 275,628 274,629 274,630 273,631 273,632 272,633 272,634 271,635 271,637 270,638 270,639 269,640 269,642 268,643 268,645 267,646 267,648 266,649 266,651 265,652 265,656 264,657 264,665 263,666 263,672 262,673 262,679 261,680 261,687 260,688 258,686 258,684 257,683 257,682 256,681 256,680 255,679 255,678 254,677 254,675 253,674 253,673 252,672 252,671 251,670 251,669 250,668 250,667 249,666 249,664 247,662 247,660 244,657 244,656 239,651 238,651 235,648 234,648 233,647 232,647 230,645 228,645 227,644 225,644 224,643 220,643 219,642 216,642 215,643 211,643 210,644 208,644 206,646 205,646 197,654 197,655 196,656 196,657 195,658 195,659 194,660 194,662 193,663 193,665 192,666 192,671 191,672 191,678 190,679 190,688 189,689 189,700 190,701 190,710 191,711 191,716 192,717 192,721 193,722 193,724 194,725 194,728 195,729 195,733 196,734 196,736 197,737 197,739 198,740 198,743 199,744 199,746 200,747 200,749 201,750 201,752 202,753 202,755 204,757 204,759 205,760 205,761 206,762 206,763 207,764 207,765 208,766 208,767 209,768 209,769 211,771 211,772 212,773 212,774 213,775 213,776 216,779 216,780 220,784 220,785 219,786 216,786 215,785 214,785 213,784 210,784 209,783 193,783 192,784 190,784 189,785 188,785 187,786 185,786 184,787 183,787 182,788 181,788 179,790 178,790 175,793 174,793 171,796 170,796 165,801 164,801 153,812 153,815 154,816 154,817 157,820 166,820 167,819 169,819 170,818 171,818 172,817 173,817 174,816 175,816 176,815 186,815 187,816 188,816 189,817 190,817 191,818 193,818 195,820 196,820 197,821 198,821 199,822 200,822 203,825 204,825 218,839 218,840 220,842 220,843 222,845 222,846 223,847 223,848 225,850 225,851 226,852 226,853 227,854 227,856 229,858 229,860 230,861 230,863 232,865 232,868 233,869 233,871 234,872 234,874 235,875 235,877 236,878 236,881 237,882 237,886 238,887 238,889 239,890 239,895 240,896 240,902 241,903 241,908 242,909 242,914 243,915 243,923 244,924 244,934 245,935 245,941 246,942 246,999 245,1000 245,1009 244,1010 244,1025 243,1026 243,1028 242,1029 241,1028 241,1027 240,1026 240,1025 239,1024 239,1022 238,1021 238,1020 237,1019 237,1016 236,1015 236,1012 235,1011 235,1009 234,1008 234,1006 233,1005 233,1002 232,1001 232,998 231,997 231,996 230,995 230,993 229,992 229,990 228,989 228,987 227,986 227,985 226,984 226,982 225,981 225,979 223,977 223,975 222,974 222,973 221,972 221,971 220,970 220,969 219,968 219,967 218,966 218,965 216,963 216,961 214,959 214,958 212,956 212,955 211,954 211,953 204,946 203,946 201,944 200,944 199,943 197,943 196,942 194,942 193,941 183,941 182,942 181,942 180,943 178,943 177,944 176,944 175,945 174,945 172,947 171,947 170,948 170,949 166,953 166,954 165,955 165,956 164,957 164,958 163,959 163,963 162,964 162,992 163,993 163,1001 164,1002 164,1007 165,1008 165,1010 166,1011 166,1015 167,1016 167,1019 168,1020 168,1022 169,1023 169,1025 170,1026 170,1028 171,1029 171,1031 172,1032 172,1033 173,1034 173,1036 174,1037 174,1038 175,1039 175,1041 177,1043 177,1045 178,1046 178,1047 180,1049 180,1051 182,1053 182,1054 183,1055 183,1056 184,1057 184,1058 185,1059 185,1060 187,1062 187,1063 188,1064 188,1065 190,1067 190,1068 192,1070 192,1071 194,1073 194,1074 195,1075 195,1076 197,1078 197,1079 198,1080 198,1081 199,1082 198,1083 197,1083 196,1082 194,1082 193,1081 192,1081 191,1080 188,1080 187,1079 184,1079 183,1078 182,1078 181,1077 178,1077 177,1076 175,1076 174,1075 171,1075 170,1074 168,1074 167,1073 164,1073 163,1072 153,1072 152,1073 152,1075 153,1076 153,1078 154,1079 154,1080 155,1081 155,1082 156,1083 156,1085 157,1086 157,1088 158,1089 158,1090 159,1091 159,1112 158,1113 158,1122 157,1123 157,1137 156,1138 156,1152 155,1153 155,1184 156,1185 156,1195 157,1196 157,1202 158,1203 158,1206 159,1207 159,1211 160,1212 160,1216 161,1217 161,1219 162,1220 162,1222 163,1223 163,1226 164,1227 164,1229 165,1230 165,1231 166,1232 166,1234 167,1235 167,1237 168,1238 168,1239 169,1240 169,1241 170,1242 170,1243 171,1244 171,1246 173,1248 173,1249 174,1250 174,1251 175,1252 175,1253 176,1254 176,1255 177,1256 177,1257 179,1259 179,1260 181,1262 181,1263 182,1264 182,1265 184,1267 184,1268 187,1271 187,1272 191,1276 191,1277 192,1278 193,1278 194,1279 194,1280 205,1291 206,1291 210,1295 211,1295 215,1299 215,1300 209,1306 209,1307 208,1308 208,1309 206,1311 206,1312 205,1313 205,1314 204,1315 204,1317 203,1318 203,1319 202,1320 202,1322 201,1323 201,1327 200,1328 200,1342 201,1343 201,1347 202,1348 202,1350 204,1352 204,1353 205,1354 205,1355 208,1358 208,1359 222,1373 222,1374 232,1384 230,1386 227,1386 226,1387 225,1387 224,1388 223,1388 222,1389 221,1389 220,1390 219,1390 217,1392 216,1392 213,1395 212,1395 209,1398 209,1399 205,1403 205,1404 202,1407 202,1408 201,1409 201,1410 199,1412 199,1413 198,1414 198,1415 197,1416 197,1417 196,1418 196,1419 195,1420 195,1422 194,1423 194,1425 193,1426 193,1428 192,1429 192,1436 191,1437 191,1440 192,1441 192,1449 193,1450 193,1452 194,1453 194,1456 195,1457 195,1459 196,1460 196,1461 197,1462 197,1463 198,1464 198,1466 199,1467 199,1468 201,1470 201,1472 203,1474 203,1475 204,1476 204,1477 206,1479 206,1480 216,1490 217,1490 219,1492 220,1492 222,1494 223,1494 224,1495 225,1495 227,1497 229,1497 230,1498 231,1498 232,1499 233,1499 234,1500 235,1500 236,1501 238,1501 239,1502 240,1502 241,1503 242,1503 243,1504 245,1504 246,1505 248,1505 249,1506 250,1506 251,1507 253,1507 255,1509 253,1511 253,1512 251,1514 251,1515 250,1516 250,1517 248,1519 248,1520 247,1521 247,1522 246,1523 246,1525 244,1527 244,1529 243,1530 243,1532 242,1533 242,1534 241,1535 241,1537 240,1538 240,1542 239,1543 239,1550 238,1551 238,1561 239,1562 239,1569 240,1570 240,1572 238,1574 236,1574 235,1575 233,1575 232,1576 231,1576 230,1577 229,1577 227,1579 226,1579 223,1582 222,1582 222,1583 221,1584 220,1584 219,1585 219,1586 213,1592 213,1593 211,1595 211,1596 209,1598 209,1599 208,1600 208,1601 206,1603 206,1604 204,1606 204,1607 203,1608 203,1609 202,1610 202,1611 201,1612 201,1613 200,1614 200,1615 199,1616 199,1617 198,1618 198,1620 197,1621 197,1623 196,1624 196,1626 195,1627 195,1630 194,1631 194,1635 193,1636 193,1638 192,1639 192,1645 191,1646 191,1653 190,1654 190,1659 189,1660 189,1666 188,1667 188,1674 187,1675 187,1682 186,1683 186,1688 185,1689 185,1697 184,1698 184,1705 183,1706 183,1710 182,1711 182,1715 181,1716 181,1720 180,1721 180,1725 179,1726 179,1727 178,1728 178,1730 177,1731 177,1734 176,1735 176,1736 175,1737 175,1738 174,1739 174,1741 173,1742 173,1743 172,1744 172,1745 171,1746 171,1747 170,1748 170,1750 168,1752 168,1753 167,1754 167,1755 166,1756 166,1758 164,1760 164,1761 163,1762 163,1764 162,1765 163,1765 164,1766 186,1766 187,1765 200,1765 201,1764 209,1764 210,1763 215,1763 216,1762 223,1762 224,1761 229,1761 230,1760 233,1760 234,1759 238,1759 239,1758 243,1758 244,1757 247,1757 248,1756 251,1756 252,1755 255,1755 256,1754 259,1754 260,1753 261,1753 262,1752 265,1752 266,1751 268,1751 269,1750 271,1750 272,1749 274,1749 275,1748 278,1748 279,1747 281,1747 282,1746 283,1746 284,1745 287,1745 288,1744 290,1744 291,1743 292,1743 293,1742 296,1742 297,1741 299,1741 300,1740 302,1740 303,1739 304,1739 305,1738 307,1738 308,1737 311,1737 312,1736 313,1736 314,1735 316,1735 317,1734 319,1734 320,1733 323,1733 324,1732 325,1732 326,1731 327,1731 328,1730 329,1730 332,1727 333,1727 340,1720 341,1720 348,1713 349,1713 356,1706 357,1706 364,1699 365,1699 378,1686 378,1684 379,1683 379,1677 378,1676 378,1673 377,1672 377,1670 378,1669 382,1669 383,1670 387,1670 388,1671 394,1671 395,1672 408,1672 409,1671 415,1671 416,1670 419,1670 420,1669 422,1669 423,1668 426,1668 427,1667 429,1667 430,1666 431,1666 432,1665 434,1665 435,1664 436,1664 437,1663 438,1663 439,1662 440,1662 441,1661 442,1661 443,1660 444,1660 446,1658 447,1658 448,1657 449,1657 451,1655 452,1655 454,1653 455,1653 457,1651 458,1651 461,1648 462,1648 465,1645 466,1645 470,1641 471,1641 475,1637 476,1637 479,1634 480,1634 481,1633 482,1634 482,1636 481,1637 481,1652 480,1653 480,1667 479,1668 479,1677 478,1678 478,1689 477,1690 477,1702 476,1703 476,1712 475,1713 475,1718 474,1719 474,1725 473,1726 473,1731 472,1732 472,1735 471,1736 471,1740 470,1741 470,1744 469,1745 469,1748 468,1749 468,1751 467,1752 467,1754 466,1755 466,1757 465,1758 465,1760 464,1761 464,1763 463,1764 463,1765 462,1766 462,1768 461,1769 461,1770 460,1771 460,1773 459,1774 459,1775 458,1776 458,1777 457,1778 457,1779 456,1780 456,1781 455,1782 455,1784 453,1786 453,1787 452,1788 452,1789 451,1790 451,1791 449,1793 449,1795 447,1797 447,1798 445,1800 445,1801 443,1803 443,1804 442,1805 442,1806 439,1809 439,1810 438,1811 438,1812 435,1815 435,1816 432,1819 432,1820 428,1824 428,1825 424,1829 424,1830 423,1831 422,1831 421,1832 421,1833 409,1845 408,1845 405,1848 404,1848 402,1850 401,1850 400,1851 399,1851 398,1852 397,1852 396,1853 395,1853 394,1854 393,1854 392,1855 390,1855 389,1856 387,1856 386,1857 383,1857 382,1858 379,1858 378,1859 368,1859 367,1860 361,1860 360,1859 350,1859 349,1858 347,1858 346,1857 344,1857 343,1856 342,1856 341,1855 339,1855 336,1852 335,1852 330,1847 330,1846 328,1844 328,1843 327,1842 327,1841 326,1840 326,1838 325,1837 325,1835 324,1834 324,1825 325,1824 325,1822 326,1821 326,1818 327,1817 327,1815 328,1814 328,1813 329,1812 329,1811 330,1810 330,1809 331,1808 331,1807 333,1805 333,1804 335,1802 335,1801 337,1799 337,1798 342,1793 346,1793 348,1795 348,1796 351,1799 351,1800 352,1801 352,1802 354,1804 355,1804 356,1805 357,1805 358,1806 360,1806 361,1805 363,1805 364,1804 365,1804 366,1803 367,1803 367,1802 366,1801 366,1800 365,1799 365,1797 364,1796 364,1795 363,1794 363,1793 362,1792 362,1790 361,1789 361,1788 360,1787 360,1786 359,1785 359,1784 358,1783 358,1782 356,1780 356,1779 350,1773 349,1773 348,1772 347,1772 346,1771 344,1771 343,1770 340,1770 339,1769 317,1769 316,1770 313,1770 312,1771 311,1771 310,1772 308,1772 307,1773 305,1773 303,1775 302,1775 301,1776 300,1776 299,1777 298,1777 295,1780 294,1780 284,1790 284,1791 281,1794 281,1795 279,1797 279,1798 278,1799 278,1800 277,1801 277,1802 276,1803 276,1805 275,1806 275,1808 274,1809 274,1813 273,1814 273,1818 272,1819 272,1828 273,1829 273,1833 274,1834 274,1838 275,1839 275,1842 276,1843 276,1844 277,1845 277,1847 278,1848 278,1849 279,1850 279,1851 280,1852 280,1853 281,1854 281,1855 282,1856 282,1857 285,1860 285,1861 288,1864 288,1865 297,1874 298,1874 302,1878 303,1878 305,1880 306,1880 308,1882 309,1882 311,1884 312,1884 313,1885 314,1885 315,1886 316,1886 317,1887 318,1887 319,1888 320,1888 321,1889 322,1889 323,1890 324,1890 325,1891 327,1891 328,1892 329,1892 330,1893 332,1893 333,1894 336,1894 337,1895 340,1895 341,1896 343,1896 344,1897 348,1897 349,1898 354,1898 355,1899 361,1899 362,1900 380,1900 381,1899 387,1899 388,1898 394,1898 395,1897 399,1897 400,1896 402,1896 403,1895 407,1895 408,1894 410,1894 411,1893 413,1893 414,1892 416,1892 417,1891 419,1891 420,1890 422,1890 423,1889 424,1889 425,1888 427,1888 428,1887 429,1887 430,1886 431,1886 432,1885 433,1885 434,1884 436,1884 437,1883 438,1883 440,1881 442,1881 443,1880 444,1880 446,1878 447,1878 448,1877 449,1877 452,1874 453,1874 456,1871 457,1871 461,1867 462,1867 474,1855 474,1854 477,1851 477,1850 481,1846 481,1845 483,1843 483,1842 485,1840 485,1839 487,1837 487,1836 488,1835 488,1834 490,1832 490,1831 491,1830 491,1829 493,1827 493,1826 494,1825 494,1824 495,1823 495,1822 496,1821 496,1820 497,1819 497,1818 498,1817 498,1815 500,1813 500,1812 501,1811 501,1809 502,1808 502,1807 503,1806 503,1805 504,1804 504,1802 505,1801 505,1799 506,1798 506,1797 507,1796 507,1793 508,1792 508,1790 509,1789 509,1786 510,1785 510,1783 511,1782 511,1779 512,1778 512,1773 513,1772 513,1770 514,1769 514,1763 515,1762 515,1755 516,1754 516,1747 517,1746 517,1739 518,1738 518,1725 519,1724 519,1714 520,1713 520,1707 521,1706 521,1697 522,1696 522,1687 523,1686 523,1679 524,1678 524,1671 525,1670 525,1662 526,1661 526,1658 527,1657 527,1656 528,1655 529,1655 533,1659 533,1660 537,1664 537,1665 542,1670 542,1671 551,1680 551,1681 552,1681 557,1686 558,1686 560,1688 561,1688 562,1689 563,1689 564,1690 565,1690 566,1691 567,1691 568,1692 570,1692 571,1693 575,1693 576,1694 590,1694 591,1693 595,1693 596,1692 597,1692 598,1691 599,1691 600,1690 601,1690 603,1688 604,1688 606,1686 606,1685 609,1682 609,1681 610,1680 610,1679 611,1678 611,1677 612,1676 612,1675 613,1674 613,1672 614,1671 614,1670 615,1669 615,1666 616,1665 616,1661 617,1660 617,1644 616,1643 616,1633 615,1632 615,1628 616,1627 622,1633 623,1633 627,1637 628,1637 630,1639 631,1639 632,1640 633,1640 634,1641 635,1641 636,1642 637,1642 638,1643 641,1643 642,1644 645,1644 646,1645 647,1645 648,1646 651,1646 652,1647 657,1647 658,1648 664,1648 665,1647 669,1647 670,1646 672,1646 673,1645 674,1645 675,1644 676,1644 677,1643 678,1643 680,1641 681,1641 689,1633 689,1632 690,1631 690,1630 691,1629 691,1628 692,1627 692,1625 693,1624 693,1619 694,1618 694,1604 693,1603 693,1598 692,1597 692,1594 691,1593 691,1592 690,1591 690,1589 689,1588 689,1586 688,1585 688,1584 686,1582 686,1581 685,1580 685,1579 683,1577 683,1576 682,1575 682,1574 679,1571 679,1570 675,1566 675,1565 668,1558 668,1557 667,1556 666,1556 665,1555 665,1554 657,1546 657,1545 656,1545 655,1544 655,1543 645,1533 645,1532 636,1523 636,1522 635,1522 634,1521 634,1520 627,1513 627,1512 620,1505 620,1504 613,1497 613,1496 609,1492 609,1491 605,1487 605,1486 604,1486 603,1485 603,1484 601,1482 601,1480 600,1479 601,1478 602,1478 603,1477 605,1477 606,1478 607,1478 608,1479 611,1479 612,1480 614,1480 615,1481 617,1481 618,1482 620,1482 621,1483 624,1483 625,1484 627,1484 628,1485 629,1485 630,1486 633,1486 634,1487 636,1487 637,1488 639,1488 640,1489 642,1489 643,1490 646,1490 647,1491 650,1491 651,1492 653,1492 654,1493 657,1493 658,1494 661,1494 662,1495 664,1495 665,1496 669,1496 670,1497 675,1497 676,1498 680,1498 681,1499 684,1499 685,1500 690,1500 691,1501 696,1501 697,1502 700,1502 701,1503 706,1503 707,1504 712,1504 713,1505 719,1505 720,1506 724,1506 725,1507 732,1507 733,1508 740,1508 741,1509 746,1509 747,1510 756,1510 757,1511 769,1511 770,1512 800,1512 801,1511 813,1511 814,1510 821,1510 822,1509 826,1509 827,1508 832,1508 833,1507 837,1507 838,1506 842,1506 843,1507 841,1509 840,1509 839,1510 838,1510 837,1511 835,1511 834,1512 833,1512 831,1514 830,1514 829,1515 828,1515 826,1517 825,1517 823,1519 822,1519 819,1522 818,1522 816,1524 815,1524 813,1526 812,1526 809,1529 808,1529 806,1531 805,1531 802,1534 801,1534 799,1536 798,1536 795,1539 794,1539 791,1542 790,1542 788,1544 787,1544 785,1546 784,1546 781,1549 780,1549 777,1552 776,1552 766,1562 766,1563 763,1566 763,1567 762,1568 762,1569 761,1570 761,1571 760,1572 760,1573 759,1574 759,1575 758,1576 758,1578 757,1579 757,1580 756,1581 756,1583 755,1584 755,1587 754,1588 754,1590 753,1591 753,1594 752,1595 752,1603 753,1604 753,1606 754,1607 754,1608 756,1610 756,1611 760,1615 761,1615 765,1619 766,1619 769,1622 770,1622 772,1624 773,1624 774,1625 775,1625 776,1626 777,1626 778,1627 780,1627 781,1628 784,1628 785,1629 799,1629 800,1628 803,1628 804,1627 806,1627 807,1626 810,1626 811,1625 813,1625 814,1624 815,1624 816,1623 817,1623 818,1622 820,1622 822,1620 823,1620 824,1619 826,1619 827,1618 828,1618 830,1616 831,1616 832,1615 833,1615 835,1613 836,1613 837,1612 838,1612 841,1609 842,1609 844,1607 845,1607 848,1604 849,1604 858,1595 859,1595 859,1594 866,1587 866,1586 869,1583 869,1582 871,1580 871,1579 874,1576 874,1575 875,1574 875,1573 878,1570 878,1569 886,1561 887,1562 887,1571 888,1572 888,1581 889,1582 889,1592 890,1593 890,1601 891,1602 891,1615 892,1616 892,1628 893,1629 893,1634 894,1635 894,1649 895,1650 895,1678 894,1679 894,1691 893,1692 893,1696 892,1697 892,1703 891,1704 891,1708 890,1709 890,1712 889,1713 889,1716 888,1717 888,1720 887,1721 887,1724 886,1725 886,1726 885,1727 885,1729 884,1730 884,1733 883,1734 883,1735 882,1736 882,1737 881,1738 881,1740 880,1741 880,1743 878,1745 878,1747 877,1748 877,1749 876,1750 876,1751 875,1752 875,1753 874,1754 874,1755 873,1756 873,1757 871,1759 871,1760 870,1761 870,1762 868,1764 868,1765 867,1766 867,1767 864,1770 864,1771 860,1775 860,1776 853,1783 852,1783 848,1787 847,1787 845,1789 844,1789 843,1790 842,1790 841,1791 839,1791 838,1792 837,1792 836,1793 833,1793 832,1794 828,1794 827,1795 822,1795 821,1796 795,1796 794,1795 792,1795 791,1794 788,1794 787,1793 784,1793 782,1791 781,1791 780,1790 778,1790 775,1787 774,1787 766,1779 766,1778 762,1774 762,1773 760,1771 760,1770 759,1769 759,1768 758,1767 758,1766 756,1764 756,1762 755,1761 755,1760 754,1759 754,1756 753,1755 753,1751 752,1750 752,1745 753,1744 753,1740 754,1739 754,1737 755,1736 755,1735 756,1734 756,1732 758,1730 758,1729 759,1728 759,1727 765,1721 775,1721 776,1722 780,1722 781,1721 783,1721 784,1720 785,1720 785,1719 784,1718 784,1717 783,1716 783,1715 781,1713 780,1713 778,1711 777,1711 775,1709 774,1709 773,1708 772,1708 771,1707 770,1707 769,1706 768,1706 767,1705 765,1705 764,1704 762,1704 761,1703 744,1703 743,1704 740,1704 739,1705 738,1705 737,1706 735,1706 734,1707 732,1707 730,1709 729,1709 728,1710 727,1710 725,1712 724,1712 722,1714 721,1714 713,1722 713,1723 712,1724 712,1726 711,1727 711,1728 712,1729 712,1743 713,1744 713,1759 714,1760 714,1767 715,1768 715,1771 716,1772 716,1775 717,1776 717,1779 718,1780 718,1782 720,1784 720,1786 721,1787 721,1788 723,1790 723,1791 724,1792 724,1793 727,1796 727,1797 741,1811 742,1811 745,1814 746,1814 749,1817 750,1817 752,1819 753,1819 755,1821 756,1821 757,1822 758,1822 760,1824 761,1824 762,1825 763,1825 764,1826 765,1826 766,1827 767,1827 768,1828 769,1828 770,1829 771,1829 772,1830 773,1830 774,1831 776,1831 777,1832 779,1832 780,1833 781,1833 782,1834 784,1834 785,1835 787,1835 788,1836 791,1836 792,1837 794,1837 795,1838 798,1838 799,1839 804,1839 805,1840 808,1840 809,1841 816,1841 817,1842 832,1842 833,1841 838,1841 839,1840 841,1840 842,1839 844,1839 845,1838 848,1838 849,1837 850,1837 851,1836 853,1836 854,1835 855,1835 856,1834 858,1834 860,1832 862,1832 863,1831 864,1831 865,1830 866,1830 867,1829 868,1829 869,1828 870,1828 871,1827 872,1827 873,1826 874,1826 875,1825 876,1825 877,1824 878,1824 880,1822 881,1822 882,1821 883,1821 886,1818 887,1818 889,1816 890,1816 893,1813 894,1813 897,1810 898,1810 898,1809 899,1808 900,1808 916,1792 916,1791 917,1790 918,1790 918,1789 922,1785 922,1784 926,1780 926,1779 928,1777 928,1776 930,1774 930,1773 932,1771 932,1770 933,1769 933,1768 935,1766 935,1765 936,1764 936,1763 937,1762 937,1761 938,1760 938,1759 939,1758 939,1757 940,1756 940,1754 941,1753 941,1751 942,1750 942,1749 943,1748 943,1744 944,1743 944,1740 945,1739 945,1737 946,1736 946,1732 947,1731 947,1727 948,1726 948,1722 949,1721 949,1715 950,1714 950,1707 951,1706 951,1697 952,1696 952,1692 953,1691 953,1683 954,1682 954,1665 953,1664 953,1657 952,1656 952,1653 951,1652 951,1645 950,1644 950,1637 949,1636 949,1630 948,1629 948,1621 947,1620 947,1603 946,1602 946,1571 945,1570 945,1564 946,1563 947,1564 947,1565 951,1569 951,1570 965,1584 966,1584 969,1587 970,1587 973,1590 974,1590 976,1592 977,1592 979,1594 980,1594 982,1596 983,1596 985,1598 986,1598 987,1599 988,1599 990,1601 991,1601 992,1602 993,1602 995,1604 996,1604 997,1605 998,1605 999,1606 1000,1606 1001,1607 1002,1607 1003,1608 1004,1608 1005,1609 1006,1609 1008,1611 1009,1611 1010,1612 1011,1612 1012,1613 1013,1613 1014,1614 1015,1614 1016,1615 1017,1615 1018,1616 1019,1616 1021,1618 1022,1618 1023,1619 1024,1619 1025,1620 1026,1620 1027,1621 1028,1621 1030,1623 1031,1623 1032,1624 1033,1624 1034,1625 1035,1625 1037,1627 1038,1627 1039,1628 1040,1628 1041,1629 1042,1629 1043,1630 1044,1630 1046,1632 1047,1632 1048,1633 1049,1633 1050,1634 1051,1634 1052,1635 1053,1635 1055,1637 1057,1637 1059,1639 1060,1639 1061,1640 1062,1640 1063,1641 1064,1641 1066,1643 1067,1643 1068,1644 1069,1644 1071,1646 1072,1646 1073,1647 1074,1647 1075,1648 1076,1648 1078,1650 1079,1650 1080,1651 1081,1651 1083,1653 1084,1653 1086,1655 1087,1655 1089,1657 1090,1657 1093,1660 1094,1660 1096,1662 1097,1662 1101,1666 1102,1666 1108,1672 1109,1672 1110,1673 1110,1674 1111,1675 1112,1675 1114,1677 1114,1678 1115,1679 1116,1679 1117,1680 1117,1681 1125,1689 1125,1690 1129,1694 1129,1695 1132,1698 1132,1699 1135,1702 1135,1703 1137,1705 1137,1706 1139,1708 1139,1709 1141,1711 1141,1712 1142,1713 1142,1714 1144,1716 1144,1717 1145,1718 1145,1719 1147,1721 1147,1722 1148,1723 1148,1724 1149,1725 1149,1726 1150,1727 1150,1728 1151,1729 1151,1730 1152,1731 1152,1732 1153,1733 1153,1735 1154,1736 1154,1737 1155,1738 1155,1740 1156,1741 1156,1744 1157,1745 1157,1748 1158,1749 1158,1752 1159,1753 1159,1772 1158,1773 1158,1776 1157,1777 1157,1781 1156,1782 1156,1784 1155,1785 1155,1788 1153,1790 1153,1792 1152,1793 1152,1794 1151,1795 1151,1796 1150,1797 1150,1798 1149,1799 1149,1800 1148,1801 1148,1802 1146,1804 1146,1805 1144,1807 1144,1808 1141,1811 1141,1812 1138,1815 1138,1816 1133,1821 1132,1821 1131,1822 1131,1823 1130,1824 1129,1824 1128,1825 1127,1825 1125,1827 1124,1827 1123,1828 1122,1828 1121,1829 1119,1829 1118,1830 1116,1830 1115,1831 1112,1831 1111,1832 1108,1832 1107,1833 1104,1833 1103,1834 1099,1834 1098,1835 1091,1835 1090,1836 1078,1836 1077,1835 1073,1835 1072,1834 1070,1834 1069,1833 1068,1833 1067,1832 1066,1832 1065,1831 1063,1831 1061,1829 1060,1829 1057,1826 1056,1826 1048,1818 1048,1817 1045,1814 1045,1813 1043,1811 1043,1810 1042,1809 1042,1808 1041,1807 1041,1806 1040,1805 1040,1804 1039,1803 1039,1801 1038,1800 1038,1795 1037,1794 1037,1788 1038,1787 1038,1781 1039,1780 1039,1779 1040,1778 1040,1777 1041,1776 1041,1775 1042,1774 1042,1773 1046,1769 1047,1769 1048,1768 1049,1768 1051,1766 1055,1766 1059,1770 1059,1771 1060,1772 1060,1773 1061,1774 1061,1775 1062,1776 1062,1777 1063,1778 1063,1780 1064,1781 1064,1782 1065,1783 1065,1784 1066,1785 1066,1786 1070,1790 1071,1790 1073,1792 1075,1792 1076,1793 1079,1793 1082,1790 1082,1785 1083,1784 1083,1780 1084,1779 1084,1778 1085,1777 1085,1776 1086,1775 1086,1772 1087,1771 1087,1769 1089,1767 1089,1764 1090,1763 1090,1755 1089,1754 1089,1751 1087,1749 1087,1747 1086,1746 1086,1745 1083,1742 1083,1741 1079,1737 1078,1737 1076,1735 1075,1735 1074,1734 1073,1734 1072,1733 1071,1733 1070,1732 1069,1732 1068,1731 1067,1731 1066,1730 1064,1730 1063,1729 1061,1729 1060,1728 1058,1728 1057,1727 1052,1727 1051,1726 1031,1726 1030,1727 1026,1727 1025,1728 1022,1728 1021,1729 1020,1729 1019,1730 1017,1730 1016,1731 1014,1731 1013,1732 1012,1732 1011,1733 1010,1733 1009,1734 1008,1734 1007,1735 1006,1735 1005,1736 1004,1736 1003,1737 1002,1737 999,1740 998,1740 993,1745 993,1746 992,1747 992,1748 991,1749 991,1750 990,1751 990,1752 989,1753 989,1754 988,1755 988,1757 987,1758 987,1759 986,1760 986,1762 985,1763 985,1766 984,1767 984,1770 983,1771 983,1776 982,1777 982,1801 983,1802 983,1808 984,1809 984,1811 985,1812 985,1815 986,1816 986,1818 987,1819 987,1820 988,1821 988,1822 989,1823 989,1825 991,1827 991,1828 992,1829 992,1830 994,1832 994,1833 996,1835 996,1836 999,1839 999,1840 1002,1843 1002,1844 1014,1856 1015,1856 1019,1860 1020,1860 1022,1862 1023,1862 1025,1864 1026,1864 1027,1865 1028,1865 1029,1866 1030,1866 1031,1867 1032,1867 1034,1869 1036,1869 1037,1870 1039,1870 1040,1871 1041,1871 1042,1872 1044,1872 1045,1873 1048,1873 1049,1874 1053,1874 1054,1875 1056,1875 1057,1876 1063,1876 1064,1877 1072,1877 1073,1878 1095,1878 1096,1877 1103,1877 1104,1876 1108,1876 1109,1875 1111,1875 1112,1874 1115,1874 1116,1873 1118,1873 1119,1872 1121,1872 1122,1871 1123,1871 1124,1870 1125,1870 1126,1869 1128,1869 1130,1867 1131,1867 1132,1866 1133,1866 1134,1865 1135,1865 1137,1863 1138,1863 1139,1862 1140,1862 1142,1860 1143,1860 1144,1859 1145,1859 1147,1857 1148,1857 1150,1855 1151,1855 1153,1853 1154,1853 1155,1852 1156,1852 1159,1849 1160,1849 1162,1847 1163,1847 1166,1844 1167,1844 1170,1841 1171,1841 1176,1836 1177,1836 1189,1824 1190,1824 1190,1823 1195,1818 1195,1817 1198,1814 1198,1813 1199,1812 1199,1811 1201,1809 1201,1808 1202,1807 1202,1806 1203,1805 1203,1804 1204,1803 1204,1802 1205,1801 1205,1799 1206,1798 1206,1797 1207,1796 1207,1794 1208,1793 1208,1790 1209,1789 1209,1786 1210,1785 1210,1783 1211,1782 1211,1778 1212,1777 1212,1772 1213,1771 1213,1768 1214,1767 1214,1760 1215,1759 1215,1745 1214,1744 1214,1737 1213,1736 1213,1733 1212,1732 1212,1728 1211,1727 1211,1723 1210,1722 1210,1721 1209,1720 1209,1717 1208,1716 1208,1713 1207,1712 1207,1709 1206,1708 1206,1707 1205,1706 1205,1704 1204,1703 1204,1701 1203,1700 1203,1699 1202,1698 1202,1696 1201,1695 1201,1693 1200,1692 1200,1691 1199,1690 1199,1689 1198,1688 1198,1686 1197,1685 1197,1683 1195,1681 1195,1679 1194,1678 1194,1677 1193,1676 1193,1674 1192,1673 1192,1672 1191,1671 1191,1670 1190,1669 1190,1668 1189,1667 1189,1666 1188,1665 1188,1664 1187,1663 1187,1662 1186,1661 1186,1660 1184,1658 1184,1657 1183,1656 1183,1655 1181,1653 1181,1652 1180,1651 1180,1650 1177,1647 1177,1646 1173,1642 1173,1641 1167,1635 1167,1634 1166,1633 1165,1633 1156,1624 1155,1624 1151,1620 1150,1620 1148,1618 1147,1618 1145,1616 1144,1616 1142,1614 1141,1614 1139,1612 1138,1612 1137,1611 1136,1611 1134,1609 1133,1609 1132,1608 1131,1608 1129,1606 1128,1606 1127,1605 1125,1605 1123,1603 1122,1603 1121,1602 1119,1602 1118,1601 1117,1601 1116,1600 1115,1600 1114,1599 1113,1599 1112,1598 1111,1598 1110,1597 1109,1597 1108,1596 1106,1596 1105,1595 1104,1595 1103,1594 1101,1594 1099,1592 1097,1592 1096,1591 1095,1591 1094,1590 1093,1590 1092,1589 1091,1589 1090,1588 1088,1588 1087,1587 1086,1587 1085,1586 1084,1586 1083,1585 1082,1585 1081,1584 1080,1584 1079,1583 1078,1583 1077,1582 1076,1582 1075,1581 1074,1581 1073,1580 1071,1580 1069,1578 1068,1578 1067,1577 1066,1577 1065,1576 1064,1576 1063,1575 1062,1575 1061,1574 1060,1574 1059,1573 1058,1573 1056,1571 1055,1571 1054,1570 1053,1570 1051,1568 1050,1568 1049,1567 1048,1567 1047,1566 1046,1566 1043,1563 1042,1563 1040,1561 1039,1561 1037,1559 1036,1559 1033,1556 1032,1556 1028,1552 1027,1552 1023,1548 1022,1548 1019,1545 1018,1545 1013,1540 1012,1540 1008,1536 1007,1536 1006,1535 1008,1533 1010,1533 1011,1532 1013,1532 1014,1531 1015,1531 1017,1529 1019,1529 1020,1528 1021,1528 1023,1526 1024,1526 1025,1525 1026,1525 1029,1522 1030,1522 1032,1520 1033,1520 1038,1515 1038,1514 1041,1511 1041,1510 1042,1509 1042,1508 1044,1506 1045,1506 1047,1508 1048,1508 1050,1510 1051,1510 1052,1511 1053,1511 1055,1513 1056,1513 1058,1515 1059,1515 1061,1517 1062,1517 1064,1519 1065,1519 1067,1521 1068,1521 1069,1522 1070,1522 1071,1523 1072,1523 1073,1524 1074,1524 1075,1525 1076,1525 1077,1526 1079,1526 1081,1528 1083,1528 1084,1529 1087,1529 1088,1530 1089,1530 1090,1531 1093,1531 1094,1532 1099,1532 1100,1533 1116,1533 1117,1534 1119,1534 1120,1535 1122,1535 1123,1536 1124,1536 1138,1550 1138,1551 1142,1555 1142,1556 1143,1556 1145,1558 1145,1559 1146,1560 1147,1560 1153,1566 1154,1566 1156,1568 1157,1568 1159,1570 1160,1570 1161,1571 1162,1571 1164,1573 1165,1573 1166,1574 1167,1574 1168,1575 1169,1575 1170,1576 1171,1576 1172,1577 1174,1577 1175,1578 1178,1578 1179,1579 1180,1579 1181,1580 1184,1580 1185,1581 1189,1581 1190,1582 1192,1582 1193,1583 1195,1583 1196,1584 1199,1584 1200,1585 1203,1585 1204,1586 1205,1586 1206,1587 1209,1587 1210,1588 1212,1588 1213,1589 1214,1589 1215,1590 1217,1590 1218,1591 1220,1591 1221,1592 1223,1592 1224,1593 1225,1593 1226,1594 1228,1594 1229,1595 1231,1595 1232,1596 1233,1596 1234,1597 1235,1597 1236,1598 1238,1598 1239,1599 1240,1599 1241,1600 1242,1600 1243,1601 1244,1601 1245,1602 1246,1602 1247,1603 1248,1603 1249,1604 1250,1604 1251,1605 1252,1605 1253,1606 1254,1606 1255,1607 1256,1607 1257,1608 1258,1608 1259,1609 1260,1609 1262,1611 1263,1611 1264,1612 1265,1612 1266,1613 1267,1613 1269,1615 1270,1615 1272,1617 1273,1617 1275,1619 1276,1619 1277,1620 1278,1620 1281,1623 1282,1623 1285,1626 1286,1626 1289,1629 1290,1629 1293,1632 1294,1632 1299,1637 1300,1637 1307,1644 1308,1644 1309,1645 1309,1646 1310,1647 1311,1647 1320,1656 1320,1657 1321,1657 1323,1659 1323,1660 1330,1667 1330,1668 1336,1674 1336,1675 1340,1679 1340,1680 1343,1683 1343,1684 1346,1687 1346,1688 1349,1691 1350,1691 1351,1692 1352,1692 1353,1693 1354,1693 1355,1694 1358,1694 1359,1693 1360,1693 1361,1692 1361,1689 1360,1688 1360,1687 1358,1685 1358,1684 1355,1681 1362,1674 1362,1673 1367,1668 1367,1667 1369,1665 1369,1664 1371,1662 1371,1660 1372,1659 1372,1658 1373,1657 1373,1656 1374,1655 1374,1653 1375,1652 1375,1651 1376,1650 1376,1648 1377,1647 1377,1646 1378,1645 1378,1643 1379,1642 1379,1640 1380,1639 1380,1638 1381,1637 1381,1636 1382,1635 1382,1633 1383,1632 1383,1630 1384,1629 1384,1628 1385,1627 1385,1625 1386,1624 1386,1621 1387,1620 1387,1619 1388,1618 1388,1616 1389,1615 1389,1613 1390,1612 1390,1609 1391,1608 1391,1607 1392,1606 1392,1603 1393,1602 1393,1599 1394,1598 1394,1596 1395,1595 1395,1592 1396,1591 1396,1586 1397,1585 1397,1579 1398,1578 1398,1573 1399,1572 1399,1539 1398,1538 1398,1534 1397,1533 1397,1526 1396,1525 1396,1520 1395,1519 1395,1515 1394,1514 1394,1512 1393,1511 1393,1507 1392,1506 1392,1503 1391,1502 1391,1501 1390,1500 1390,1497 1389,1496 1389,1493 1388,1492 1388,1490 1387,1489 1387,1488 1386,1487 1386,1484 1385,1483 1385,1481 1384,1480 1384,1479 1383,1478 1383,1476 1382,1475 1382,1473 1381,1472 1381,1471 1380,1470 1380,1469 1379,1468 1379,1466 1378,1465 1378,1464 1377,1463 1377,1462 1376,1461 1376,1459 1375,1458 1375,1457 1374,1456 1374,1455 1373,1454 1373,1453 1372,1452 1372,1450 1371,1449 1371,1448 1370,1447 1370,1446 1369,1445 1369,1444 1368,1443 1368,1441 1366,1439 1366,1438 1365,1437 1365,1435 1364,1434 1364,1433 1362,1431 1362,1430 1361,1429 1361,1428 1360,1427 1360,1426 1359,1425 1359,1424 1358,1423 1358,1422 1357,1421 1357,1419 1358,1418 1361,1421 1362,1421 1366,1425 1367,1425 1373,1431 1374,1431 1393,1450 1393,1451 1394,1451 1396,1453 1396,1454 1400,1458 1400,1459 1405,1464 1405,1465 1408,1468 1408,1469 1410,1471 1410,1472 1413,1475 1413,1476 1415,1478 1415,1479 1417,1481 1417,1482 1418,1483 1418,1484 1420,1486 1420,1487 1421,1488 1421,1489 1423,1491 1423,1492 1424,1493 1424,1494 1425,1495 1425,1497 1427,1499 1427,1501 1428,1502 1428,1503 1429,1504 1429,1505 1430,1506 1430,1507 1431,1508 1431,1510 1432,1511 1432,1512 1433,1513 1433,1514 1434,1515 1434,1516 1435,1517 1435,1519 1436,1520 1436,1521 1437,1522 1437,1523 1438,1524 1438,1526 1439,1527 1439,1528 1440,1529 1440,1530 1441,1531 1441,1532 1442,1533 1442,1535 1444,1537 1444,1539 1445,1540 1445,1541 1446,1542 1446,1543 1447,1544 1447,1545 1448,1546 1448,1548 1449,1549 1449,1550 1450,1551 1450,1552 1451,1553 1451,1554 1452,1555 1452,1556 1453,1557 1453,1558 1454,1559 1454,1560 1455,1561 1455,1562 1456,1563 1456,1564 1457,1565 1457,1566 1458,1567 1458,1568 1459,1569 1459,1570 1461,1572 1461,1573 1462,1574 1462,1575 1463,1576 1463,1577 1465,1579 1465,1580 1466,1581 1466,1582 1467,1583 1467,1584 1469,1586 1469,1587 1471,1589 1471,1590 1473,1592 1473,1593 1474,1594 1474,1595 1477,1598 1477,1599 1479,1601 1479,1602 1483,1606 1483,1607 1487,1611 1487,1612 1495,1620 1496,1620 1501,1625 1502,1625 1503,1626 1504,1626 1506,1628 1507,1628 1508,1629 1509,1629 1510,1630 1511,1630 1512,1631 1513,1631 1514,1632 1515,1632 1516,1633 1518,1633 1519,1634 1521,1634 1522,1635 1524,1635 1525,1636 1529,1636 1530,1637 1536,1637 1537,1638 1553,1638 1554,1637 1561,1637 1562,1636 1566,1636 1567,1635 1569,1635 1570,1634 1572,1634 1573,1633 1576,1633 1577,1632 1579,1632 1580,1631 1581,1631 1582,1630 1583,1630 1584,1629 1586,1629 1588,1627 1589,1627 1590,1626 1592,1626 1595,1623 1596,1623 1597,1622 1598,1622 1598,1621 1599,1620 1600,1620 1606,1614 1606,1613 1609,1610 1609,1609 1610,1608 1610,1607 1612,1605 1612,1603 1613,1602 1613,1601 1615,1599 1615,1597 1616,1596 1616,1595 1617,1594 1617,1593 1618,1592 1618,1591 1619,1590 1619,1588 1620,1587 1620,1586 1621,1585 1621,1584 1622,1583 1622,1581 1623,1580 1623,1578 1624,1577 1624,1576 1625,1575 1625,1573 1626,1572 1626,1569 1627,1568 1627,1564 1628,1563 1628,1559 1629,1558 1629,1548 1628,1547 1628,1544 1627,1543 1627,1540 1626,1539 1626,1537 1625,1536 1625,1534 1623,1532 1623,1531 1622,1530 1622,1529 1620,1527 1620,1526 1616,1522 1616,1521 1612,1517 1611,1517 1608,1514 1607,1514 1606,1513 1605,1513 1604,1512 1603,1512 1602,1511 1600,1511 1599,1510 1596,1510 1595,1509 1584,1509 1583,1510 1579,1510 1578,1511 1574,1511 1573,1512 1570,1512 1569,1513 1568,1513 1567,1514 1564,1514 1560,1518 1563,1521 1564,1521 1565,1522 1573,1522 1574,1521 1576,1521 1577,1522 1581,1522 1582,1523 1583,1523 1585,1525 1586,1525 1591,1530 1591,1532 1592,1533 1592,1534 1593,1535 1593,1537 1594,1538 1594,1549 1593,1550 1593,1553 1592,1554 1592,1556 1591,1557 1591,1559 1590,1560 1590,1561 1589,1562 1589,1563 1588,1564 1588,1565 1582,1571 1581,1571 1579,1573 1578,1573 1577,1574 1576,1574 1575,1575 1573,1575 1572,1576 1571,1576 1570,1577 1565,1577 1564,1578 1552,1578 1551,1577 1544,1577 1543,1576 1540,1576 1539,1575 1536,1575 1535,1574 1533,1574 1532,1573 1530,1573 1529,1572 1528,1572 1527,1571 1525,1571 1524,1570 1523,1570 1521,1568 1520,1568 1519,1567 1518,1567 1515,1564 1514,1564 1504,1554 1504,1553 1502,1551 1502,1550 1501,1549 1501,1548 1500,1547 1500,1546 1498,1544 1498,1543 1497,1542 1497,1540 1496,1539 1496,1538 1495,1537 1495,1536 1494,1535 1494,1533 1493,1532 1493,1530 1492,1529 1492,1528 1491,1527 1491,1525 1490,1524 1490,1521 1489,1520 1489,1518 1488,1517 1488,1515 1487,1514 1487,1510 1486,1509 1486,1506 1485,1505 1485,1503 1484,1502 1484,1497 1483,1496 1483,1492 1482,1491 1482,1486 1481,1485 1481,1481 1480,1480 1480,1474 1479,1473 1479,1467 1478,1466 1478,1463 1477,1462 1477,1456 1476,1455 1476,1450 1475,1449 1475,1445 1474,1444 1474,1441 1473,1440 1473,1437 1472,1436 1472,1432 1471,1431 1471,1429 1470,1428 1470,1425 1469,1424 1469,1422 1468,1421 1468,1418 1467,1417 1467,1416 1466,1415 1466,1413 1465,1412 1465,1410 1464,1409 1464,1408 1463,1407 1463,1405 1462,1404 1462,1403 1461,1402 1461,1401 1460,1400 1460,1399 1459,1398 1459,1396 1458,1395 1458,1394 1456,1392 1456,1391 1455,1390 1455,1389 1454,1388 1454,1387 1453,1386 1453,1385 1452,1384 1452,1383 1450,1381 1450,1380 1449,1379 1449,1378 1447,1376 1447,1375 1445,1373 1445,1372 1442,1369 1442,1368 1439,1365 1439,1364 1425,1350 1424,1350 1423,1349 1423,1348 1422,1348 1419,1345 1418,1345 1416,1343 1415,1343 1412,1340 1411,1340 1409,1338 1408,1338 1407,1337 1406,1337 1405,1336 1404,1336 1402,1334 1400,1334 1399,1333 1398,1333 1397,1332 1396,1332 1395,1331 1393,1331 1392,1330 1390,1330 1389,1329 1386,1329 1385,1328 1383,1328 1382,1327 1377,1327 1376,1326 1377,1325 1379,1325 1380,1324 1382,1324 1383,1323 1386,1323 1387,1322 1389,1322 1390,1321 1391,1321 1392,1320 1395,1320 1396,1319 1398,1319 1399,1318 1400,1318 1401,1317 1404,1317 1405,1316 1407,1316 1408,1315 1411,1315 1412,1314 1413,1314 1414,1313 1416,1313 1417,1312 1420,1312 1421,1311 1422,1311 1423,1310 1425,1310 1426,1309 1429,1309 1430,1308 1432,1308 1433,1307 1435,1307 1436,1306 1438,1306 1439,1305 1441,1305 1442,1304 1444,1304 1445,1303 1447,1303 1448,1302 1451,1302 1452,1301 1454,1301 1455,1300 1456,1300 1457,1299 1460,1299 1461,1300 1461,1317 1462,1318 1462,1329 1463,1330 1463,1336 1464,1337 1464,1339 1465,1340 1465,1343 1466,1344 1466,1346 1467,1347 1467,1348 1468,1349 1468,1350 1469,1351 1469,1352 1470,1353 1470,1354 1472,1356 1472,1357 1474,1359 1474,1360 1482,1368 1483,1368 1484,1369 1485,1369 1488,1372 1489,1372 1490,1373 1491,1373 1492,1374 1493,1374 1494,1375 1496,1375 1497,1376 1499,1376 1500,1377 1501,1377 1502,1378 1505,1378 1506,1379 1510,1379 1511,1380 1516,1380 1517,1381 1530,1381 1531,1380 1536,1380 1537,1379 1541,1379 1542,1378 1545,1378 1546,1377 1547,1377 1548,1376 1551,1376 1552,1375 1553,1375 1554,1374 1555,1374 1556,1373 1557,1373 1558,1372 1559,1372 1562,1369 1563,1369 1568,1364 1568,1363 1570,1361 1570,1360 1573,1357 1573,1356 1576,1353 1577,1353 1579,1355 1579,1358 1580,1359 1580,1363 1581,1364 1581,1367 1582,1368 1582,1370 1583,1371 1583,1372 1584,1373 1584,1375 1585,1376 1585,1377 1586,1378 1586,1379 1587,1380 1587,1381 1588,1382 1588,1383 1590,1385 1590,1386 1592,1388 1592,1389 1595,1392 1595,1393 1609,1407 1610,1407 1613,1410 1614,1410 1617,1413 1618,1413 1619,1414 1620,1414 1623,1417 1624,1417 1625,1418 1626,1418 1628,1420 1629,1420 1630,1421 1631,1421 1632,1422 1633,1422 1634,1423 1635,1423 1636,1424 1637,1424 1638,1425 1639,1425 1641,1427 1642,1427 1643,1428 1644,1428 1645,1429 1646,1429 1647,1430 1648,1430 1649,1431 1650,1431 1651,1432 1652,1432 1653,1433 1654,1433 1655,1434 1656,1434 1657,1435 1658,1435 1660,1437 1661,1437 1662,1438 1663,1438 1664,1439 1666,1439 1668,1441 1669,1441 1670,1442 1671,1442 1672,1443 1673,1443 1674,1444 1675,1444 1676,1445 1677,1445 1678,1446 1679,1446 1681,1448 1683,1448 1684,1449 1685,1449 1687,1451 1688,1451 1689,1452 1690,1452 1691,1453 1692,1453 1694,1455 1695,1455 1696,1456 1697,1456 1698,1457 1699,1457 1700,1458 1701,1458 1703,1460 1704,1460 1705,1461 1706,1461 1707,1462 1708,1462 1710,1464 1711,1464 1713,1466 1714,1466 1715,1467 1716,1467 1718,1469 1719,1469 1721,1471 1722,1471 1724,1473 1725,1473 1727,1475 1728,1475 1730,1477 1731,1477 1733,1479 1734,1479 1737,1482 1738,1482 1740,1484 1741,1484 1745,1488 1746,1488 1749,1491 1750,1491 1755,1496 1756,1496 1764,1504 1765,1504 1776,1515 1776,1516 1783,1523 1783,1524 1787,1528 1787,1529 1790,1532 1790,1533 1793,1536 1793,1537 1794,1538 1794,1539 1796,1541 1796,1542 1798,1544 1798,1545 1800,1547 1800,1548 1801,1549 1801,1550 1802,1551 1802,1552 1803,1553 1803,1554 1804,1555 1804,1556 1805,1557 1805,1558 1806,1559 1806,1560 1807,1561 1807,1563 1808,1564 1808,1566 1810,1568 1810,1571 1811,1572 1811,1574 1812,1575 1812,1577 1813,1578 1813,1580 1814,1581 1814,1584 1815,1585 1815,1589 1816,1590 1816,1593 1817,1594 1817,1598 1814,1601 1810,1601 1809,1602 1809,1605 1808,1606 1808,1612 1809,1613 1810,1613 1811,1614 1819,1614 1820,1613 1830,1613 1831,1612 1831,1604 1830,1603 1830,1599 1831,1598 1831,1596 1833,1594 1833,1593 1835,1591 1835,1590 1836,1589 1836,1588 1838,1586 1838,1585 1839,1584 1839,1583 1841,1581 1841,1580 1842,1579 1842,1578 1844,1576 1844,1575 1846,1573 1846,1572 1848,1570 1848,1569 1849,1568 1849,1567 1852,1564 1852,1563 1853,1562 1853,1561 1855,1559 1855,1558 1856,1557 1856,1556 1857,1555 1857,1554 1859,1552 1859,1551 1860,1550 1860,1549 1862,1547 1862,1546 1863,1545 1863,1544 1864,1543 1864,1542 1865,1541 1865,1540 1866,1539 1866,1538 1867,1537 1867,1536 1868,1535 1868,1534 1869,1533 1869,1532 1870,1531 1870,1530 1871,1529 1871,1528 1872,1527 1872,1526 1873,1525 1873,1523 1874,1522 1874,1520 1876,1518 1876,1516 1877,1515 1877,1513 1878,1512 1878,1511 1879,1510 1879,1508 1880,1507 1880,1505 1881,1504 1881,1501 1882,1500 1882,1499 1883,1498 1883,1495 1884,1494 1884,1491 1885,1490 1885,1487 1886,1486 1886,1483 1887,1482 1887,1477 1888,1476 1888,1471 1889,1470 1889,1466 1890,1465 1890,1459 1891,1458 1891,1449 1892,1448 1892,1441 1893,1440 1893,1430 1894,1429 1894,1412 1895,1411 1895,1374 1894,1373 1894,1365 1893,1364 1893,1359 1892,1358 1892,1355 1891,1354 1891,1350 1890,1349 1890,1346 1889,1345 1889,1343 1888,1342 1888,1339 1887,1338 1887,1335 1886,1334 1886,1332 1885,1331 1885,1329 1884,1328 1884,1326 1883,1325 1883,1323 1882,1322 1882,1321 1881,1320 1881,1318 1880,1317 1880,1315 1879,1314 1879,1313 1878,1312 1878,1310 1877,1309 1877,1308 1876,1307 1876,1305 1875,1304 1875,1303 1874,1302 1874,1300 1873,1299 1873,1297 1872,1296 1872,1295 1871,1294 1871,1293 1870,1292 1870,1290 1869,1289 1869,1288 1868,1287 1868,1286 1867,1285 1867,1283 1866,1282 1866,1281 1865,1280 1865,1279 1864,1278 1864,1277 1863,1276 1863,1274 1862,1273 1862,1271 1860,1269 1860,1267 1859,1266 1859,1265 1858,1264 1858,1263 1857,1262 1857,1261 1856,1260 1856,1259 1855,1258 1855,1257 1853,1255 1853,1254 1850,1251 1850,1250 1845,1245 1845,1244 1835,1234 1835,1233 1834,1233 1832,1231 1832,1230 1831,1229 1830,1229 1828,1227 1828,1226 1827,1225 1826,1225 1825,1224 1825,1223 1810,1208 1810,1207 1834,1183 1834,1182 1837,1179 1837,1178 1839,1176 1839,1175 1841,1173 1841,1172 1842,1171 1842,1169 1843,1168 1843,1167 1844,1166 1844,1165 1845,1164 1845,1162 1846,1161 1846,1157 1847,1156 1847,1154 1848,1153 1848,1129 1847,1128 1847,1125 1846,1124 1846,1120 1845,1119 1845,1117 1844,1116 1844,1115 1843,1114 1843,1113 1842,1112 1842,1110 1841,1109 1841,1108 1839,1106 1839,1105 1838,1104 1838,1103 1837,1102 1837,1101 1836,1100 1836,1099 1835,1098 1835,1097 1834,1096 1834,1095 1833,1094 1833,1093 1832,1092 1832,1091 1831,1090 1831,1089 1829,1087 1829,1086 1827,1084 1827,1083 1824,1080 1824,1079 1817,1072 1816,1072 1813,1069 1812,1069 1810,1067 1809,1067 1808,1066 1807,1066 1806,1065 1805,1065 1804,1064 1803,1064 1802,1063 1800,1063 1798,1061 1798,1060 1799,1059 1799,1058 1800,1057 1800,1056 1801,1055 1801,1053 1803,1051 1803,1050 1804,1049 1804,1047 1805,1046 1805,1045 1806,1044 1806,1043 1807,1042 1807,1040 1808,1039 1808,1036 1809,1035 1809,1033 1810,1032 1810,1027 1811,1026 1811,1015 1812,1014 1812,999 1811,998 1811,987 1810,986 1810,981 1809,980 1809,978 1808,977 1808,974 1807,973 1807,971 1806,970 1806,968 1804,966 1804,964 1802,962 1802,961 1800,959 1800,958 1797,955 1797,954 1796,953 1795,953 1794,952 1794,951 1793,950 1792,950 1788,946 1787,946 1784,943 1783,943 1781,941 1780,941 1778,939 1777,939 1776,938 1775,938 1774,937 1773,937 1772,936 1770,936 1769,935 1768,935 1767,934 1763,934 1762,933 1751,933 1750,934 1747,934 1746,935 1745,935 1744,936 1742,936 1741,937 1739,935 1739,934 1738,933 1738,930 1737,929 1737,926 1736,925 1736,923 1735,922 1735,919 1734,918 1734,915 1733,914 1733,912 1732,911 1732,909 1731,908 1731,905 1730,904 1730,901 1729,900 1729,899 1728,898 1728,897 1727,896 1727,894 1725,892 1725,891 1720,886 1720,885 1719,885 1714,880 1713,880 1710,877 1709,877 1707,875 1706,875 1705,874 1705,873 1706,872 1708,872 1709,871 1713,871 1714,870 1717,870 1718,869 1721,869 1722,868 1724,868 1725,867 1730,867 1731,866 1736,866 1737,865 1741,865 1742,864 1747,864 1748,863 1753,863 1754,862 1758,862 1759,861 1762,861 1763,860 1766,860 1767,859 1770,859 1771,858 1772,858 1773,857 1776,857 1777,856 1779,856 1780,855 1782,855 1783,854 1784,854 1785,853 1787,853 1788,852 1790,852 1792,850 1794,850 1795,849 1796,849 1797,848 1798,848 1799,847 1800,847 1801,846 1802,846 1803,845 1804,845 1805,844 1806,844 1807,843 1808,843 1809,842 1810,842 1812,840 1813,840 1814,839 1815,839 1818,836 1819,836 1820,835 1821,835 1823,833 1824,833 1827,830 1828,830 1830,828 1831,828 1835,824 1836,824 1836,823 1837,822 1838,822 1852,808 1852,807 1855,804 1855,803 1856,802 1856,801 1858,799 1858,798 1859,797 1859,796 1860,795 1860,794 1861,793 1861,792 1862,791 1862,790 1863,789 1863,787 1864,786 1864,784 1865,783 1865,781 1866,780 1866,776 1867,775 1867,758 1866,757 1866,754 1865,753 1865,752 1864,751 1864,750 1863,749 1863,748 1861,746 1861,745 1855,739 1854,739 1849,734 1848,734 1841,727 1840,727 1838,725 1837,725 1835,723 1834,723 1832,721 1830,721 1829,720 1827,720 1826,719 1825,719 1824,718 1817,718 1816,717 1816,716 1850,682 1850,681 1856,675 1856,674 1860,670 1860,669 1861,668 1862,668 1862,667 1865,664 1865,663 1867,661 1867,660 1870,657 1870,656 1872,654 1872,653 1874,651 1874,650 1876,648 1876,647 1877,646 1877,645 1878,644 1878,643 1879,642 1879,641 1880,640 1880,639 1881,638 1881,636 1883,634 1883,632 1884,631 1884,628 1885,627 1885,626 1886,625 1886,622 1887,621 1887,617 1888,616 1888,607 1889,606 1889,596 1888,595 1888,592 1887,591 1887,589 1886,588 1886,587 1884,585 1884,584 1875,575 1874,575 1872,573 1871,573 1868,570 1867,570 1864,567 1863,567 1861,565 1860,565 1859,564 1858,564 1857,563 1854,563 1853,562 1844,562 1843,563 1839,563 1838,564 1836,564 1835,565 1834,565 1833,566 1832,566 1831,565 1831,564 1832,563 1832,562 1834,560 1834,559 1835,558 1835,557 1836,556 1836,555 1837,554 1837,553 1838,552 1838,550 1839,549 1839,547 1840,546 1840,545 1841,544 1841,542 1842,541 1842,538 1843,537 1843,536 1844,535 1844,533 1845,532 1845,530 1846,529 1846,527 1847,526 1847,524 1848,523 1848,521 1849,520 1849,518 1850,517 1850,515 1851,514 1851,512 1852,511 1852,509 1853,508 1853,505 1854,504 1854,503 1855,502 1855,500 1856,499 1856,496 1857,495 1857,493 1858,492 1858,490 1859,489 1859,487 1860,486 1860,483 1861,482 1861,480 1862,479 1862,476 1863,475 1863,471 1864,470 1864,465 1865,464 1865,454 1864,453 1864,449 1863,448 1863,445 1862,444 1862,442 1860,440 1860,438 1859,437 1859,436 1857,434 1857,433 1856,432 1856,431 1854,429 1854,428 1853,427 1853,426 1851,424 1851,423 1849,421 1849,420 1846,417 1846,416 1838,408 1837,408 1836,407 1835,407 1834,406 1833,406 1831,404 1829,404 1828,403 1826,403 1825,402 1823,402 1822,401 1816,401 1815,400 1810,400 1809,401 1802,401 1801,402 1800,402 1799,403 1796,403 1795,404 1793,404 1792,405 1791,405 1789,407 1788,407 1787,408 1786,408 1784,410 1783,410 1777,416 1777,417 1775,419 1775,420 1773,422 1773,423 1772,424 1772,426 1771,427 1771,429 1770,430 1770,432 1769,433 1769,436 1768,437 1766,435 1766,434 1765,433 1765,432 1762,429 1762,428 1760,426 1760,425 1758,423 1758,422 1755,419 1755,418 1754,417 1754,416 1751,413 1751,412 1749,410 1749,409 1747,407 1747,406 1745,404 1745,403 1743,401 1743,400 1741,398 1741,397 1738,394 1738,393 1736,391 1736,390 1734,388 1734,387 1731,384 1731,383 1729,381 1729,380 1727,378 1727,377 1724,374 1724,373 1721,370 1721,369 1718,366 1718,365 1716,363 1716,362 1712,358 1712,357 1709,354 1709,353 1706,350 1706,349 1703,346 1703,345 1702,344 1702,343 1700,341 1700,340 1699,339 1699,338 1697,336 1697,335 1696,334 1696,333 1695,332 1695,331 1693,329 1693,327 1692,326 1692,325 1691,324 1691,323 1690,322 1690,321 1689,320 1689,319 1688,318 1688,316 1687,315 1687,314 1686,313 1686,311 1685,310 1685,307 1684,306 1684,304 1683,303 1683,301 1682,300 1682,296 1681,295 1681,292 1680,291 1680,288 1679,287 1679,281 1678,280 1678,268 1679,267 1679,262 1680,261 1680,259 1681,258 1681,257 1682,256 1682,254 1683,253 1683,252 1684,251 1684,250 1685,249 1685,247 1686,246 1686,245 1687,244 1687,243 1688,242 1688,241 1689,240 1689,238 1691,236 1691,235 1692,234 1692,233 1695,230 1695,229 1705,219 1706,219 1709,216 1710,216 1711,215 1712,215 1714,213 1715,213 1716,212 1717,212 1718,211 1720,211 1722,209 1724,209 1725,208 1728,208 1729,207 1731,207 1732,206 1737,206 1738,205 1750,205 1751,206 1755,206 1756,207 1759,207 1760,208 1762,208 1763,209 1765,209 1766,210 1767,210 1768,211 1769,211 1770,212 1771,212 1773,214 1774,214 1782,222 1782,223 1784,225 1784,226 1785,227 1785,228 1786,229 1786,231 1787,232 1787,237 1788,238 1788,243 1789,244 1789,248 1790,249 1790,250 1791,251 1791,252 1792,253 1792,254 1796,258 1801,258 1801,257 1802,256 1802,255 1803,254 1803,252 1804,251 1804,250 1806,248 1806,247 1807,246 1807,245 1809,243 1809,242 1810,241 1810,240 1811,239 1811,238 1812,237 1812,236 1813,235 1813,232 1814,231 1814,210 1813,209 1813,206 1812,205 1812,203 1811,202 1811,200 1810,199 1810,197 1808,195 1808,194 1807,193 1807,192 1806,191 1806,190 1801,185 1801,184 1797,180 1796,180 1790,174 1789,174 1786,171 1785,171 1783,169 1782,169 1780,167 1779,167 1778,166 1777,166 1775,164 1774,164 1773,163 1772,163 1771,162 1770,162 1769,161 1768,161 1767,160 1766,160 1765,159 1763,159 1761,157 1759,157 1758,156 1757,156 1756,155 1755,155 1754,154 1753,154 1752,153 1750,153 1749,152 1747,152 1746,151 1745,151 1744,150 1741,150 1740,149 1737,149 1736,148 1733,148 1732,147" stroke="black" stroke-width="1" /></svg>