<?xml version="1.0" standalone="no"?>
<!DOCTYPE svg PUBLIC "-//W3C//DTD SVG 20010904//EN"
 "http://www.w3.org/TR/2001/REC-SVG-20010904/DTD/svg10.dtd">
<svg version="1.0" xmlns="http://www.w3.org/2000/svg"
 width="3508.000000pt" height="3508.000000pt" viewBox="0 0 3508.000000 3508.000000"
 preserveAspectRatio="xMidYMid meet">

<g transform="translate(0.000000,3508.000000) scale(0.100000,-0.100000)"
fill="#000000" stroke="none">
<path d="M29392 32530 c-200 -44 -410 -127 -577 -230 -384 -236 -785 -692
-1026 -1167 -225 -446 -325 -991 -269 -1483 33 -300 158 -760 279 -1031 172
-383 561 -868 1056 -1316 l90 -81 -30 -12 c-16 -6 -99 -45 -183 -86 -132 -65
-164 -85 -229 -147 -42 -40 -112 -119 -157 -175 -66 -86 -82 -101 -88 -85 -4
10 -35 162 -69 338 -33 176 -72 354 -86 395 -88 265 -254 424 -533 512 -60 18
-97 23 -190 23 -110 0 -119 -2 -181 -32 -124 -62 -186 -154 -280 -420 -30 -84
-47 -119 -55 -115 -7 4 -104 88 -216 187 -265 236 -293 258 -424 353 -404 288
-911 551 -1363 706 -578 199 -1208 259 -1661 159 -327 -72 -569 -224 -808
-508 -228 -271 -372 -612 -411 -977 -25 -228 -5 -581 45 -776 80 -317 285
-591 602 -803 290 -194 574 -279 829 -248 90 11 230 52 310 90 73 35 163 114
198 174 80 135 99 335 51 527 -26 102 -77 235 -97 254 -20 18 -114 42 -141 36
-22 -4 -68 -79 -96 -155 -73 -193 -171 -276 -336 -285 -163 -9 -276 36 -398
158 -164 163 -212 372 -153 675 45 237 137 409 314 585 162 161 314 253 553
331 385 126 759 76 1308 -176 228 -104 539 -287 706 -415 72 -56 354 -310 400
-361 l19 -22 -60 8 c-68 8 -362 68 -565 115 -121 28 -147 31 -255 27 -93 -3
-133 -9 -179 -27 -115 -44 -337 -210 -507 -380 -86 -85 -113 -119 -142 -180
-100 -205 -55 -375 155 -583 124 -122 277 -208 441 -247 105 -25 446 -44 1317
-75 174 -6 282 -13 353 -21 36 -5 47 -10 47 -23 0 -36 -449 -198 -1635 -592
-627 -208 -1241 -410 -1364 -448 -537 -170 -1175 -330 -2236 -561 -540 -118
-606 -130 -807 -150 -112 -12 -309 -34 -438 -51 -1128 -143 -1471 -179 -1860
-194 -74 -3 -151 -8 -171 -10 -53 -7 -809 -7 -909 0 -502 34 -831 91 -1475
255 -430 109 -505 133 -676 215 -85 41 -166 75 -180 75 -35 0 -47 -12 -123
-122 -145 -211 -354 -444 -576 -643 -150 -134 -151 -139 -50 -220 38 -31 76
-68 84 -83 16 -32 83 -249 161 -527 l56 -200 -28 -23 c-26 -22 -165 -112 -403
-262 -246 -155 -393 -228 -865 -425 -148 -62 -325 -138 -392 -169 -68 -31
-178 -81 -245 -112 -462 -210 -1092 -383 -1853 -509 -663 -110 -1005 -142
-1370 -131 -115 3 -221 8 -235 10 -14 2 -72 10 -130 16 -343 39 -1517 319
-1795 427 -105 42 -369 172 -480 237 -42 25 -112 73 -155 107 -127 98 -99 104
-445 -97 -164 -96 -299 -174 -301 -174 -14 0 -223 438 -341 714 -127 299 -202
554 -239 816 -17 121 -19 376 -3 519 53 491 266 953 644 1396 146 172 263 251
406 275 187 32 346 -46 426 -208 l38 -76 0 -130 c0 -72 -4 -160 -9 -197 -13
-95 18 -146 100 -168 85 -23 321 62 453 161 113 86 245 241 270 318 15 48 -2
298 -28 405 -28 115 -85 269 -120 323 -57 89 -116 135 -306 235 -208 111 -293
145 -461 186 -344 83 -604 66 -836 -56 -222 -117 -471 -354 -645 -613 -77
-116 -126 -197 -256 -430 -284 -510 -347 -674 -382 -1000 -9 -80 -24 -199 -34
-265 -15 -102 -19 -116 -28 -95 -70 166 -230 492 -262 533 -72 93 -211 188
-330 227 -146 46 -288 10 -399 -102 -118 -120 -150 -203 -197 -523 -14 -97
-14 -383 0 -487 19 -136 111 -505 170 -679 61 -180 167 -391 255 -508 68 -90
90 -123 90 -135 0 -11 -48 -6 -91 10 -169 61 -370 49 -534 -33 -98 -50 -267
-184 -454 -361 -72 -68 -74 -71 -68 -108 4 -27 17 -49 43 -73 36 -33 38 -33
110 -29 60 4 87 12 158 47 72 36 93 43 145 42 79 0 127 -14 231 -66 269 -136
446 -329 592 -650 125 -272 204 -609 263 -1120 9 -77 18 -150 20 -161 30 -185
30 -957 1 -1384 -17 -243 -23 -290 -35 -290 -18 0 -81 164 -126 324 -134 481
-316 878 -478 1044 -268 274 -695 139 -768 -243 -14 -72 -9 -432 7 -556 40
-306 126 -585 266 -866 34 -67 130 -234 213 -370 84 -137 151 -250 149 -251
-1 -2 -105 28 -231 66 -394 121 -439 131 -540 115 l-52 -8 50 -120 c74 -177
82 -221 74 -400 -6 -163 -28 -483 -49 -745 -16 -190 -18 -539 -5 -685 45 -490
203 -948 462 -1338 110 -166 276 -347 462 -502 l106 -89 -34 -35 c-89 -95
-160 -217 -202 -351 -36 -111 -46 -283 -21 -379 34 -132 63 -175 277 -408 111
-120 217 -234 236 -254 l35 -37 -68 -22 c-208 -67 -360 -204 -503 -454 -91
-161 -131 -294 -131 -441 1 -172 40 -315 141 -519 75 -149 106 -194 193 -282
135 -135 291 -220 626 -344 63 -24 118 -45 122 -49 4 -3 -20 -48 -52 -100
-113 -179 -184 -350 -216 -521 -22 -113 -22 -292 0 -398 10 -46 15 -86 12 -89
-3 -3 -32 -15 -63 -25 -163 -55 -306 -182 -450 -400 -164 -247 -237 -419 -287
-672 -27 -132 -106 -686 -141 -981 -55 -470 -123 -691 -341 -1110 l-57 -110
59 -8 c54 -8 383 -3 464 7 19 2 64 7 100 10 153 15 182 18 315 37 283 40 540
98 837 189 301 91 1029 339 1071 364 84 49 813 695 846 750 33 53 37 119 12
215 -12 46 -20 85 -19 86 4 4 152 -19 263 -40 209 -40 495 11 760 135 182 85
317 175 617 410 84 65 154 117 156 115 4 -4 -13 -274 -23 -380 -4 -35 -13
-152 -30 -385 -20 -281 -50 -577 -76 -750 -105 -710 -391 -1314 -899 -1900
-60 -69 -133 -146 -163 -172 -248 -214 -549 -313 -892 -294 -154 8 -243 27
-331 71 -261 128 -345 398 -220 706 29 72 147 258 195 310 64 67 120 62 169
-16 63 -100 76 -115 118 -136 40 -19 49 -20 94 -9 28 7 60 20 72 29 l21 18
-43 104 c-75 185 -128 278 -196 345 -71 71 -125 95 -261 119 -305 53 -581 -33
-815 -253 -323 -305 -392 -723 -188 -1138 188 -384 614 -679 1150 -798 419
-92 852 -46 1325 141 351 139 557 272 779 503 181 190 330 410 475 705 211
427 301 781 356 1410 34 389 61 641 130 1227 5 43 33 157 43 175 4 7 68 -62
157 -170 177 -214 320 -359 398 -406 268 -158 600 -147 770 27 77 80 159 255
192 414 17 77 19 262 5 322 -5 22 -12 96 -16 165 l-7 126 79 -71 c173 -155
237 -189 470 -254 172 -48 268 -55 369 -26 203 59 371 224 414 406 6 25 14 95
17 155 15 270 -85 538 -297 796 -30 37 -215 242 -411 455 -671 733 -926 1039
-894 1072 4 4 31 7 59 7 38 -1 145 -30 387 -108 184 -58 393 -122 463 -141
365 -100 1190 -247 1692 -301 524 -56 940 -42 1394 48 107 21 171 24 171 8 0
-4 -46 -29 -102 -57 -135 -65 -153 -77 -648 -429 -234 -167 -452 -330 -484
-362 -150 -148 -243 -326 -311 -593 -55 -218 -22 -296 200 -474 106 -85 223
-146 313 -165 140 -29 321 -7 499 62 430 167 793 457 1047 839 71 108 198 259
209 248 10 -10 48 -353 72 -645 3 -38 17 -198 30 -355 14 -157 30 -343 36
-415 11 -130 7 -693 -6 -785 -69 -483 -183 -841 -380 -1188 -189 -332 -386
-510 -647 -586 -94 -27 -295 -46 -489 -46 -333 0 -540 107 -731 375 -140 197
-193 390 -157 567 15 74 89 224 138 280 57 64 104 73 247 47 58 -10 64 -9 113
15 l51 26 -17 28 c-30 48 -57 73 -128 121 -152 102 -257 135 -420 135 -209 0
-413 -85 -586 -242 -111 -102 -113 -109 -105 -342 19 -544 74 -775 239 -995
150 -201 441 -426 732 -566 206 -99 413 -164 670 -209 379 -67 593 -23 1070
218 256 130 436 261 650 476 264 265 458 544 554 795 37 95 113 401 135 541
13 79 79 594 101 790 6 55 3 86 -64 535 -26 175 -38 276 -56 480 -2 28 -7 106
-10 175 -3 69 -7 168 -10 220 -3 52 -8 194 -11 314 l-7 219 101 -119 c223
-266 430 -416 1005 -725 144 -78 312 -170 372 -204 61 -34 218 -122 350 -195
598 -331 815 -480 1066 -732 312 -313 611 -771 708 -1083 49 -161 61 -242 57
-405 -6 -214 -37 -336 -141 -545 -79 -159 -174 -293 -283 -402 -67 -67 -100
-91 -175 -128 -101 -49 -299 -104 -472 -130 -114 -17 -308 -19 -375 -4 -76 17
-260 113 -333 174 -125 105 -249 296 -282 436 -42 180 8 411 107 494 40 33
107 72 139 80 46 11 83 -33 161 -194 42 -88 84 -161 106 -184 60 -63 141 -96
185 -76 31 14 47 48 58 126 5 34 35 134 68 221 68 183 74 215 55 291 -54 211
-197 349 -456 440 -138 48 -229 63 -373 64 -190 0 -367 -43 -547 -134 -210
-105 -291 -192 -372 -395 -147 -371 -133 -852 35 -1175 160 -308 443 -589 732
-728 327 -157 861 -224 1222 -151 268 53 457 141 815 376 402 263 686 523 829
758 97 158 179 400 220 649 6 37 17 97 23 135 16 87 16 346 -1 442 -41 241
-130 539 -247 828 -211 522 -351 752 -615 1007 -243 235 -491 393 -922 586
-520 233 -730 335 -932 452 -224 129 -301 183 -630 445 l-219 175 39 18 c273
125 361 178 464 281 56 55 132 156 144 191 2 6 98 -50 226 -132 385 -247 582
-321 909 -336 213 -10 252 -29 402 -201 355 -407 500 -503 940 -620 1179 -316
1942 -820 2661 -1759 70 -92 95 -115 144 -143 45 -24 68 -31 93 -28 86 12 83
71 -9 187 l-28 36 87 99 c163 185 166 189 295 514 219 551 322 902 358 1225
18 158 16 482 -4 647 -64 522 -241 1051 -582 1736 -103 206 -129 265 -119 273
17 14 16 14 206 -148 393 -335 733 -748 927 -1125 38 -73 140 -293 226 -488
275 -622 433 -928 630 -1225 270 -405 491 -599 802 -703 157 -53 249 -67 433
-66 193 1 298 20 507 89 225 75 362 154 479 277 87 90 143 182 233 380 159
351 204 504 204 698 1 99 -4 141 -21 203 -42 149 -121 276 -243 392 -193 183
-374 209 -741 107 -72 -19 -108 -35 -135 -59 l-38 -33 30 -26 c62 -52 82 -58
156 -44 242 46 416 -133 395 -405 -29 -355 -238 -545 -601 -546 -408 -1 -770
165 -949 435 -170 257 -300 685 -401 1326 -125 792 -239 1159 -490 1585 -297
504 -777 874 -1228 945 -43 7 -76 14 -74 16 5 5 1460 475 1462 472 1 -2 5 -94
9 -206 4 -112 9 -208 11 -215 2 -7 6 -41 10 -77 15 -158 70 -336 142 -459 46
-78 166 -203 248 -258 120 -81 255 -135 418 -170 114 -24 370 -24 487 0 118
25 268 78 336 118 77 46 165 128 205 192 18 28 53 76 77 105 41 49 46 52 61
37 10 -8 23 -45 30 -82 62 -344 256 -643 576 -885 148 -112 280 -188 810 -463
198 -103 434 -228 524 -277 897 -491 1499 -1006 1838 -1573 147 -246 262 -550
308 -812 21 -121 6 -153 -72 -153 -37 0 -42 -3 -48 -28 -10 -49 -10 -171 1
-182 15 -15 132 -21 185 -9 24 6 73 11 109 12 59 2 66 4 77 28 10 20 10 40 3
79 -6 29 -10 75 -10 102 0 57 23 98 283 507 251 396 376 627 488 907 202 504
273 908 334 1884 45 718 -53 1138 -516 2222 -109 254 -168 372 -222 442 -72
91 -261 298 -464 508 -109 112 -211 218 -227 236 l-29 31 199 203 c109 112
223 235 252 273 72 95 146 250 178 370 24 88 27 120 28 270 2 290 -20 372
-177 678 -130 255 -199 360 -306 468 -99 100 -177 153 -291 199 -44 18 -82 35
-84 39 -3 4 29 77 69 162 121 254 148 360 165 632 20 335 -26 649 -123 842
-93 185 -261 350 -478 469 -165 91 -334 118 -483 77 -43 -12 -91 -28 -108 -37
-16 -8 -32 -13 -35 -10 -3 3 -48 153 -100 333 -54 189 -107 352 -124 384 -58
108 -162 212 -326 326 l-72 50 157 41 c160 42 277 66 597 122 492 87 853 230
1250 495 409 273 637 534 743 850 78 233 78 435 0 590 -49 96 -105 152 -391
388 -124 102 -245 158 -367 171 -25 2 -48 5 -52 5 -26 3 16 53 214 252 380
384 555 586 726 843 182 273 264 497 293 804 14 147 4 215 -46 320 -45 95
-107 156 -304 300 -125 91 -167 116 -223 133 -96 29 -184 23 -311 -22 -52 -18
-98 -31 -102 -28 -3 4 23 62 58 130 54 103 92 207 230 624 182 550 249 773
272 902 19 109 19 248 0 338 -20 93 -103 258 -215 430 -143 217 -253 311 -435
372 -73 25 -93 27 -235 27 -149 0 -159 -1 -250 -32 -128 -44 -221 -101 -305
-186 -81 -82 -120 -150 -166 -293 -18 -57 -36 -103 -39 -103 -3 0 -97 136
-210 302 -321 472 -499 725 -675 959 -244 323 -325 450 -424 660 -85 180 -169
451 -206 664 -20 115 -21 290 -2 381 25 117 158 423 235 538 128 194 366 358
617 427 99 27 338 38 424 19 286 -60 483 -209 553 -416 10 -30 23 -99 29 -155
5 -55 19 -124 30 -152 27 -72 80 -140 123 -161 34 -16 39 -16 62 -2 13 9 24
21 24 27 0 19 59 135 110 214 124 196 144 463 52 721 -42 119 -94 204 -184
299 -193 204 -441 364 -791 509 -232 97 -308 117 -452 122 -94 3 -140 0 -213
-16z m469 -165 c141 -30 246 -80 484 -230 348 -219 417 -278 480 -410 53 -109
75 -210 75 -340 1 -121 -14 -194 -56 -276 l-25 -51 -35 57 c-188 313 -436 494
-775 566 -150 32 -399 33 -516 1 -280 -73 -476 -218 -655 -483 -103 -153 -259
-509 -279 -639 -15 -96 -6 -222 25 -375 81 -396 178 -650 364 -950 70 -112 63
-103 274 -385 464 -620 767 -1083 979 -1495 234 -456 379 -895 462 -1405 41
-245 42 -257 58 -475 10 -143 7 -512 -5 -585 -3 -14 -10 -59 -16 -100 -16 -99
-41 -203 -106 -444 -29 -110 -51 -202 -49 -204 2 -3 38 25 80 62 41 38 75 61
75 53 0 -16 -137 -700 -168 -842 -91 -407 -294 -840 -624 -1333 -118 -177
-1126 -1589 -1193 -1672 -60 -74 -165 -183 -171 -177 -5 4 426 1024 589 1393
63 142 195 430 295 639 323 681 566 1229 656 1479 58 160 86 266 136 526 l41
210 -19 44 c-19 41 -76 96 -100 96 -23 0 -41 -50 -100 -275 -132 -503 -205
-710 -429 -1225 -112 -258 -426 -934 -609 -1312 -282 -583 -333 -697 -506
-1128 -86 -213 -109 -260 -130 -260 -14 0 -7 422 9 540 25 183 152 652 243
895 42 112 143 344 165 380 41 65 368 690 483 923 232 468 402 825 527 1107
235 529 292 724 300 1030 5 162 -6 281 -40 451 -47 230 -111 385 -287 695 -58
101 -138 249 -179 329 -83 165 -129 218 -264 309 -92 62 -310 231 -371 288
-78 71 -418 465 -629 728 -383 477 -500 777 -607 1565 -20 149 -17 531 5 664
58 341 192 663 420 1006 304 457 641 759 1049 942 245 109 450 138 669 93z
m-5662 -3689 c286 -34 486 -88 786 -213 99 -41 218 -90 265 -110 104 -43 376
-182 485 -248 345 -209 645 -443 1014 -794 258 -244 401 -408 752 -866 239
-311 240 -312 363 -509 93 -149 106 -174 116 -237 11 -65 18 -78 106 -197 51
-70 94 -131 94 -137 0 -5 -8 -22 -18 -37 l-18 -28 -90 132 c-298 441 -586 784
-997 1188 -148 146 -441 434 -651 641 -209 206 -415 403 -456 436 -174 139
-367 268 -648 432 -137 81 -146 84 -216 89 -62 4 -74 2 -79 -13 -4 -9 -5 -21
-2 -25 7 -11 245 -168 378 -249 127 -77 312 -214 467 -346 171 -146 1358
-1337 1470 -1475 232 -286 542 -726 574 -816 27 -73 36 -83 81 -85 70 -2 72 8
-43 -279 l-106 -264 -14 34 c-24 56 -27 126 -8 154 22 34 21 36 -19 128 -35
79 -36 82 -20 120 8 21 15 52 15 68 0 38 -49 94 -110 125 -75 38 -113 89 -150
201 -18 54 -45 124 -61 155 -26 53 -78 109 -100 109 -23 0 -130 79 -201 148
-81 79 -130 140 -269 336 -132 186 -276 354 -498 579 -490 496 -778 728 -1154
926 -443 233 -1006 367 -1399 331 -298 -27 -554 -117 -751 -263 -354 -262
-560 -703 -516 -1106 13 -121 31 -188 76 -273 88 -168 300 -326 539 -401 213
-67 379 -36 560 104 70 54 79 58 88 42 6 -10 11 -56 11 -103 0 -75 -4 -93 -32
-153 -91 -192 -322 -304 -571 -276 -151 17 -334 83 -459 166 -123 81 -268 242
-410 453 -142 212 -194 392 -196 675 -2 223 17 383 69 575 109 403 369 749
758 1009 90 61 160 94 243 115 196 50 665 65 952 32z m7035 -626 c179 -29 313
-156 446 -420 73 -146 92 -211 96 -335 4 -145 -14 -231 -120 -550 -141 -422
-475 -1346 -518 -1430 -11 -21 -49 -77 -86 -122 -51 -65 -68 -80 -78 -72 -8 6
-12 14 -9 18 11 19 96 470 109 581 48 411 65 669 83 1235 9 291 8 297 -12 329
-16 24 -132 89 -145 81 -4 -2 -8 -53 -9 -112 -1 -59 -4 -137 -6 -173 -2 -36
-9 -195 -15 -355 -5 -159 -12 -337 -15 -395 -2 -58 -7 -195 -10 -305 -7 -224
-9 -245 -30 -245 -25 0 -38 40 -62 195 -45 292 -145 633 -284 970 -122 297
-113 265 -113 415 -1 158 13 220 77 350 92 188 265 304 502 339 84 12 131 12
199 1z m-3577 -239 c76 -36 141 -95 176 -160 39 -71 90 -218 130 -372 43 -163
53 -226 67 -394 21 -247 55 -342 223 -625 44 -74 138 -252 210 -394 l130 -260
-23 -18 c-15 -12 -35 -18 -54 -16 -27 3 -35 11 -66 73 -19 39 -89 196 -155
350 -137 320 -274 602 -365 755 -83 139 -276 426 -317 471 -34 38 -88 65 -180
92 -59 18 -65 12 -27 -24 79 -73 227 -288 322 -469 80 -151 257 -566 360 -840
3 -8 -57 66 -133 165 -209 272 -513 652 -654 819 -170 201 -180 214 -207 271
-49 105 -38 232 32 365 60 114 178 211 290 239 65 17 171 4 241 -28z m1484
-812 c60 -30 129 -98 224 -219 283 -363 433 -668 508 -1035 19 -96 22 -139 21
-335 -1 -204 -3 -237 -28 -355 -15 -71 -49 -197 -77 -280 -55 -165 -170 -415
-163 -355 7 58 33 437 40 570 15 301 -61 650 -202 931 -97 195 -268 445 -323
474 -31 16 -106 21 -114 8 -3 -5 47 -89 110 -188 272 -428 357 -711 352 -1165
-4 -288 -45 -538 -177 -1079 -70 -285 -79 -316 -106 -342 -17 -16 -33 -29 -38
-29 -21 0 -2 129 61 409 144 638 164 819 112 1018 -55 210 -185 367 -397 481
-44 24 -105 63 -136 87 -142 112 -352 482 -405 716 -13 60 -14 85 -5 137 21
124 106 267 236 398 158 159 370 223 507 153z m-3596 -65 c209 -32 501 -112
606 -164 106 -54 248 -177 402 -348 91 -102 259 -313 253 -319 -1 -2 -36 9
-77 23 -189 65 -498 131 -724 154 -143 15 -418 19 -575 9 -187 -12 -362 -36
-372 -51 -16 -26 -2 -42 67 -72 79 -35 42 -33 605 -25 296 4 348 1 515 -27
256 -43 487 -131 682 -260 88 -58 138 -118 112 -135 -36 -23 -125 -49 -168
-49 -27 0 -77 9 -112 19 -92 28 -113 29 -429 37 -157 3 -288 8 -291 9 -3 2
-194 7 -425 10 -230 4 -463 11 -517 16 -246 23 -433 142 -539 343 -41 77 -43
85 -43 166 0 74 4 93 29 145 52 106 363 394 505 468 139 73 268 86 496 51z
m-18930 -1273 c276 -46 493 -193 596 -406 61 -127 121 -371 123 -500 1 -89 -2
-106 -26 -158 -46 -98 -161 -202 -330 -297 l-58 -32 -1 89 c-1 48 -1 91 0 96
1 4 1 50 2 103 1 123 -18 179 -88 254 -58 64 -128 104 -253 148 -161 56 -293
71 -428 48 -221 -38 -366 -141 -521 -371 -41 -60 -118 -168 -171 -240 -239
-321 -318 -514 -416 -1020 -65 -338 -58 -636 21 -909 30 -104 60 -182 190
-491 114 -271 377 -927 373 -929 -2 -1 -23 -8 -48 -16 -63 -21 -90 -64 -90
-144 0 -34 11 -180 24 -326 14 -146 27 -301 31 -345 3 -44 10 -127 16 -185 5
-58 11 -132 14 -165 18 -227 67 -733 91 -940 18 -159 38 -291 76 -500 26 -147
206 -998 339 -1608 38 -175 69 -328 69 -341 0 -13 -6 -29 -13 -35 -11 -9 -16
-2 -26 32 -7 23 -84 222 -171 442 -173 437 -257 663 -289 776 -27 97 -58 257
-125 635 -116 652 -138 798 -145 936 -8 171 -13 178 -120 186 -60 4 -71 2 -71
-11 0 -29 40 -399 61 -557 154 -1198 494 -2225 1014 -3067 47 -76 52 -90 40
-102 -49 -49 -351 363 -551 754 -99 192 -138 288 -237 590 -215 652 -249 806
-347 1582 -28 219 -64 490 -80 603 -34 240 -67 518 -78 645 -8 98 -4 150 24
325 26 170 27 956 1 1175 -39 330 -85 578 -167 904 -132 530 -170 750 -170
1001 -1 183 18 332 65 515 60 236 128 391 315 725 230 411 338 568 509 743
266 272 426 368 671 400 52 7 288 -1 355 -12z m22263 -263 c102 -38 212 -150
252 -256 46 -121 65 -396 40 -572 -23 -162 -73 -356 -273 -1060 -69 -239 -123
-437 -121 -439 2 -2 39 19 83 47 47 30 83 47 87 41 3 -5 -28 -69 -69 -142
-131 -233 -122 -211 -109 -255 7 -22 12 -48 12 -59 0 -21 -91 -221 -228 -503
l-80 -165 -1 290 c-1 245 13 547 34 760 2 28 7 82 10 120 3 39 18 228 35 420
41 495 52 704 48 912 -3 177 -4 182 -28 209 -33 36 -85 57 -121 49 l-29 -7 0
-286 c0 -309 -7 -436 -45 -777 -35 -319 -45 -494 -70 -1220 -3 -88 -8 -178
-11 -200 -6 -47 -24 -108 -30 -102 -2 2 -24 132 -49 288 -25 156 -58 367 -74
469 -32 200 -56 374 -66 485 -3 39 -19 169 -35 290 -57 426 -63 599 -29 795
51 296 153 515 318 681 195 195 367 254 549 187z m-1705 6 c56 -19 138 -90
173 -151 15 -24 25 -46 22 -48 -6 -6 -1687 -706 -2163 -900 -1135 -464 -1256
-503 -2665 -855 -1147 -287 -1299 -318 -1810 -370 -162 -17 -326 -34 -365 -40
-38 -5 -92 -12 -120 -15 -27 -2 -122 -14 -210 -24 -266 -33 -876 -96 -1320
-136 -87 -7 -272 -17 -515 -25 -228 -8 -1090 -5 -1140 4 -14 2 -81 7 -150 10
-131 7 -161 9 -350 26 -63 6 -142 13 -175 16 -85 8 -405 43 -500 55 -428 54
-564 79 -1098 201 -212 49 -316 77 -313 85 3 6 131 161 286 345 l282 334 152
-76 c241 -122 481 -195 1011 -309 595 -128 896 -163 1405 -165 422 -1 1073 21
1455 49 39 3 135 10 215 15 841 61 2227 269 2925 440 187 46 1358 379 1800
511 1033 311 2424 781 2748 928 95 44 192 86 217 94 59 21 145 21 203 1z
m4622 -139 c77 -20 167 -70 281 -156 60 -45 96 -80 105 -101 21 -51 18 -339
-5 -447 -60 -280 -181 -503 -432 -796 -203 -235 -960 -1059 -992 -1079 -8 -4
-18 -4 -24 2 -22 22 82 199 293 502 504 723 535 773 629 995 51 121 57 180 21
219 -21 23 -109 71 -116 64 -2 -2 -19 -51 -38 -110 -62 -184 -142 -325 -352
-618 -156 -219 -198 -281 -415 -632 -91 -147 -166 -266 -167 -264 -1 1 25 85
58 186 160 498 249 957 275 1435 8 145 19 177 72 204 50 26 70 54 119 166 52
122 100 191 190 275 151 141 333 197 498 155z m-4296 -382 c146 -295 215 -515
262 -838 44 -312 88 -605 109 -740 11 -66 38 -239 60 -385 22 -146 47 -308 55
-360 21 -134 73 -530 90 -690 69 -628 77 -1215 25 -1828 -21 -252 -26 -313
-35 -432 -3 -41 -8 -100 -10 -130 -3 -30 -12 -147 -20 -260 -8 -113 -17 -232
-20 -265 -38 -449 -49 -568 -66 -735 -56 -549 -177 -1067 -426 -1815 -106
-318 -125 -367 -212 -535 -155 -303 -202 -398 -384 -770 -194 -399 -238 -477
-413 -740 -264 -398 -520 -673 -807 -868 -107 -73 -486 -289 -672 -384 -165
-84 -294 -140 -575 -250 -449 -176 -744 -266 -987 -303 -59 -9 -121 -18 -138
-21 -82 -14 -515 -10 -745 7 -614 45 -760 70 -1156 199 -1213 398 -1862 746
-2564 1376 -302 272 -471 464 -945 1079 -337 436 -497 674 -832 1235 -297 498
-405 694 -604 1090 -189 378 -272 567 -502 1135 -58 143 -153 373 -212 510
-216 507 -309 753 -530 1403 -119 351 -228 691 -245 768 -9 38 -7 50 10 83 32
63 41 123 29 181 -12 54 -33 81 -137 168 -35 29 -61 63 -81 105 -19 39 -83
264 -176 616 -80 304 -144 555 -143 556 8 7 558 -91 733 -131 110 -25 250 -56
310 -69 184 -39 752 -105 1345 -156 195 -17 336 -22 600 -23 321 -1 783 9 875
19 22 2 114 7 205 10 91 4 185 8 210 10 25 2 101 6 170 10 126 6 356 21 485
31 84 6 253 28 390 49 301 47 406 60 535 69 41 3 113 8 160 11 87 6 359 32
415 40 16 2 84 11 150 20 393 52 1111 194 1490 296 286 77 1232 348 1441 413
542 168 1110 384 1839 699 553 239 1549 653 1577 656 5 1 34 -52 67 -116z
m-23621 -996 c116 -70 210 -195 287 -380 23 -56 77 -203 120 -327 96 -279 125
-350 224 -548 90 -180 119 -257 160 -420 73 -288 111 -486 151 -788 22 -163
23 -240 5 -238 -23 3 -183 375 -479 1114 -206 513 -214 527 -285 517 -20 -2
-50 -11 -68 -18 l-32 -14 125 -300 c171 -409 356 -869 447 -1111 101 -268 238
-674 231 -685 -15 -24 -40 4 -147 164 -113 169 -150 214 -372 455 -79 86 -121
141 -149 196 -22 44 -74 117 -123 174 -242 280 -455 775 -513 1191 -38 274 -5
666 69 826 28 60 137 205 169 225 30 19 123 2 180 -33z m27446 -1302 c194 -37
358 -189 433 -401 25 -72 28 -92 28 -214 -1 -130 -2 -139 -38 -245 -72 -210
-170 -358 -354 -535 -115 -112 -321 -272 -469 -366 -258 -163 -591 -286 -995
-368 -166 -34 -535 -96 -571 -96 -43 0 -6 38 170 177 353 281 464 357 817 562
116 68 265 154 331 193 96 56 126 78 143 108 l21 38 -42 31 c-63 47 -78 48
-181 10 -221 -82 -630 -351 -1077 -708 -250 -200 -621 -511 -626 -526 -10 -26
-75 -68 -86 -57 -8 8 9 34 54 89 73 88 135 171 474 638 324 445 427 592 649
919 113 166 213 303 249 338 94 95 210 154 383 198 29 7 65 30 110 71 154 137
355 187 577 144z m-16718 -718 c23 -70 56 -163 73 -206 17 -44 31 -91 31 -103
0 -55 -33 -81 -361 -287 -652 -411 -910 -555 -1219 -679 -514 -207 -1262 -395
-1915 -481 -288 -38 -892 -101 -1205 -125 -203 -16 -782 -14 -930 3 -52 6
-120 13 -150 16 -30 3 -100 12 -155 20 -55 8 -262 35 -460 60 -633 80 -915
127 -1155 191 -431 115 -810 279 -1182 511 -134 84 -156 124 -95 179 53 49
305 211 442 283 75 40 84 43 145 39 60 -4 74 -10 184 -76 302 -183 665 -326
1086 -428 896 -216 1054 -251 1245 -278 260 -36 341 -41 660 -41 286 0 365 7
660 55 99 16 241 36 315 45 375 42 975 174 1440 317 402 123 1073 386 1610
630 254 116 327 157 624 345 148 95 243 145 260 140 5 -2 29 -60 52 -130z
m-10935 -377 c188 -51 396 -215 583 -463 284 -375 456 -795 556 -1357 27 -149
46 -306 75 -610 114 -1208 285 -1901 648 -2625 232 -465 473 -778 789 -1028
75 -60 99 -85 107 -111 27 -101 103 -428 99 -431 -5 -5 -549 179 -576 194 -13
7 -10 12 16 25 77 40 62 80 -55 151 -240 145 -420 333 -589 617 -82 138 -340
654 -399 798 -47 114 -96 270 -170 535 -26 94 -52 179 -57 190 -31 61 -77 82
-154 70 l-45 -6 6 -42 c9 -65 229 -732 302 -917 79 -201 266 -584 359 -738
169 -277 350 -470 555 -593 65 -39 112 -79 93 -79 -33 0 -267 76 -318 103 -42
22 -108 77 -211 177 -173 167 -313 292 -579 515 -289 243 -319 305 -347 713
-12 176 -6 574 11 737 95 905 101 1502 19 2015 -24 151 -142 744 -170 852 -45
178 -111 331 -191 444 -67 95 -195 239 -278 311 -198 172 -369 251 -619 289
-52 8 -96 16 -98 18 -8 7 137 144 188 178 137 90 284 112 450 68z m11213 -497
c319 -964 668 -1865 1000 -2584 47 -103 86 -189 86 -192 0 -4 -141 -6 -312 -4
-336 2 -377 -2 -599 -58 -432 -109 -818 -344 -1096 -668 -47 -56 -134 -151
-192 -210 l-106 -108 46 -43 c39 -35 65 -48 165 -79 504 -155 938 -204 1360
-152 512 63 696 111 921 241 52 30 125 70 163 89 l67 34 233 -407 c624 -1088
767 -1296 1535 -2218 312 -375 371 -452 387 -507 36 -120 -9 -429 -111 -769
-148 -493 -241 -710 -473 -1108 -397 -683 -426 -728 -544 -871 -100 -120 -235
-255 -452 -454 -96 -87 -206 -197 -245 -244 -40 -47 -90 -104 -113 -126 -55
-54 -229 -189 -334 -260 -203 -137 -1259 -623 -1590 -732 -379 -125 -771 -174
-1365 -173 -594 1 -1047 51 -1725 192 -695 144 -1210 317 -1730 584 -432 222
-738 434 -994 690 -317 316 -790 1014 -1256 1854 -246 443 -476 986 -710 1675
-109 324 -140 439 -220 825 -73 351 -85 401 -150 607 -63 202 -98 353 -271
1173 -11 52 -69 316 -129 585 -171 769 -204 948 -240 1280 -6 55 -12 118 -15
140 -2 22 -9 96 -15 165 -6 69 -20 208 -30 310 -11 102 -35 340 -55 530 -19
190 -46 433 -60 539 -36 283 -59 276 267 90 507 -289 848 -435 1263 -538 154
-38 258 -56 775 -135 500 -77 809 -117 1125 -147 196 -18 271 -20 505 -16 151
3 347 13 435 21 217 21 442 39 645 51 353 22 530 41 809 91 683 121 1220 262
1651 434 564 225 916 407 1220 633 95 71 356 235 375 236 6 1 50 -119 99 -266z
m14356 -1076 c147 -71 260 -216 310 -398 38 -142 52 -243 59 -454 7 -226 11
-243 70 -314 27 -33 28 -33 67 -21 21 7 62 29 89 50 128 95 232 133 365 134
170 1 307 -59 436 -188 131 -132 195 -272 229 -511 35 -235 17 -574 -41 -799
-20 -76 -79 -193 -164 -326 -75 -116 -91 -159 -78 -207 13 -49 55 -76 189
-122 184 -64 244 -96 320 -172 78 -77 148 -192 259 -423 140 -290 176 -400
179 -546 6 -268 -143 -598 -380 -844 -141 -147 -271 -236 -479 -329 -83 -38
-130 -70 -130 -91 0 -17 79 -126 140 -193 107 -118 151 -240 151 -423 -1 -238
-102 -732 -183 -894 -88 -177 -287 -366 -433 -413 -71 -23 -432 -28 -570 -8
-239 35 -436 117 -585 245 -62 54 -90 70 -119 70 -45 0 -59 -41 -136 -411 -35
-167 -144 -324 -294 -423 -137 -91 -360 -167 -531 -181 -299 -25 -660 123
-749 307 -45 94 -81 118 -204 137 -54 8 -61 6 -87 -16 -16 -13 -74 -91 -130
-173 -126 -185 -186 -243 -323 -310 -144 -70 -231 -91 -405 -97 -158 -6 -253
5 -360 41 -154 53 -237 115 -325 245 -133 198 -174 361 -185 736 l-7 234 -42
43 -42 43 227 127 227 127 101 -307 c130 -397 155 -445 303 -585 176 -165 315
-189 584 -100 258 85 433 244 573 520 l58 114 100 -199 c56 -110 107 -207 115
-216 20 -24 237 -151 347 -203 127 -60 224 -83 348 -83 190 0 325 57 461 194
143 144 222 303 247 498 14 116 3 253 -37 425 -26 116 -31 178 -16 187 15 10
236 -228 311 -335 82 -115 148 -172 265 -229 210 -102 474 -133 725 -84 251
49 438 239 554 562 31 88 56 222 56 304 0 130 -57 302 -140 423 -49 72 -189
213 -403 408 -178 163 -197 182 -176 188 13 4 148 5 299 4 190 -1 294 2 335
10 287 60 571 373 629 692 22 120 15 385 -12 488 -48 180 -162 355 -362 556
-199 201 -368 280 -600 284 -63 1 -119 3 -124 3 -5 1 58 71 140 155 181 184
241 261 304 392 79 162 95 237 95 450 0 203 -10 258 -72 383 -113 230 -426
410 -673 388 -151 -13 -225 -53 -499 -268 -82 -65 -152 -118 -155 -118 -3 0 6
30 21 68 133 349 206 593 244 817 59 339 -39 553 -303 663 -149 62 -290 76
-422 42 -109 -28 -151 -54 -347 -211 -95 -77 -174 -138 -176 -136 -2 2 0 50 3
106 l7 102 51 37 c28 20 97 81 154 135 88 83 119 105 205 147 56 27 149 63
207 80 138 39 254 39 340 -3z m-132 -392 c84 -20 175 -68 206 -108 59 -77 71
-199 42 -410 -59 -415 -186 -735 -486 -1222 -116 -190 -163 -255 -182 -255
-27 0 -8 46 91 212 141 239 141 239 141 290 0 63 -9 73 -52 55 -24 -10 -62
-48 -118 -118 -111 -137 -252 -301 -256 -296 -7 7 44 141 131 347 175 413 180
428 155 519 -9 33 -15 41 -34 41 -20 0 -35 -25 -114 -187 -285 -589 -282 -583
-297 -576 -29 11 -6 109 122 512 115 361 125 399 119 447 -9 75 -14 85 -45 81
-24 -3 -36 -28 -171 -350 -80 -191 -148 -347 -151 -347 -18 0 -15 64 11 299
15 141 31 290 35 331 20 239 47 284 280 489 269 236 391 289 573 246z m-25845
-699 c47 -19 120 -106 215 -256 212 -334 284 -512 477 -1185 l100 -350 58 -3
57 -3 0 -359 c0 -215 -4 -360 -9 -360 -5 0 -16 12 -24 28 -7 15 -70 137 -140
272 -142 276 -174 346 -403 863 -89 203 -170 377 -180 388 -20 22 -59 24 -125
6 l-46 -12 274 -620 c150 -341 297 -674 327 -740 60 -133 58 -142 -21 -101
-59 30 -119 92 -210 216 -361 491 -561 936 -628 1393 -20 142 -21 396 0 510
25 141 88 259 163 304 43 26 70 28 115 9z m26939 -542 c94 -33 167 -105 224
-219 45 -91 66 -194 65 -326 0 -345 -142 -603 -472 -861 -143 -112 -492 -348
-513 -348 -29 0 -54 18 -40 28 67 43 303 219 304 225 0 12 -66 37 -100 37 -17
0 -71 -16 -120 -35 -49 -19 -105 -35 -124 -35 -35 0 -62 21 -53 43 2 7 114 88
248 181 340 236 347 242 359 285 16 57 15 59 -37 53 -38 -4 -99 -34 -288 -142
-309 -177 -294 -170 -360 -170 -54 0 -56 1 -49 23 21 70 53 108 309 366 177
179 275 285 275 298 0 25 -34 70 -60 78 -16 5 -85 -53 -335 -280 -188 -170
-322 -285 -330 -281 -19 7 -3 69 29 115 14 20 89 116 166 213 77 97 144 188
150 203 13 35 0 58 -45 79 l-36 17 -92 -98 c-51 -54 -151 -160 -221 -235 -113
-120 -131 -136 -148 -127 -12 6 -17 17 -14 26 3 8 9 25 12 38 3 13 119 130
257 261 544 517 582 547 723 580 152 35 234 37 316 8z m-14327 -229 c55 -9
113 -24 130 -34 42 -24 74 -78 125 -206 23 -60 71 -172 106 -247 34 -76 59
-140 56 -142 -4 -2 -34 -11 -67 -21 -33 -9 -100 -42 -150 -73 -225 -139 -488
-227 -791 -264 -112 -13 -536 -17 -664 -5 -71 6 -422 46 -550 62 -32 4 -99 23
-109 31 -9 8 153 195 245 284 168 163 325 272 554 386 270 134 502 203 810
242 89 11 186 7 305 -13z m12338 -386 c400 -231 427 -249 427 -283 0 -35 38
-86 75 -102 19 -8 57 -14 86 -14 l51 0 -4 -40 c-3 -35 -1 -39 17 -34 15 4 40
-15 101 -75 81 -79 83 -81 214 -343 l132 -263 -6 -77 c-5 -75 -4 -80 26 -124
53 -79 69 -151 70 -304 0 -95 7 -177 23 -275 20 -117 23 -165 19 -290 -9 -319
-29 -422 -135 -687 -72 -180 -112 -250 -188 -327 -79 -80 -153 -130 -421 -281
-439 -249 -594 -303 -905 -316 -252 -10 -553 17 -804 72 -95 22 -388 109 -399
119 -5 5 153 239 189 280 63 72 103 78 359 56 145 -12 406 -6 530 13 131 21
345 76 465 121 267 100 463 239 605 427 97 128 138 222 160 368 7 41 20 109
31 152 24 97 26 295 3 429 -41 248 -142 465 -331 711 -88 115 -156 180 -409
395 l-191 162 42 188 c24 103 53 232 65 286 12 53 24 97 27 97 2 0 37 -19 76
-41z m-177 -753 c134 -45 158 -64 335 -266 330 -376 441 -678 400 -1083 -35
-333 -138 -546 -342 -703 -60 -46 -195 -124 -216 -124 -7 0 -22 18 -33 40
l-21 41 -27 -20 c-44 -31 -80 -74 -96 -113 -15 -35 -21 -38 -124 -72 -232 -75
-433 -100 -747 -94 -118 2 -216 6 -219 9 -3 3 62 153 145 335 83 181 160 349
171 374 58 129 177 358 280 540 179 317 223 432 308 810 49 216 89 350 105
350 6 0 43 -11 81 -24z m-24826 -462 c376 -104 521 -157 742 -271 129 -66 168
-98 254 -208 26 -34 36 -39 72 -40 36 -1 49 -8 90 -46 73 -71 157 -137 303
-239 214 -150 289 -209 371 -291 68 -68 177 -214 166 -224 -6 -6 -223 -73
-258 -80 -63 -12 -194 -82 -252 -135 -106 -94 -173 -221 -269 -503 -105 -312
-125 -488 -75 -680 31 -121 102 -270 190 -401 64 -95 74 -126 42 -126 -23 0
-185 164 -240 242 -26 37 -70 107 -98 155 -51 89 -218 434 -218 451 0 5 30 13
66 17 l67 7 -7 96 c-4 54 -9 196 -11 317 -4 235 4 323 60 630 14 77 25 145 25
151 0 16 -73 46 -100 42 -56 -8 -73 -73 -139 -538 -34 -238 -49 -362 -51 -432
0 -10 -8 -18 -17 -18 -20 0 -84 156 -210 515 -158 450 -199 560 -218 590 -17
25 -167 135 -185 135 -3 0 -3 -37 -1 -81 3 -75 15 -114 133 -448 231 -651 248
-701 236 -701 -15 0 -124 62 -238 135 -183 117 -289 164 -402 179 -45 5 -49 4
-63 -24 l-15 -29 197 -117 c245 -145 366 -217 511 -307 l113 -69 44 -92 c23
-50 77 -163 120 -251 42 -88 77 -164 78 -169 3 -15 -111 -7 -198 14 -44 10
-136 42 -205 70 -242 100 -353 134 -459 142 -29 3 -39 10 -61 48 -70 119 -110
265 -165 599 -73 445 -70 709 17 1306 27 186 29 227 24 355 -3 89 -15 190 -29
261 -13 64 -21 121 -19 127 4 14 -5 16 282 -64z m27252 65 c116 -24 221 -102
356 -264 179 -215 255 -406 255 -640 -1 -388 -197 -687 -528 -802 -79 -27 -83
-28 -325 -28 -499 0 -591 7 -623 46 -21 26 -20 37 6 184 8 44 18 105 22 136
l6 57 52 6 c29 3 201 24 382 46 182 22 354 43 383 46 45 5 52 9 52 28 0 18
-10 25 -63 39 -163 43 -316 43 -657 -2 l-135 -17 -7 50 c-3 28 -6 72 -7 98
l-1 47 43 6 c23 3 204 30 402 58 l360 53 0 24 c0 39 -67 52 -280 56 -166 2
-296 -7 -472 -35 -60 -9 -63 -6 -63 69 0 65 13 95 47 108 15 6 98 25 183 42
236 46 456 105 495 131 25 17 35 32 35 50 0 24 -5 27 -46 33 -108 14 -196 1
-602 -90 -67 -15 -124 -25 -126 -23 -3 2 -16 50 -31 107 -28 108 -27 145 4
179 22 23 323 133 460 169 168 43 319 55 423 33z m-24732 -1558 c347 -91 785
-221 809 -239 14 -10 34 -39 43 -63 23 -60 78 -243 74 -246 -2 -2 -72 30 -157
71 -91 45 -192 85 -247 100 -245 65 -469 73 -612 21 -148 -54 -263 -152 -376
-321 -83 -125 -87 -140 -80 -339 3 -93 8 -186 11 -205 21 -137 30 -185 52
-260 28 -97 72 -202 114 -271 16 -26 133 -177 259 -335 126 -158 228 -289 226
-291 -10 -10 -271 53 -359 86 -145 55 -240 74 -382 74 -137 1 -244 -17 -386
-64 -189 -63 -402 -168 -466 -232 -141 -136 -80 -395 143 -606 129 -123 312
-231 629 -371 77 -34 144 -65 150 -68 5 -3 -105 -34 -245 -69 -286 -70 -374
-106 -478 -192 -125 -104 -225 -264 -279 -446 -23 -80 -26 -108 -27 -245 -1
-127 2 -165 18 -213 39 -118 130 -212 252 -261 127 -51 386 -85 709 -92 121
-3 220 -6 221 -7 1 -1 -78 -88 -175 -193 -98 -105 -200 -225 -228 -266 -137
-206 -162 -463 -62 -661 89 -176 233 -294 419 -342 95 -25 259 -27 435 -5 178
23 221 32 340 75 133 49 469 181 505 200 18 9 34 15 36 12 2 -2 -59 -80 -136
-173 -222 -268 -323 -418 -379 -563 -62 -160 -78 -335 -42 -450 56 -181 250
-341 491 -403 71 -19 111 -22 240 -22 196 1 298 25 475 114 157 78 281 169
428 310 125 120 165 166 421 483 88 109 163 194 167 190 13 -13 19 -362 11
-553 -10 -229 -12 -233 -186 -405 -319 -316 -661 -533 -971 -617 -167 -45
-388 -31 -585 37 -257 90 -616 311 -734 453 -56 68 -135 187 -159 241 -32 70
-27 193 12 346 17 66 31 139 31 163 0 36 -4 44 -24 52 -14 5 -184 10 -378 11
-394 1 -452 7 -663 66 -153 42 -187 58 -237 110 -76 79 -104 197 -95 408 6
153 28 247 86 371 48 103 113 196 197 284 76 80 87 101 74 134 -12 32 -26 39
-163 81 -185 56 -456 178 -600 271 -189 122 -300 320 -372 665 -54 255 25 485
249 725 139 150 278 222 449 232 48 2 87 8 87 11 0 21 -65 104 -110 142 -443
371 -562 530 -561 758 0 290 147 527 403 653 186 90 322 119 668 138 97 5 187
16 218 25 l53 16 -78 112 c-42 62 -105 150 -140 197 -222 302 -276 643 -157
1005 34 101 111 267 158 338 53 80 158 181 243 234 212 132 423 153 723 74z
m23944 -357 c112 -44 229 -107 321 -172 232 -163 457 -458 505 -660 52 -223
-64 -555 -256 -731 -79 -72 -218 -144 -319 -166 -100 -21 -255 -19 -347 4
-183 47 -292 126 -460 334 -68 84 -221 268 -341 410 -120 143 -217 260 -215
262 2 1 35 19 73 38 120 61 170 65 236 23 19 -13 174 -156 345 -318 345 -329
381 -362 407 -371 55 -20 -34 119 -207 323 -109 128 -374 394 -438 440 -27 18
-48 36 -48 39 1 12 186 128 223 140 71 24 131 -5 271 -127 63 -55 233 -162
453 -286 76 -43 137 -58 156 -40 4 4 -35 30 -86 59 -110 64 -253 168 -362 266
-143 129 -288 269 -284 274 3 2 21 11 40 18 34 14 37 13 334 -120 165 -73 305
-136 312 -139 24 -11 -16 90 -46 116 -34 29 -393 219 -463 245 -27 10 -48 21
-48 26 0 13 49 121 61 136 20 23 88 14 183 -23z m-23514 -104 c133 -32 229
-84 380 -207 35 -29 61 -43 81 -43 40 0 89 -22 117 -53 13 -13 54 -107 91
-208 38 -101 134 -348 214 -549 80 -201 144 -367 142 -368 -2 -2 -31 11 -65
29 -84 45 -184 140 -303 289 -96 120 -253 290 -269 290 -4 0 6 -38 22 -84 138
-391 359 -608 709 -696 l43 -11 -183 -99 -184 -100 -300 305 c-275 280 -302
304 -316 290 -15 -15 -7 -32 95 -201 61 -101 137 -215 169 -254 67 -82 168
-160 250 -193 l58 -23 -62 -77 c-71 -88 -61 -86 -179 -29 -95 46 -220 167
-345 337 -84 113 -262 305 -284 305 -13 0 130 -319 187 -415 57 -96 180 -228
256 -274 30 -18 92 -46 137 -61 44 -16 82 -30 84 -32 2 -2 -25 -34 -59 -73
l-63 -69 -244 195 c-134 108 -302 247 -374 310 -315 277 -488 542 -567 869
-28 118 -36 381 -12 460 34 118 113 227 228 314 180 137 343 174 546 126z
m24918 -369 c337 -320 521 -526 584 -652 20 -41 62 -147 93 -237 31 -90 101
-269 156 -398 54 -129 120 -292 145 -362 93 -257 186 -683 214 -982 6 -63 13
-137 15 -165 10 -90 6 -544 -5 -673 -62 -713 -246 -1381 -550 -1988 -92 -184
-415 -744 -430 -744 -3 0 -32 71 -64 158 -171 453 -309 676 -654 1056 -397
435 -725 682 -1497 1123 -218 125 -220 126 -585 313 -555 285 -719 386 -890
547 -107 100 -189 207 -248 321 -70 133 -120 302 -91 302 7 0 101 -29 208 -64
229 -76 315 -95 461 -103 178 -10 372 24 525 92 181 81 372 251 444 395 40 82
83 235 96 343 4 28 12 50 21 54 21 8 157 -81 206 -136 91 -101 137 -229 138
-379 0 -75 -29 -378 -56 -582 -8 -63 -26 -200 -39 -304 -26 -199 -30 -266 -17
-266 12 0 87 146 116 228 32 91 65 223 105 417 43 215 54 321 47 460 -6 124
-18 185 -56 300 -19 57 -20 69 -9 81 12 11 56 -11 287 -149 l273 -162 -6 -65
c-4 -44 1 -113 15 -210 14 -98 22 -202 23 -325 2 -158 -7 -398 -17 -451 -2
-11 -7 -50 -10 -89 -4 -38 -9 -86 -11 -105 -22 -169 -45 -382 -45 -415 l0 -40
26 38 c86 127 130 285 169 602 4 28 9 239 12 470 3 231 7 422 9 424 8 9 128
-54 188 -98 255 -185 557 -614 676 -957 l18 -50 -95 -205 c-150 -323 -242
-549 -224 -549 5 0 35 20 68 44 77 56 141 143 238 321 43 80 80 144 81 142 6
-6 74 -352 98 -497 25 -149 68 -480 80 -605 11 -114 26 -300 28 -340 3 -75 27
-91 88 -60 18 9 34 30 46 60 22 59 15 239 -21 545 -48 397 -95 689 -156 972
-7 32 -11 59 -8 62 2 2 69 9 149 15 80 7 165 14 190 16 25 2 115 9 200 15 216
15 220 16 220 45 0 21 -8 27 -57 41 -50 14 -96 16 -397 9 l-341 -7 -28 22
c-16 13 -52 70 -83 133 -31 60 -109 206 -175 324 -65 118 -119 217 -119 222 0
4 222 63 493 131 270 68 507 128 526 133 31 8 33 11 27 40 -9 46 -33 67 -77
67 -21 0 -249 -52 -506 -116 -265 -66 -498 -118 -538 -121 l-70 -5 -90 73
c-50 41 -176 146 -279 234 l-189 160 54 8 c142 21 308 64 473 122 99 35 258
90 351 123 94 33 204 68 247 77 70 17 77 20 80 46 4 25 0 29 -36 43 -23 9 -55
18 -72 22 -50 10 -337 -65 -744 -193 -275 -86 -446 -133 -489 -133 -38 0 -60
12 -135 74 -60 50 -47 60 60 45 154 -21 350 14 484 88 152 83 277 218 360 388
113 230 230 797 214 1030 -11 156 -60 295 -143 404 -22 30 -41 62 -41 72 0 10
-3 24 -6 33 -5 13 3 16 51 16 l56 0 167 -159z m-11668 -625 c322 -214 589
-392 593 -396 4 -4 -9 -36 -29 -71 -203 -348 -558 -555 -1114 -648 -108 -18
-512 -61 -577 -61 -20 0 -14 16 72 191 162 329 275 641 369 1019 30 118 59
248 66 288 8 42 18 72 24 70 6 -2 274 -178 596 -392z m7265 199 c49 -122 132
-372 221 -658 51 -165 49 -162 98 -142 17 8 18 5 12 -30 -10 -49 -52 -153 -95
-233 -39 -72 -130 -175 -200 -226 -110 -81 -304 -156 -402 -156 -50 0 -146 43
-195 87 -50 45 -99 113 -137 188 -46 93 -141 367 -167 482 -27 122 -26 166 4
217 23 39 46 59 173 150 l52 37 6 -33 c3 -18 21 -136 40 -263 44 -285 43 -282
61 -289 11 -4 24 12 46 60 l31 66 -2 251 c-1 139 -3 275 -3 302 -2 70 34 142
118 240 l69 79 6 -49 c3 -28 9 -102 13 -165 17 -290 37 -585 41 -588 8 -8 57
33 71 59 25 49 32 115 38 359 4 129 9 259 12 289 7 66 22 108 33 95 5 -5 30
-63 56 -129z m1849 -169 c82 -313 116 -474 123 -591 13 -213 -71 -415 -238
-569 -78 -73 -121 -100 -201 -127 -112 -38 -255 -16 -450 69 -124 54 -227 140
-282 235 -79 134 -184 499 -216 752 -14 109 -15 384 -1 398 17 17 81 -4 104
-34 13 -19 44 -140 97 -389 43 -199 81 -365 85 -368 12 -13 54 52 66 102 17
71 5 262 -26 436 -44 240 -45 217 6 227 60 12 87 5 103 -26 8 -14 35 -109 60
-211 25 -102 65 -261 90 -355 24 -93 49 -214 56 -267 15 -108 12 -105 89 -76
l24 8 -6 193 c-7 252 -42 435 -120 630 l-35 86 54 7 c83 10 139 -2 168 -36 30
-36 58 -151 132 -550 30 -162 57 -301 59 -308 3 -8 20 4 46 34 38 44 40 50 35
93 -3 25 -8 85 -11 134 -19 318 -20 333 -41 440 -19 97 -49 185 -71 209 -9 10
-14 20 -11 23 8 8 212 84 229 84 12 1 30 -54 83 -253z m-1540 235 c68 -7 60
19 70 -226 6 -154 12 -260 22 -423 l5 -93 -28 3 -28 3 -87 360 c-48 198 -88
366 -88 373 0 13 35 14 134 3z m-23589 -133 c100 -40 432 -149 529 -174 120
-30 171 -56 258 -128 80 -66 222 -226 211 -237 -14 -13 -324 -126 -397 -143
-104 -26 -149 -16 -259 57 -208 139 -415 396 -531 659 l-25 57 82 -35 c45 -20
105 -45 132 -56z m17068 -704 c167 -68 198 -84 159 -84 -40 0 -89 -59 -131
-157 -104 -243 -297 -450 -557 -599 -252 -143 -665 -275 -999 -319 -156 -20
-455 -21 -595 -1 -87 13 -315 67 -325 78 -2 2 31 72 72 156 45 92 83 158 98
168 20 13 37 14 132 3 228 -25 488 0 834 81 240 55 328 84 454 145 190 93 425
291 615 518 35 42 68 77 73 77 5 0 81 -30 170 -66z m439 -188 c343 -132 684
-228 1125 -316 134 -26 253 -55 266 -63 27 -18 92 -166 132 -303 35 -118 44
-279 21 -378 -43 -181 -178 -334 -351 -398 -48 -18 -82 -22 -170 -22 -98 0
-121 3 -210 33 -288 96 -466 217 -964 655 -106 94 -202 178 -212 186 -11 9
-26 36 -34 62 l-13 46 44 7 c52 7 20 24 468 -243 283 -168 413 -238 423 -229
9 9 -93 130 -159 189 -189 168 -471 343 -626 389 -49 14 -49 7 4 132 45 109
59 127 92 127 46 0 492 -267 805 -483 206 -141 253 -161 277 -117 11 21 8 27
-36 67 -186 165 -321 258 -689 478 -331 198 -330 198 -321 213 9 15 -2 18 128
-32z m-13438 -174 c49 -86 88 -161 88 -167 -1 -5 -27 -16 -59 -25 -187 -51
-322 -187 -444 -444 -243 -516 -246 -1025 -9 -1616 223 -558 412 -843 703
-1063 73 -54 246 -139 392 -192 75 -27 140 -57 155 -70 23 -24 24 -27 12 -83
-7 -32 -12 -75 -12 -95 0 -32 -3 -37 -24 -37 -47 0 -218 50 -325 95 -225 95
-680 378 -858 534 -122 107 -191 190 -343 417 -189 281 -261 426 -307 616 -30
125 -24 508 13 788 55 421 203 765 470 1096 132 163 400 405 448 404 6 0 51
-71 100 -158z m-2147 38 c38 -10 136 -37 218 -60 83 -22 184 -50 225 -61 152
-42 378 -141 617 -272 73 -40 133 -78 133 -85 0 -27 -35 -72 -68 -88 -40 -19
-57 -15 -282 59 -74 25 -195 64 -268 86 -151 48 -243 92 -357 176 -86 62 -175
108 -201 103 -12 -2 -4 -19 34 -73 87 -124 214 -228 333 -275 29 -12 171 -57
317 -101 283 -85 315 -98 332 -130 23 -41 7 -186 -25 -236 -26 -40 -61 -37
-267 16 -227 59 -414 114 -482 144 -26 11 -87 51 -135 89 -80 64 -247 166
-256 156 -13 -13 82 -145 160 -223 133 -133 272 -200 495 -239 171 -30 374
-76 397 -91 12 -8 26 -27 29 -41 4 -14 -3 -98 -15 -187 -12 -89 -25 -193 -29
-232 l-7 -70 -160 1 c-139 1 -187 6 -365 38 -216 39 -433 57 -480 38 -36 -14
-37 -49 -2 -56 15 -3 236 -40 492 -81 256 -42 477 -78 493 -81 27 -6 27 -6 27
-85 0 -77 -10 -115 -34 -132 -19 -12 -78 -25 -151 -32 -133 -12 -341 -35 -684
-76 -365 -44 -431 -59 -431 -99 0 -11 7 -20 15 -20 47 0 858 73 1129 101 l119
13 21 -25 c21 -24 95 -264 85 -274 -5 -5 -239 -75 -395 -119 -177 -50 -252
-58 -534 -61 -294 -4 -715 18 -795 40 -71 20 -137 67 -178 128 -49 71 -61 128
-54 245 15 228 118 447 281 599 132 123 298 192 526 218 30 4 101 15 158 26
123 23 180 24 287 5 121 -21 343 -75 407 -98 53 -19 59 -19 112 -4 30 9 58 21
61 26 3 6 -8 30 -26 55 -38 53 -24 48 -329 110 -268 55 -337 72 -495 123 -234
77 -452 175 -584 264 -94 64 -231 181 -264 226 -137 187 -110 347 78 467 89
57 335 144 480 170 88 16 204 10 292 -15z m17448 -253 c168 -6 175 -17 186
-272 4 -99 6 -193 4 -210 -2 -16 -6 -61 -10 -100 -10 -98 -60 -290 -104 -401
-110 -271 -309 -476 -582 -596 -161 -71 -236 -62 -388 47 -50 36 -102 70 -116
75 -34 13 -101 13 -125 0 -18 -9 -17 -14 16 -84 107 -234 93 -462 -49 -800
l-42 -98 -110 7 c-60 4 -114 7 -120 8 -5 1 -11 -7 -12 -18 -2 -14 16 -35 57
-69 33 -27 59 -50 58 -52 -2 -1 -57 -18 -123 -37 -93 -27 -153 -37 -265 -46
-80 -6 -206 -16 -280 -22 -305 -25 -467 4 -774 141 -158 70 -211 70 -237 1 -6
-13 -14 -79 -19 -146 -6 -81 -18 -149 -35 -204 -50 -158 -176 -302 -335 -384
-68 -35 -77 -37 -166 -37 -78 0 -94 -3 -94 -15 0 -31 -30 -72 -62 -86 -64 -27
-242 -8 -398 42 -176 57 -429 207 -630 375 -190 158 -219 155 -344 -35 -75
-113 -171 -208 -278 -275 -76 -47 -229 -115 -259 -116 -9 0 -52 52 -99 118
-46 64 -94 131 -106 147 l-23 30 152 1 c124 0 167 4 230 22 326 90 649 413
771 770 l22 63 116 -163 c173 -240 267 -341 423 -453 129 -92 187 -118 280
-123 75 -4 86 -2 185 37 211 84 382 201 485 332 112 144 150 260 160 488 10
230 17 252 58 182 57 -96 227 -241 366 -310 151 -77 469 -161 604 -161 85 0
203 27 274 63 101 52 167 149 200 298 13 55 17 125 17 274 1 174 -2 213 -22
303 -56 248 -152 456 -319 690 -52 73 -70 109 -60 119 3 3 70 -41 149 -98 248
-179 357 -248 492 -314 214 -104 414 -165 546 -165 195 0 395 103 519 267 128
170 159 337 102 559 -16 64 -109 349 -136 416 -8 19 18 25 100 21 28 -2 95 -4
150 -6z m-14999 -310 c317 -500 376 -592 470 -724 277 -389 524 -643 821 -843
l103 -69 -116 -123 c-64 -68 -136 -150 -161 -183 -57 -76 -164 -256 -330 -555
-189 -340 -184 -333 -226 -354 -36 -17 -42 -17 -108 -2 -211 48 -384 166 -543
371 -201 260 -455 759 -540 1063 -85 301 -89 648 -10 920 69 237 187 462 313
596 65 69 161 147 172 140 5 -2 74 -109 155 -237z m15968 133 c553 -156 925
-572 1185 -1325 120 -345 171 -571 266 -1165 98 -614 239 -1043 421 -1280 123
-162 297 -281 559 -380 227 -86 386 -120 566 -120 334 0 572 125 690 365 53
109 64 186 51 381 -8 117 -15 162 -31 199 -28 63 -154 188 -207 205 -81 26
-63 35 61 31 74 -3 122 -30 200 -112 180 -191 226 -327 196 -590 -29 -253 -87
-466 -173 -631 -112 -214 -259 -354 -507 -482 -473 -243 -952 -171 -1316 199
-229 233 -536 762 -850 1465 -310 693 -405 872 -568 1075 -107 133 -455 503
-567 603 -124 110 -207 167 -310 212 -75 33 -451 217 -459 226 -2 2 42 121 99
263 l103 259 61 -23 c464 -175 670 -287 836 -455 73 -73 134 -159 435 -612
193 -290 354 -528 359 -528 20 0 46 34 46 60 0 68 -102 315 -202 490 -89 155
-299 467 -373 553 -173 203 -410 352 -820 515 -82 33 -190 78 -240 99 l-90 39
-3 286 -2 285 256 -43 c141 -24 288 -53 328 -64z m-3268 -272 c77 -100 163
-216 193 -258 197 -274 340 -578 387 -826 47 -246 -6 -540 -113 -635 -122
-107 -336 -137 -528 -74 -316 104 -519 320 -670 714 -27 73 -264 815 -269 844
-2 15 68 47 102 47 23 0 42 -8 61 -27 35 -36 124 -193 318 -563 86 -162 159
-299 163 -303 16 -18 33 66 26 132 -22 233 -138 520 -298 732 l-68 90 88 40
c118 55 162 72 168 67 5 -6 215 -383 393 -708 68 -124 132 -238 143 -255 l19
-30 -6 65 c-26 264 -124 523 -330 869 -47 79 -85 146 -85 150 0 9 143 109 156
110 6 1 74 -81 150 -181z m-2385 -240 c16 -60 15 -86 -9 -233 -11 -71 -23
-157 -26 -190 -4 -33 -8 -76 -11 -95 -8 -63 -24 -312 -31 -485 -8 -209 -21
-265 -108 -455 -149 -324 -223 -429 -426 -608 -125 -109 -158 -130 -287 -182
-183 -73 -284 -66 -327 23 -57 121 -46 424 34 922 27 168 40 203 109 277 72
79 291 281 297 276 2 -3 -5 -77 -17 -164 -33 -256 -35 -284 -14 -284 9 0 34
17 54 38 34 33 42 53 80 192 127 464 143 506 213 563 54 44 128 90 135 84 4
-4 -13 -161 -62 -577 -9 -69 -17 -143 -20 -165 -6 -50 -24 -207 -30 -260 -2
-22 -11 -96 -20 -165 -20 -162 -19 -170 4 -170 14 0 25 14 39 53 33 88 70 218
107 369 34 142 52 239 140 728 42 238 77 406 104 508 10 35 16 42 36 42 20 0
26 -7 36 -42z m366 -62 c2 -2 71 -379 168 -921 47 -264 87 -486 90 -492 21
-58 61 70 57 182 -2 47 -46 494 -77 785 -27 246 -32 368 -18 419 6 23 7 23 92
17 98 -8 123 -21 150 -74 27 -53 102 -321 216 -775 63 -249 101 -383 107 -374
41 75 55 383 24 562 -10 55 -49 223 -87 373 -38 150 -69 278 -69 286 0 14 110
39 122 27 4 -4 26 -69 48 -146 51 -178 74 -242 120 -335 100 -201 121 -309
127 -651 5 -215 3 -270 -12 -340 -32 -161 -128 -322 -254 -426 -111 -91 -305
-195 -390 -209 -62 -10 -129 29 -249 141 -180 170 -285 338 -338 541 -32 120
-36 265 -11 394 9 47 18 121 22 165 3 44 7 107 10 140 5 67 10 138 25 395 6
96 13 198 15 225 2 28 4 64 5 81 l0 31 53 -10 c28 -5 53 -10 54 -11z m4501
-762 c29 -14 64 -41 78 -59 46 -61 355 -742 493 -1089 152 -378 223 -648 251
-951 29 -314 -2 -560 -137 -1095 -138 -550 -177 -654 -365 -975 -95 -162 -110
-183 -141 -196 -45 -19 -81 6 -208 142 -396 425 -568 577 -895 792 -420 276
-935 500 -1569 683 -104 30 -210 62 -235 71 -171 62 -315 158 -476 318 -126
126 -369 394 -362 400 2 2 44 24 93 49 154 77 272 192 354 346 37 69 93 231
116 333 9 42 19 77 21 77 3 0 30 -11 62 -24 257 -108 569 -143 982 -110 144
11 300 25 343 31 l48 6 -7 -29 c-4 -16 -40 -132 -81 -259 -88 -273 -149 -505
-157 -595 -3 -36 -8 -93 -11 -127 -3 -37 -1 -64 5 -68 5 -3 34 18 63 47 63 63
53 39 232 568 76 223 144 419 152 435 19 37 105 155 113 155 3 0 65 -47 138
-105 175 -140 230 -213 252 -335 19 -106 4 -185 -87 -465 -94 -289 -194 -524
-301 -709 -35 -60 -52 -100 -52 -124 0 -25 4 -33 14 -29 8 3 31 11 53 17 56
17 63 24 150 160 209 326 261 438 360 775 30 105 57 194 60 198 3 4 64 -101
136 -235 131 -243 131 -243 135 -318 2 -45 -3 -95 -11 -125 -8 -27 -31 -113
-51 -190 -20 -77 -71 -261 -113 -408 -42 -147 -72 -271 -68 -275 3 -4 29 -7
57 -7 43 0 53 4 78 32 15 17 35 57 44 90 35 124 168 538 176 546 12 13 77
-110 115 -216 18 -50 54 -184 80 -297 48 -207 92 -367 118 -429 l14 -34 27 58
c14 32 26 72 26 90 0 40 -70 434 -117 660 -38 185 -56 239 -114 354 -21 41
-36 78 -31 81 4 4 54 15 112 24 473 78 550 101 550 161 0 28 -35 64 -57 59
-49 -11 -364 -68 -480 -87 -143 -22 -166 -19 -196 27 -30 46 -349 648 -345
651 2 2 213 86 468 186 256 100 467 183 469 185 2 2 -6 16 -18 33 -31 43 -102
75 -151 67 -30 -5 -679 -253 -828 -316 -37 -16 -67 -12 -108 16 -77 53 -456
348 -461 360 -2 7 14 48 36 93 50 99 89 212 107 311 17 96 17 267 0 348 -7 34
-9 62 -4 62 4 0 52 -12 105 -26 127 -34 239 -35 338 -4 91 29 137 53 270 140
60 40 125 78 145 86 60 22 139 17 198 -12z m-13533 -611 l64 -46 -70 -74
c-146 -154 -227 -280 -403 -630 -126 -250 -181 -343 -221 -369 -30 -19 -88
-16 -176 10 l-57 17 47 87 c26 48 69 128 96 177 93 174 238 407 328 528 75
100 304 347 322 347 3 0 34 -21 70 -47z m7240 -5 c-3 -13 -18 -104 -35 -203
-16 -99 -43 -249 -60 -333 -34 -173 -31 -199 29 -243 37 -27 162 -276 187
-372 8 -34 22 -74 31 -90 23 -44 88 -111 177 -182 45 -35 114 -98 154 -139 40
-42 103 -100 140 -129 103 -82 458 -339 556 -402 164 -107 490 -269 916 -455
140 -61 306 -138 369 -171 501 -265 857 -611 1081 -1051 77 -150 113 -244 212
-548 147 -454 178 -610 178 -897 0 -98 -2 -194 -5 -213 -3 -19 -10 -66 -16
-105 -57 -377 -240 -705 -526 -945 -220 -184 -495 -380 -704 -503 -200 -118
-328 -166 -534 -202 -146 -26 -411 -24 -569 4 -218 39 -440 130 -588 241 -84
64 -280 267 -364 379 -82 110 -168 282 -194 391 -44 177 -37 484 15 750 67
338 255 512 620 575 68 12 258 7 331 -8 244 -52 411 -246 397 -462 -10 -153
-16 -180 -40 -183 -15 -2 -30 8 -50 34 -102 134 -166 175 -284 182 -128 7
-261 -41 -354 -129 -154 -146 -182 -433 -69 -714 85 -214 231 -378 424 -479
262 -136 527 -151 990 -55 267 56 391 121 576 304 129 128 199 224 277 380
122 245 178 532 148 760 -23 170 -128 442 -256 662 -298 508 -647 880 -1091
1162 -171 108 -590 347 -884 503 -749 399 -883 477 -1033 597 -418 337 -626
789 -630 1366 -3 469 7 667 26 538 12 -82 57 -372 68 -438 38 -239 170 -498
397 -781 247 -309 446 -470 952 -774 113 -68 279 -171 370 -230 91 -58 291
-182 445 -275 648 -389 806 -519 1190 -980 151 -181 216 -250 263 -283 l63
-44 -7 53 c-10 80 -26 120 -85 215 -147 234 -391 514 -579 664 -117 93 -755
500 -1318 840 -551 332 -820 542 -1066 831 -317 370 -430 652 -481 1188 -8 86
-17 179 -21 207 l-6 51 129 81 c70 44 131 81 136 81 4 1 5 -9 2 -21z m-6828
-225 c171 -81 169 -76 65 -192 -299 -332 -487 -626 -642 -1001 -180 -438 -268
-873 -454 -2240 -25 -181 -70 -562 -101 -850 -90 -843 -105 -950 -172 -1169
-109 -361 -365 -860 -588 -1146 -83 -107 -249 -264 -365 -348 -244 -174 -664
-328 -1004 -368 -144 -17 -435 -6 -559 20 -214 47 -448 147 -612 263 -212 150
-384 378 -466 615 -43 125 -48 292 -13 428 21 81 84 214 138 288 131 185 370
341 566 369 143 21 240 -16 308 -117 l34 -50 -70 -6 c-229 -21 -363 -144 -461
-422 -40 -113 -71 -267 -71 -349 0 -80 31 -203 67 -271 91 -169 292 -289 553
-332 455 -74 877 21 1220 275 269 200 547 566 776 1020 266 530 391 1042 439
1800 3 52 8 120 10 150 2 30 7 100 10 155 3 55 8 123 10 150 2 28 9 124 15
215 6 91 12 185 15 210 2 25 7 104 10 175 4 72 9 146 12 165 3 19 7 325 8 680
3 596 8 781 21 836 l6 21 86 -21 c47 -12 87 -26 89 -32 2 -5 -15 -178 -36
-384 -22 -205 -38 -377 -36 -381 3 -3 14 -9 25 -12 16 -4 27 7 60 61 54 91 64
126 105 336 52 269 109 428 267 738 134 265 246 449 400 656 72 98 114 132
162 132 16 0 94 -30 173 -67z m-3412 -39 c25 -14 45 -30 45 -34 0 -18 -51 -41
-460 -211 -231 -95 -420 -176 -420 -180 0 -3 17 -12 39 -19 37 -12 51 -8 425
114 212 69 402 126 423 126 60 0 116 -34 156 -95 l36 -53 -77 -17 c-370 -82
-513 -127 -641 -204 -62 -37 -166 -120 -159 -127 2 -1 45 13 96 32 175 66 725
194 832 194 52 0 56 -2 107 -55 29 -30 53 -58 53 -63 0 -4 -33 -18 -72 -31
-650 -203 -810 -270 -1020 -429 -51 -39 -52 -40 -39 -60 6 -10 55 9 207 81
340 161 544 228 887 292 l139 25 56 -30 c32 -17 70 -42 87 -55 l29 -24 -324
-160 c-179 -88 -383 -191 -453 -230 -209 -115 -333 -157 -590 -201 -143 -24
-315 -26 -406 -5 -174 42 -310 178 -341 344 -22 116 -6 283 36 392 29 74 84
149 193 262 204 211 387 318 657 383 136 33 392 74 427 69 15 -3 48 -16 72
-31z m9517 -110 c2 -9 2 -56 0 -105 l-3 -89 -40 0 c-48 0 -88 -19 -122 -59
-26 -32 -28 -49 -42 -351 -10 -222 -16 -307 -36 -555 -21 -256 -26 -542 -14
-765 3 -69 17 -309 31 -535 38 -627 39 -661 39 -1105 0 -520 -16 -652 -111
-942 -25 -75 -44 -147 -42 -160 4 -22 6 -20 47 22 127 132 205 285 246 484 26
127 38 439 31 816 -11 571 -18 743 -42 1005 -32 358 -26 713 20 1165 3 25 10
104 16 175 11 119 26 202 36 192 2 -2 13 -65 24 -140 23 -151 25 -230 15 -535
-7 -206 6 -639 26 -862 8 -97 39 -368 54 -475 4 -27 18 -138 30 -235 29 -236
34 -533 11 -705 -18 -141 -110 -682 -130 -766 -94 -404 -415 -893 -779 -1188
-232 -187 -639 -404 -861 -456 -163 -39 -381 -26 -637 39 -458 115 -901 403
-1107 720 -129 199 -176 413 -177 801 0 199 0 200 29 263 69 151 285 272 482
272 38 0 86 -5 107 -11 l37 -10 -79 -40 c-99 -49 -159 -113 -212 -224 -52
-106 -89 -256 -89 -355 0 -327 302 -734 649 -875 178 -73 413 -103 663 -85
290 20 500 70 648 153 95 54 278 232 383 374 239 324 412 801 483 1334 23 173
27 593 9 814 -55 640 -105 1375 -105 1538 0 151 16 231 60 315 36 68 37 94 9
158 -33 73 -37 198 -11 301 32 128 152 366 290 576 33 50 58 76 96 97 59 35
63 35 68 14z m-798 -405 c-10 -12 -384 -407 -831 -878 -631 -666 -808 -858
-796 -865 30 -16 155 -2 207 24 70 35 154 117 707 690 268 278 566 584 663
680 l176 175 0 -50 c0 -94 -20 -385 -30 -437 -16 -83 -40 -122 -195 -313 -80
-99 -199 -245 -263 -325 -287 -357 -557 -583 -895 -750 -203 -101 -325 -122
-460 -80 -117 36 -238 147 -295 269 -21 47 -24 63 -19 125 9 120 80 287 185
436 134 191 515 517 839 717 133 83 354 203 578 316 72 35 168 93 215 128 100
74 222 159 228 159 3 0 -3 -10 -14 -21z m-4607 -281 c532 -572 826 -900 921
-1027 188 -251 280 -553 232 -766 -34 -154 -166 -326 -294 -386 -67 -31 -67
-32 -144 -19 -102 16 -222 57 -307 104 -85 48 -211 167 -263 249 -99 156 -267
444 -299 513 -62 136 -169 478 -213 684 -41 194 -62 555 -42 719 l7 54 57
-144 c156 -395 309 -750 419 -971 144 -288 385 -678 453 -735 71 -58 157 -66
255 -22 l44 19 -57 35 c-168 101 -269 236 -414 550 -162 354 -552 1289 -552
1325 0 25 30 -3 197 -182z m-627 -254 c11 -93 28 -212 39 -264 24 -118 124
-464 231 -800 160 -503 193 -669 194 -970 1 -210 -5 -251 -55 -373 -136 -328
-328 -410 -576 -245 -105 70 -297 262 -362 363 -108 165 -153 288 -187 510 -3
22 -19 65 -35 95 -20 38 -29 69 -29 102 0 73 140 759 210 1026 28 108 92 274
160 412 l32 65 -6 -55 c-3 -30 -8 -113 -12 -185 -3 -71 -8 -132 -9 -135 -8
-13 -20 -401 -19 -575 1 -141 7 -223 23 -318 32 -192 107 -492 137 -548 50
-91 132 -125 271 -110 6 0 -4 24 -24 54 -111 162 -152 319 -194 732 -41 415
-11 747 107 1195 32 120 68 209 81 197 2 -3 13 -80 23 -173z m-2477 57 c37
-27 88 -62 112 -78 25 -15 45 -31 45 -35 0 -6 -44 -17 -179 -43 -175 -34 -347
-128 -461 -253 -76 -82 -275 -376 -266 -391 4 -6 14 -11 22 -11 17 0 154 114
330 274 123 112 229 194 291 225 38 19 81 32 281 87 l53 15 -26 44 c-14 25
-24 45 -22 45 2 0 67 -29 144 -63 l141 -64 -83 -37 c-232 -104 -410 -278 -530
-517 -48 -95 -97 -210 -91 -216 9 -9 164 149 226 232 132 176 294 305 523 416
139 67 169 71 280 38 l70 -21 -7 -55 c-6 -50 -14 -65 -94 -167 -254 -325 -646
-780 -777 -904 -195 -185 -365 -269 -565 -279 -87 -5 -120 -2 -190 16 -240 60
-399 208 -432 403 -17 94 6 200 70 331 120 246 290 455 597 738 182 167 306
274 350 301 17 10 49 18 75 18 39 0 56 -7 113 -49z m-3125 -1038 c219 -124
490 -172 990 -173 111 0 202 -4 202 -8 0 -18 -115 -145 -182 -202 -40 -33
-147 -110 -237 -170 l-165 -110 -401 120 c-220 66 -408 120 -418 120 -20 0
-107 -37 -107 -46 0 -9 163 -82 262 -118 51 -19 167 -55 258 -80 91 -26 195
-56 232 -67 l68 -20 -112 -139 -112 -140 -60 0 c-34 0 -135 4 -226 9 -91 5
-228 12 -305 16 -77 3 -168 8 -201 11 l-62 5 -5 -33 c-5 -40 -1 -43 84 -63 89
-20 221 -33 416 -39 144 -6 259 -18 271 -30 7 -8 -134 -229 -179 -280 -23 -26
-54 -53 -68 -59 -14 -6 -118 -13 -231 -17 -176 -5 -213 -9 -265 -28 -32 -12
-66 -29 -74 -37 -13 -13 -9 -17 35 -37 52 -23 107 -26 328 -19 56 1 103 -2
108 -7 7 -7 -76 -108 -246 -301 -141 -160 -256 -296 -256 -302 0 -17 72 -5
123 21 150 78 367 278 610 563 l162 190 6 -95 c24 -356 27 -376 73 -518 40
-119 59 -143 115 -138 42 4 40 -27 28 318 -18 546 -19 565 -52 631 l-25 49
157 214 c87 118 164 215 171 215 18 1 19 -5 37 -182 9 -88 23 -198 31 -245 31
-178 110 -367 228 -548 61 -93 70 -103 109 -112 23 -6 44 -9 47 -6 3 3 5 31 5
62 -1 49 -11 81 -81 237 -127 282 -150 370 -159 595 -3 74 -7 181 -10 236 l-4
102 84 56 c47 31 89 57 95 58 6 2 23 -27 39 -63 120 -283 354 -505 757 -718
l140 -74 -3 -41 c-17 -232 -192 -449 -671 -830 -159 -126 -183 -140 -287 -171
-49 -15 -279 -89 -510 -165 -539 -178 -688 -224 -860 -265 -138 -33 -404 -78
-540 -90 -38 -4 -81 -8 -95 -10 -88 -12 -240 -16 -240 -7 0 6 21 66 46 134
133 355 165 485 224 913 26 197 41 286 101 615 108 591 183 842 310 1046 105
168 320 337 401 316 11 -2 54 -24 96 -49z"/>
<path d="M26730 24214 c-327 -140 -595 -256 -596 -257 -1 -1 2 -12 6 -23 l8
-21 159 23 c87 13 203 38 258 55 175 54 655 251 722 295 33 21 63 73 63 109 0
36 -10 75 -19 75 -3 -1 -274 -116 -601 -256z"/>
<path d="M27009 23963 c-24 -9 -48 -19 -54 -23 -5 -4 -200 -103 -432 -220
-233 -118 -422 -214 -420 -215 1 -1 34 1 72 6 39 4 102 8 142 8 87 1 208 23
260 48 21 11 76 42 123 71 47 28 162 86 255 128 94 42 175 81 182 86 9 7 8 20
-4 53 -23 68 -53 81 -124 58z"/>
<path d="M27334 23491 c-62 -22 -147 -55 -190 -74 -930 -407 -997 -436 -1151
-483 -67 -21 -119 -42 -116 -46 6 -12 198 -1 338 19 212 29 318 63 600 193
105 48 298 131 430 185 132 53 255 104 274 111 31 13 33 17 27 47 -8 38 -41
74 -76 81 -16 4 -67 -9 -136 -33z"/>
<path d="M27495 22933 c-33 -15 -204 -92 -380 -171 -506 -229 -694 -307 -930
-384 l-220 -73 75 -8 c41 -5 134 -6 205 -4 157 6 192 16 555 162 188 75 886
368 907 380 10 5 -22 78 -43 99 -35 34 -88 34 -169 -1z"/>
<path d="M27675 22363 c-69 -17 -254 -82 -349 -123 -61 -27 -230 -106 -377
-177 -281 -136 -407 -190 -554 -235 l-90 -28 195 6 c287 8 316 15 554 128 76
37 265 121 420 187 154 67 284 124 288 127 4 4 -1 33 -10 64 -18 60 -23 64
-77 51z"/>
<path d="M27775 21850 c-16 -4 -127 -55 -245 -114 -197 -97 -430 -195 -730
-306 -63 -23 -119 -46 -123 -50 -13 -12 110 -30 200 -30 181 0 321 45 658 210
121 60 257 121 302 137 49 16 83 34 83 41 0 8 -7 30 -16 49 -26 54 -74 77
-129 63z"/>
<path d="M27458 20993 l-333 -166 60 -19 c75 -24 192 -19 280 11 33 12 141 62
240 111 99 50 186 90 193 90 16 0 15 11 -5 62 -22 58 -41 78 -74 78 -16 0
-169 -70 -361 -167z"/>
<path d="M26068 21138 c-21 -4 -75 -32 -120 -61 -168 -108 -318 -192 -711
-398 -536 -281 -719 -384 -1122 -629 -187 -113 -486 -291 -665 -395 -179 -103
-329 -191 -333 -195 -12 -11 15 -59 53 -95 26 -25 39 -30 79 -29 56 1 103 26
836 447 1017 585 1055 606 1764 986 236 127 281 149 281 138 0 -4 62 -311 144
-714 31 -150 56 -279 56 -286 0 -10 -20 -16 -67 -20 -38 -4 -158 -32 -268 -62
-272 -75 -367 -92 -1085 -196 -484 -70 -707 -114 -1415 -280 -281 -66 -405
-105 -405 -128 0 -19 93 -91 127 -97 48 -9 84 -2 398 81 433 113 605 147 1040
205 387 51 416 56 1108 185 251 47 479 85 505 85 57 0 101 -24 130 -72 42 -67
115 -85 161 -39 19 19 19 21 0 81 -19 63 -31 126 -74 410 -14 91 -40 233 -59
315 -56 248 -167 658 -188 693 -36 59 -100 85 -170 70z"/>
<path d="M27460 20470 c-228 -99 -428 -186 -445 -194 l-30 -14 77 -36 c42 -20
91 -36 108 -36 17 0 103 29 193 64 175 69 558 233 569 244 10 10 -33 152 -46
152 -6 -1 -198 -81 -426 -180z"/>
<path d="M16708 20320 l-37 -5 31 -50 c17 -27 46 -81 64 -120 26 -58 304 -782
493 -1284 59 -158 86 -201 138 -227 61 -31 147 -23 428 39 484 107 686 139
1175 187 208 20 660 107 875 168 171 48 279 51 369 9 69 -32 101 -34 116 -8
25 48 -7 124 -74 174 -36 27 -225 103 -616 245 -151 55 -446 164 -655 242
-781 291 -1010 360 -1831 550 -346 81 -405 91 -476 80z m473 -240 c701 -126
1465 -364 2409 -750 96 -39 199 -81 228 -92 29 -12 50 -23 47 -26 -8 -8 -369
-110 -450 -128 -76 -16 -164 -29 -265 -39 -513 -49 -986 -121 -1357 -206 -247
-56 -271 -53 -316 37 -16 31 -477 1219 -477 1229 0 8 6 7 181 -25z"/>
<path d="M27338 19818 c-280 -131 -348 -166 -348 -182 0 -18 7 -19 148 -13 81
4 167 11 192 17 55 14 305 143 342 178 15 14 31 40 34 59 7 36 -2 103 -14 103
-4 0 -163 -73 -354 -162z"/>
<path d="M27487 19372 c-383 -197 -667 -347 -667 -354 0 -3 25 -19 55 -33 46
-23 65 -27 114 -23 51 4 101 25 417 180 352 172 359 176 356 203 -4 38 -38
101 -57 109 -31 12 -47 6 -218 -82z"/>
<path d="M27730 18713 c-76 -28 -287 -115 -429 -178 -195 -86 -401 -158 -658
-230 -95 -27 -173 -51 -173 -55 0 -17 140 -73 195 -77 58 -5 82 2 620 192 308
109 563 201 568 204 11 11 -21 109 -44 132 -18 18 -48 23 -79 12z"/>
<path d="M27553 17900 c-12 -5 -91 -49 -175 -98 -155 -91 -359 -200 -703 -377
-104 -54 -199 -104 -210 -112 -29 -20 220 -18 298 2 87 22 249 100 614 292
l331 175 -10 31 c-6 18 -22 47 -35 65 -25 34 -62 41 -110 22z"/>
<path d="M27565 17376 c-27 -13 -106 -58 -175 -101 -69 -43 -165 -102 -215
-132 -94 -57 -515 -269 -817 -412 -98 -46 -178 -87 -178 -90 0 -10 66 -51 97
-60 37 -11 112 -6 159 9 93 31 459 212 860 426 244 130 444 238 444 241 0 21
-66 123 -86 132 -32 14 -31 15 -89 -13z"/>
<path d="M23120 16961 c-30 -5 -136 -21 -235 -35 -781 -117 -1021 -209 -1444
-557 -430 -353 -626 -744 -799 -1599 -46 -222 -56 -312 -77 -634 -17 -269 -15
-280 59 -315 49 -24 103 -29 177 -18 l46 8 27 101 c79 302 268 575 631 912
672 624 1241 920 1910 996 122 13 422 13 570 0 326 -30 683 -74 777 -95 177
-39 384 -131 552 -244 92 -62 135 -84 250 -125 96 -35 122 -40 189 -38 l37 2
0 55 c0 62 -20 107 -138 315 -157 277 -343 513 -488 616 -222 158 -1241 560
-1613 635 -107 22 -344 33 -431 20z m476 -186 c122 -21 235 -55 459 -135 395
-143 809 -315 897 -374 161 -106 347 -305 436 -466 33 -58 85 -190 79 -196 -2
-2 -73 29 -158 70 -506 243 -1002 352 -1559 341 -802 -14 -1503 -266 -2120
-761 -239 -192 -520 -487 -744 -783 -47 -62 -86 -107 -86 -98 0 42 45 267 76
382 151 555 246 844 331 1008 149 288 443 553 818 738 227 112 306 133 800
219 426 73 593 85 771 55z"/>
<path d="M27204 16440 c-12 -5 -128 -70 -258 -144 -474 -273 -780 -407 -1053
-462 -89 -18 -93 -19 -93 -45 0 -26 2 -27 88 -38 157 -20 199 -16 355 35 187
62 385 146 585 250 191 98 482 271 489 289 6 18 -42 111 -62 119 -20 7 -24 7
-51 -4z"/>
<path d="M26625 15244 c-196 -35 -346 -91 -577 -217 -165 -89 -166 -91 -70
-128 79 -29 145 -23 214 21 37 23 125 55 293 105 l240 72 3 81 c2 62 0 82 -10
81 -7 0 -49 -7 -93 -15z"/>
<path d="M25753 14162 c-145 -92 -263 -170 -263 -174 0 -10 95 -28 149 -28 56
0 136 22 206 57 78 39 255 157 255 170 0 21 -64 143 -75 142 -5 0 -128 -76
-272 -167z"/>
<path d="M9247 16857 c-3 -9 -51 -17 -159 -25 -187 -15 -293 -32 -463 -77
-181 -47 -110 -19 -1100 -437 -143 -60 -266 -117 -272 -126 -21 -27 -16 -86
10 -110 12 -11 75 -52 139 -90 294 -174 712 -318 1071 -368 157 -22 472 -15
613 15 337 70 710 220 1002 402 138 85 337 235 423 318 66 63 69 68 69 112 0
75 -66 151 -159 184 -42 14 -455 91 -886 165 -132 22 -250 43 -261 45 -13 3
-24 -1 -27 -8z m528 -196 c237 -34 464 -81 532 -109 35 -14 62 -29 61 -32 -6
-14 -126 -114 -233 -195 -259 -195 -525 -336 -844 -446 -364 -126 -616 -152
-976 -98 -292 43 -624 157 -793 271 l-52 35 242 106 c458 200 1001 410 1153
446 179 43 257 50 515 46 185 -2 282 -8 395 -24z"/>
<path d="M17549 14992 c-31 -15 -160 -85 -287 -157 l-231 -130 52 -3 c64 -4
224 22 337 55 92 26 228 89 274 126 l30 24 -28 47 c-23 40 -57 66 -84 66 -4 0
-32 -12 -63 -28z"/>
<path d="M17770 14361 c-91 -32 -225 -81 -299 -108 -133 -49 -135 -50 -110
-66 44 -29 110 -47 174 -47 49 0 98 11 212 49 81 27 187 59 236 71 48 13 87
28 87 34 -1 25 -39 94 -61 110 -35 24 -60 20 -239 -43z"/>
<path d="M16695 14271 c-114 -48 -227 -105 -285 -143 -25 -17 -115 -101 -200
-187 -163 -166 -238 -225 -580 -465 -359 -251 -536 -365 -631 -409 -176 -82
-965 -336 -1306 -422 -183 -46 -446 -89 -713 -117 -194 -20 -1040 -16 -1290 7
-25 2 -119 9 -210 15 -91 6 -190 12 -220 15 -30 3 -136 12 -235 21 -523 45
-784 116 -1145 314 -105 58 -208 100 -242 100 -4 0 -8 -13 -8 -28 0 -38 167
-256 389 -506 204 -230 291 -315 484 -469 188 -151 714 -543 848 -632 396
-264 868 -430 1444 -507 130 -18 211 -22 430 -22 273 -1 370 7 597 45 511 85
882 277 1293 670 72 68 189 176 261 240 341 305 555 616 913 1329 287 572 347
741 339 954 l-3 88 65 4 c60 4 250 53 250 64 -1 11 -118 80 -136 80 -10 0 -59
-18 -109 -39z m-431 -670 c17 -27 -326 -693 -505 -979 -233 -375 -648 -826
-1017 -1105 -396 -300 -722 -435 -1222 -504 -152 -21 -521 -23 -685 -5 -347
40 -775 149 -995 255 -107 51 -644 369 -789 466 -248 167 -427 318 -715 601
-228 224 -266 269 -266 312 0 15 1 28 3 28 2 0 42 -16 89 -35 235 -94 544
-167 888 -209 335 -41 944 -78 1310 -80 253 -1 685 10 700 19 3 1 57 6 120 9
63 4 129 9 145 11 17 2 66 7 110 10 117 9 305 41 430 75 129 34 405 128 1028
352 l452 161 255 170 c368 246 538 364 595 414 52 45 60 49 69 34z"/>
<path d="M18095 14026 c-63 -21 -746 -315 -815 -351 -24 -13 -22 -14 63 -53
l87 -41 307 113 c170 62 363 133 430 157 68 24 123 49 123 54 -1 24 -40 95
-62 108 -34 23 -88 28 -133 13z"/>
<path d="M17820 13371 c-359 -146 -493 -204 -709 -309 l-185 -89 68 -46 68
-45 116 48 c65 26 326 132 582 235 256 103 469 191 474 196 12 11 -9 51 -46
91 -43 46 -73 39 -368 -81z"/>
<path d="M17158 12642 c-318 -158 -578 -289 -578 -292 0 -7 116 -100 124 -100
3 0 41 16 83 36 43 20 110 51 148 69 39 18 151 72 250 120 99 47 289 139 423
202 227 109 245 119 263 154 10 21 19 42 19 47 0 14 -95 52 -127 51 -15 0
-288 -130 -605 -287z"/>
<path d="M17355 12247 c-31 -13 -157 -76 -310 -157 -166 -87 -879 -445 -1000
-502 -265 -124 -275 -130 -275 -148 0 -26 152 -49 210 -31 54 16 503 200 745
306 180 78 788 375 808 395 15 13 -13 92 -43 122 -31 31 -80 36 -135 15z"/>
<path d="M16490 11232 c-516 -256 -866 -413 -1212 -543 -109 -41 -198 -77
-198 -80 0 -3 21 -16 48 -30 37 -19 62 -24 117 -23 62 0 87 7 210 59 77 32
405 165 730 296 595 241 603 244 637 307 11 22 9 27 -34 68 -34 31 -55 44 -75
43 -15 0 -116 -44 -223 -97z"/>
<path d="M28506 16218 c-19 -51 -34 -94 -32 -96 7 -6 75 10 92 22 20 15 37
147 20 158 -31 21 -44 6 -80 -84z"/>
<path d="M28013 16258 c-50 -26 -53 -31 -62 -130 -7 -75 -6 -77 17 -83 14 -3
26 -4 29 -1 3 2 17 46 32 98 15 51 31 103 35 116 9 27 3 27 -51 0z"/>
<path d="M27697 15843 c-13 -43 -21 -81 -18 -85 4 -4 20 -10 36 -14 30 -6 30
-5 57 77 15 46 26 84 25 85 -1 1 -19 5 -39 9 l-37 7 -24 -79z"/>
<path d="M28092 15843 c-12 -2 -26 -12 -31 -22 -13 -23 -26 -121 -16 -121 8 0
277 48 313 56 l23 5 -23 42 -23 42 -110 1 c-61 1 -120 0 -133 -3z"/>
<path d="M28620 15785 c-52 -53 -53 -55 -39 -81 12 -22 61 -54 84 -54 3 0 20
30 37 66 l31 66 -29 29 -30 29 -54 -55z"/>
<path d="M28512 15408 c-41 -8 -52 -13 -48 -25 3 -8 6 -26 6 -40 0 -25 1 -26
57 -20 64 7 80 18 89 65 6 30 5 32 -22 31 -16 -1 -53 -6 -82 -11z"/>
<path d="M27670 15273 c-33 -42 -35 -78 -5 -139 14 -29 30 -54 34 -54 4 0 13
35 20 78 7 42 15 89 18 103 4 22 1 27 -21 31 -20 4 -31 -1 -46 -19z"/>
<path d="M28215 15136 c-23 -23 -26 -33 -20 -64 11 -65 16 -74 33 -66 10 3 44
13 77 21 66 16 99 40 114 84 13 38 5 42 -95 47 -79 4 -84 3 -109 -22z"/>
<path d="M27455 14908 c9 -119 11 -128 39 -128 45 0 74 110 41 154 -16 20 -65
56 -78 56 -4 0 -5 -37 -2 -82z"/>
<path d="M7457 11587 c-13 -14 -28 -41 -34 -60 -10 -34 -10 -35 19 -41 65 -13
114 -7 135 17 36 39 35 45 -4 71 -60 39 -88 42 -116 13z"/>
<path d="M7923 11340 c-13 -5 -23 -17 -23 -27 0 -22 29 -175 34 -181 2 -2 20
13 40 32 47 48 55 92 25 145 -23 42 -36 47 -76 31z"/>
<path d="M7464 10770 c-24 -9 -46 -41 -62 -87 -6 -18 -10 -33 -9 -33 1 -1 37
-3 79 -7 76 -5 77 -5 108 26 17 17 29 35 26 39 -8 14 -79 60 -101 65 -11 3
-29 2 -41 -3z"/>
<path d="M8367 10712 l-37 -37 49 -43 c80 -68 91 -70 150 -32 28 17 49 36 46
40 -7 11 -154 110 -164 110 -4 0 -24 -17 -44 -38z"/>
<path d="M7542 10373 c-36 -48 -39 -58 -29 -80 7 -16 16 -22 26 -17 9 3 47 17
85 30 38 13 71 25 73 27 2 2 -23 25 -55 50 l-59 46 -41 -56z"/>
<path d="M8178 10420 c-18 -11 -58 -71 -58 -87 0 -15 47 -33 86 -33 60 0 118
87 78 117 -21 15 -82 17 -106 3z"/>
<path d="M8461 9998 c-48 -59 -50 -63 -34 -80 9 -10 22 -17 29 -16 6 2 35 30
63 63 l51 60 -21 18 c-12 9 -25 17 -30 17 -4 0 -31 -28 -58 -62z"/>
<path d="M7915 9932 c-16 -10 -55 -68 -55 -80 0 -20 100 -84 139 -89 32 -4 43
-1 74 27 21 18 37 38 37 45 0 7 -30 34 -67 59 -64 43 -104 55 -128 38z"/>
<path d="M22550 10321 c-47 -16 -184 -67 -305 -113 -121 -47 -245 -94 -275
-105 -51 -19 -55 -22 -58 -56 -3 -34 -1 -36 35 -46 133 -37 142 -37 285 3 246
70 592 188 615 209 55 50 37 89 -53 117 -88 27 -142 25 -244 -9z"/>
</g>
</svg>
