<?xml version="1.0" standalone="no"?>
<!DOCTYPE svg PUBLIC "-//W3C//DTD SVG 20010904//EN"
 "http://www.w3.org/TR/2001/REC-SVG-20010904/DTD/svg10.dtd">
<svg version="1.0" xmlns="http://www.w3.org/2000/svg"
 width="360.000000pt" height="360.000000pt" viewBox="0 0 360.000000 360.000000"
 preserveAspectRatio="xMidYMid meet">

<g transform="translate(0.000000,360.000000) scale(0.100000,-0.100000)"
fill="#000000" stroke="none">
<path d="M1832 2950 c0 -14 2 -19 5 -12 2 6 2 18 0 25 -3 6 -5 1 -5 -13z"/>
<path d="M1860 2963 c0 -5 4 -14 9 -21 7 -11 9 -11 14 1 3 8 3 18 0 21 -9 8
-23 7 -23 -1z"/>
<path d="M1930 2927 c0 -10 -7 -32 -16 -49 -9 -17 -11 -27 -4 -23 6 4 20 -1
31 -11 18 -17 19 -16 19 17 -1 36 -29 100 -30 66z"/>
<path d="M1840 2830 c0 -11 4 -20 10 -20 5 0 14 9 20 20 9 17 8 20 -10 20 -13
0 -20 -7 -20 -20z"/>
<path d="M1855 2784 c-15 -19 -25 -38 -22 -41 3 -2 14 8 24 24 10 15 25 33 33
40 8 7 10 13 4 13 -7 0 -24 -16 -39 -36z"/>
<path d="M1886 2770 c-18 -17 -37 -41 -40 -55 -10 -40 -49 -43 -90 -7 -19 17
-32 33 -29 36 4 3 1 6 -5 6 -7 0 -12 -4 -12 -10 0 -5 -6 -10 -13 -10 -8 0 -20
-12 -27 -26 -12 -22 -12 -27 0 -34 8 -5 17 -5 20 0 3 5 17 -14 32 -41 27 -50
24 -63 -6 -30 -23 25 -64 35 -82 20 -7 -6 -21 -9 -29 -5 -27 10 -16 -19 16
-43 17 -13 32 -21 33 -19 2 1 7 11 12 20 8 15 12 14 41 -10 30 -25 31 -28 18
-52 l-14 -25 -1 26 c0 14 -6 33 -13 43 -12 16 -14 16 -27 -9 -8 -15 -27 -33
-42 -41 -34 -18 -36 -37 -5 -51 29 -13 141 -158 133 -172 -4 -5 9 -38 29 -74
19 -35 35 -72 35 -82 0 -9 13 -32 28 -50 16 -17 51 -66 78 -108 32 -51 58 -80
77 -86 32 -12 39 -46 7 -38 -19 5 -19 1 -14 -86 3 -51 14 -127 25 -169 23 -92
24 -141 5 -171 -24 -37 -59 -189 -46 -197 9 -6 9 -13 -1 -31 -7 -13 -12 -30
-10 -37 1 -8 -5 -22 -13 -31 -8 -9 -37 -62 -64 -116 -28 -55 -61 -116 -74
-135 -41 -60 -42 -66 -6 -32 30 28 36 31 53 18 11 -8 16 -19 12 -30 -8 -21 14
-44 66 -70 20 -11 48 -34 62 -52 29 -37 77 -70 120 -79 25 -6 22 -3 -14 16
-47 25 -61 56 -35 75 8 7 23 35 33 63 20 59 46 91 73 91 10 0 38 -9 61 -20
l42 -20 -44 38 c-42 36 -43 39 -23 44 12 4 20 3 17 -2 -2 -4 5 -16 17 -26 21
-19 21 -19 9 3 -6 12 -11 24 -11 26 0 7 43 -4 56 -14 5 -5 20 -6 32 -2 17 4
22 1 22 -13 1 -18 1 -18 11 -1 16 28 31 20 24 -12 -11 -51 38 -101 99 -101 26
0 66 38 66 63 0 21 -19 22 -26 2 -4 -8 -12 -15 -20 -15 -16 0 -19 16 -4 25 5
3 7 12 4 19 -3 8 6 19 25 27 35 16 31 29 -8 29 -33 0 -66 -25 -76 -57 -4 -17
1 -30 19 -48 21 -21 22 -25 8 -25 -50 0 -58 75 -13 121 26 25 37 29 86 29 75
0 70 23 -6 30 l-54 5 42 19 c30 13 42 25 46 44 5 25 4 25 -9 7 -14 -18 -14
-18 -14 4 0 21 -5 19 -52 -24 -28 -25 -65 -53 -82 -62 -42 -22 -151 -13 -264
22 -91 29 -91 29 -62 42 38 16 38 33 -1 56 -50 28 -29 29 48 2 44 -15 102 -26
154 -29 74 -4 77 -4 22 3 -34 4 -69 13 -77 20 -8 7 -20 10 -26 6 -15 -9 -97
41 -118 73 -9 14 -30 40 -47 55 -29 29 -29 29 -3 13 94 -56 277 -96 391 -86
31 3 57 3 57 1 0 -10 -57 -55 -84 -67 -17 -7 -24 -13 -16 -13 22 -1 91 34 121
61 34 29 100 120 128 177 25 49 39 49 22 0 -6 -18 -9 -35 -6 -37 3 -3 5 0 5 6
0 7 4 12 10 12 5 0 9 -3 9 -7 -3 -19 2 -33 11 -33 5 0 7 7 4 15 -4 9 -1 15 8
15 7 0 25 11 39 24 14 13 35 27 47 30 14 5 25 20 31 44 9 31 8 39 -11 59 l-21
23 24 0 c22 1 21 3 -11 20 l-35 19 50 -4 c45 -4 47 -4 23 7 -16 7 -28 15 -28
20 0 4 -13 8 -30 8 -38 0 -39 16 -2 23 20 4 28 12 28 26 0 12 -1 21 -2 21 -1
0 -18 -7 -37 -15 -49 -20 -56 -19 -63 10 -3 14 -10 25 -14 25 -5 0 -6 9 -3 20
4 16 2 19 -12 14 -15 -6 -17 -3 -11 20 10 39 -55 122 -102 132 -43 8 -49 1
-27 -32 16 -24 16 -26 1 -21 -15 6 -15 4 -1 -23 26 -49 21 -60 -22 -48 -31 8
-46 6 -92 -13 l-54 -22 -19 23 c-25 30 -19 44 21 48 45 5 33 27 -15 27 -29 0
-39 4 -42 18 -4 20 23 96 52 146 14 25 16 32 6 26 -10 -6 -10 -2 2 11 9 11 20
40 24 64 3 25 13 55 20 67 16 26 18 56 5 81 -5 9 -15 37 -21 62 -12 43 -13 44
-22 20 -10 -25 -10 -25 -31 15 -11 22 -24 58 -28 80 -6 34 -8 37 -14 18 -8
-26 -25 -31 -25 -7 0 9 -5 12 -12 8 -8 -5 -9 -2 -5 10 4 9 3 15 -1 12 -5 -3
-16 10 -26 28 -15 28 -51 56 -73 56 -3 0 10 -17 29 -37 38 -43 82 -112 76
-119 -3 -2 -19 18 -36 44 -46 72 -143 131 -212 131 -16 0 -2 -9 39 -24 63 -23
151 -94 151 -122 0 -18 -25 -5 -39 20 -13 24 -89 82 -97 74 -3 -2 11 -14 31
-25 19 -12 35 -27 35 -33 0 -7 -8 -5 -22 5 -74 54 -161 70 -218 41 -40 -21
-38 -10 3 15 35 22 33 25 -7 10 -30 -11 -36 3 -8 19 9 6 12 11 6 11 -5 0 -25
-11 -44 -25 -54 -40 -61 -17 -13 42 21 26 129 83 158 83 11 0 47 -12 80 -26
33 -13 80 -29 105 -34 72 -15 84 -18 102 -25 12 -5 18 1 23 24 4 17 11 28 16
25 6 -3 17 13 26 35 13 33 19 39 30 30 9 -9 13 -9 13 0 0 6 -5 11 -10 11 -6 0
-16 11 -22 25 -15 34 -29 32 -22 -3 7 -35 -25 -75 -76 -96 -45 -18 -114 -2
-162 38 -87 70 -105 79 -153 72 -25 -4 -45 -11 -45 -16 0 -15 -113 -75 -118
-62 -2 7 -8 10 -13 6 -5 -3 -9 0 -9 5 0 6 4 11 9 11 5 0 44 23 86 51 43 28 93
53 110 56 34 5 79 -12 70 -26 -7 -12 71 -80 111 -97 51 -21 82 -17 115 15 31
32 38 54 14 45 -11 -5 -13 -2 -9 10 3 9 1 23 -6 31 -8 10 -9 15 -2 15 6 0 16
-8 21 -17 10 -17 10 -17 11 -1 0 26 -37 43 -55 24 -19 -19 -19 -26 0 -26 13 0
12 -4 -4 -22 -15 -15 -24 -18 -33 -10 -9 7 -18 6 -32 -4 -17 -12 -21 -11 -35
9 -15 21 -17 25 -20 47 0 6 -8 10 -17 10 -8 0 -13 4 -9 10 3 5 -7 9 -22 9 -15
-1 -48 0 -72 1 -41 2 -43 4 -26 16 10 8 25 14 32 14 7 0 13 5 13 10 0 17 -8
13 -109 -55 -53 -36 -103 -65 -112 -65 -8 0 -24 6 -35 14 -17 13 -15 14 23 9
41 -5 46 -3 89 40 25 25 43 50 40 55 -3 6 1 15 9 22 8 7 15 16 15 21 0 17 -19
9 -54 -21z m214 -140 c21 -17 53 -37 72 -45 25 -11 28 -14 12 -15 -21 0 -102
49 -124 75 -20 25 0 17 40 -15z m-345 -6 c11 -17 13 -25 4 -22 -16 5 -44 48
-31 48 5 0 17 -12 27 -26z m195 -37 c-14 -8 -35 -19 -47 -26 -13 -6 -23 -9
-23 -6 0 9 64 45 80 45 8 0 4 -6 -10 -13z m-178 -134 c17 -15 25 -53 12 -53
-3 0 -19 11 -34 24 -21 17 -26 26 -17 35 14 14 17 14 39 -6z m268 -73 c27 -14
31 -20 19 -25 -8 -3 -28 -1 -43 5 -16 6 -50 8 -77 4 -34 -5 -49 -3 -49 5 0 32
98 39 150 11z m114 -234 c34 -26 93 -112 84 -122 -3 -2 -29 9 -59 24 -68 36
-178 72 -221 72 -28 0 -30 2 -18 14 55 54 152 60 214 12z m-88 -111 c-4 -10 1
-15 16 -15 17 0 18 -3 8 -15 -10 -12 -5 -17 25 -30 21 -8 43 -15 49 -16 6 0 2
-4 -9 -9 -19 -8 -18 -9 5 -11 18 -1 14 -4 -15 -9 l-40 -7 50 -2 c28 -1 61 -4
74 -8 19 -5 22 -3 16 8 -7 11 -5 11 11 -1 10 -8 22 -19 26 -25 11 -15 31 -13
51 3 16 14 16 13 6 -16 -18 -52 -65 -76 -89 -47 -10 12 -9 15 4 15 14 0 20 17
14 37 -4 10 -44 5 -101 -14 -29 -9 -62 -12 -82 -9 -22 5 -35 2 -38 -6 -3 -7
-6 -3 -6 9 -1 12 9 29 21 37 22 16 22 16 -14 16 -43 0 -58 16 -65 69 -5 37 -3
41 21 47 14 3 33 4 41 0 8 -3 15 -1 15 4 0 6 3 10 6 10 3 0 4 -7 0 -15z m8
-206 c-9 -11 -19 -17 -21 -15 -8 7 21 45 30 39 4 -3 1 -14 -9 -24z m194 -30
c-2 -6 -6 -9 -9 -7 -3 2 -13 -3 -22 -11 -15 -11 -17 -11 -17 2 0 15 14 25 38
26 8 1 12 -4 10 -10z m322 -150 c0 -5 5 -7 10 -4 13 8 13 -21 -1 -47 -10 -18
-9 -20 5 -15 11 4 16 1 16 -9 0 -10 6 -14 14 -11 8 3 22 -1 33 -8 12 -10 14
-14 4 -15 -11 0 -11 -3 -1 -15 10 -12 10 -19 2 -27 -13 -13 -48 13 -63 47 -9
18 -9 18 -5 -2 2 -13 3 -23 1 -23 -1 0 -24 21 -50 47 l-47 48 31 8 c17 4 31
14 31 22 0 8 5 15 10 15 6 0 10 -5 10 -11z m-103 -19 c9 0 14 -3 10 -6 -7 -8
27 -77 59 -120 13 -17 21 -33 18 -36 -3 -3 0 -9 7 -14 8 -5 10 -3 4 6 -5 8 -3
11 4 9 7 -3 12 -8 11 -13 -3 -14 23 -26 57 -26 17 0 35 -4 38 -10 13 -21 -89
-10 -135 14 -28 14 -71 25 -113 29 -38 4 -95 14 -128 23 -55 16 -59 18 -59 47
0 30 0 30 20 12 26 -24 83 -22 124 5 20 13 25 20 14 20 -36 0 -33 40 5 58 12
6 28 9 35 6 8 -2 21 -4 29 -4z m-303 -129 c3 -4 20 -11 38 -14 18 -3 47 -11
63 -18 32 -13 46 -15 145 -19 46 -2 83 -11 128 -32 57 -26 63 -32 60 -56 -3
-26 -5 -27 -67 -28 -44 -1 -108 9 -200 33 -206 51 -228 60 -235 89 -4 15 -2
32 5 40 13 15 55 19 63 5z m-215 -558 c1 -19 -41 -53 -66 -53 -13 0 -23 5 -23
10 0 6 11 10 24 10 14 0 32 7 40 16 22 22 20 27 -6 13 -22 -12 -22 -11 -5 8 9
11 17 26 18 34 0 16 17 -18 18 -38z m121 3 c0 -7 -11 -16 -25 -18 -28 -6 -30
-3 -12 17 16 18 37 19 37 1z m48 -14 c5 -32 -19 -65 -65 -91 l-38 -21 30 25
c17 14 33 25 36 25 3 0 10 16 16 35 9 29 8 37 -5 45 -15 9 -15 10 3 8 12 -2
21 -12 23 -26z m189 -8 c-3 -3 -12 -4 -19 -1 -8 3 -5 6 6 6 11 1 17 -2 13 -5z
m-277 -248 c0 -5 -9 -1 -20 9 -11 10 -20 28 -20 39 0 18 3 17 20 -9 11 -16 20
-34 20 -39z"/>
<path d="M1995 2020 c-3 -4 7 -10 20 -13 14 -2 28 -1 30 3 3 4 -7 10 -20 13
-14 2 -28 1 -30 -3z"/>
<path d="M2602 2653 c-11 -21 -6 -41 16 -65 16 -19 62 -25 62 -8 0 6 -7 10
-15 10 -15 0 -55 38 -55 52 0 4 12 8 26 8 14 0 23 4 19 10 -10 16 -44 11 -53
-7z"/>
<path d="M2495 2647 c-4 -10 -5 -21 -1 -24 10 -10 18 4 13 24 -4 17 -4 17 -12
0z"/>
<path d="M2536 2645 c-3 -9 -5 -33 -5 -53 2 -33 2 -32 9 13 8 53 6 66 -4 40z"/>
<path d="M2438 2565 c-3 -40 -28 -63 -28 -26 0 12 -4 21 -10 21 -5 0 -10 -11
-10 -24 0 -13 -7 -29 -15 -36 -8 -7 -15 -28 -15 -47 0 -34 24 -93 38 -93 4 0
15 -7 25 -14 16 -12 16 -17 6 -34 -10 -16 -10 -26 -1 -46 16 -35 89 -86 123
-86 38 0 79 20 79 38 0 10 -5 12 -17 6 -10 -4 -36 -9 -58 -12 -38 -3 -41 -2
-53 32 -9 25 -17 33 -28 29 -12 -4 -15 0 -12 18 2 16 16 30 42 43 32 15 36 20
22 28 -9 5 -16 15 -16 21 0 8 -13 11 -39 9 -21 -2 -42 1 -45 7 -5 7 2 11 16
12 18 1 16 3 -10 10 -18 6 -36 17 -39 25 -5 13 -7 13 -14 2 -6 -9 -9 -8 -9 8
0 26 18 44 47 44 14 0 23 6 23 15 0 18 11 19 29 3 11 -11 13 -7 7 22 -4 19
-13 41 -21 49 -12 12 -14 9 -17 -24z"/>
<path d="M2261 2559 c-36 -19 -47 -29 -33 -29 30 0 66 18 80 41 7 10 11 18 10
18 -2 -1 -27 -15 -57 -30z"/>
<path d="M2511 2543 c7 -10 15 -20 16 -22 2 -2 3 3 3 11 0 9 -7 19 -16 22 -15
6 -15 4 -3 -11z"/>
<path d="M2633 2538 c-26 -33 -24 -40 5 -19 18 12 32 24 32 27 0 9 -28 3 -37
-8z"/>
<path d="M1498 2493 c6 -2 18 -2 25 0 6 3 1 5 -13 5 -14 0 -19 -2 -12 -5z"/>
<path d="M2641 2474 c-40 -51 -20 -153 37 -186 34 -19 102 -32 102 -19 0 5 9
12 19 16 11 3 22 13 26 22 5 15 4 15 -13 0 -10 -9 -22 -14 -25 -11 -4 4 -12 2
-19 -4 -18 -14 -72 9 -91 40 -23 36 -30 108 -13 141 19 34 4 35 -23 1z"/>
<path d="M2716 2469 c-37 -44 -34 -99 6 -113 37 -13 42 -5 22 37 -14 29 -15
41 -5 68 15 44 9 46 -23 8z"/>
<path d="M2845 2480 c-6 -10 33 -55 41 -47 3 3 2 16 -2 31 -6 26 -27 35 -39
16z"/>
<path d="M1930 2470 c-13 -9 -13 -10 0 -10 8 0 22 5 30 10 13 9 13 10 0 10 -8
0 -22 -5 -30 -10z"/>
<path d="M2796 2464 c-17 -44 5 -114 36 -114 10 0 18 -4 18 -10 0 -5 8 -10 18
-10 10 0 28 -11 40 -24 18 -21 30 -25 79 -25 32 0 70 -4 84 -9 27 -11 79 -66
79 -84 0 -6 2 -9 5 -6 10 10 -27 88 -46 98 -10 6 -34 10 -55 10 -21 0 -35 2
-32 5 3 3 42 6 86 7 75 0 81 2 72 19 -17 31 -49 32 -146 8 -79 -20 -95 -21
-109 -9 -9 7 -14 22 -12 32 6 20 -19 51 -34 42 -5 -3 -12 2 -15 11 -4 9 -12
14 -19 11 -14 -5 -25 14 -25 45 0 23 -15 25 -24 3z"/>
<path d="M2425 2450 c3 -5 10 -10 16 -10 5 0 9 5 9 10 0 6 -7 10 -16 10 -8 0
-12 -4 -9 -10z"/>
<path d="M3114 2445 c-4 -9 -5 -17 -3 -19 87 -66 103 -75 116 -65 11 10 11 15
0 33 -31 46 -103 79 -113 51z"/>
<path d="M2018 2433 c7 -3 16 -2 19 1 4 3 -2 6 -13 5 -11 0 -14 -3 -6 -6z"/>
<path d="M3264 2392 c-10 -7 -25 -72 -17 -72 16 0 43 24 43 38 0 25 -14 42
-26 34z"/>
<path d="M1237 2318 c-28 -38 -50 -78 -45 -83 2 -2 20 23 40 56 41 65 43 78 5
27z"/>
<path d="M2584 2320 c1 -23 10 -35 34 -50 17 -11 32 -27 32 -36 0 -8 5 -14 12
-12 23 8 19 27 -12 44 -17 10 -36 33 -42 51 -15 41 -26 42 -24 3z"/>
<path d="M1486 2315 c4 -10 0 -15 -12 -16 -11 0 6 -6 36 -13 31 -6 70 -22 87
-34 35 -25 53 -28 53 -9 0 13 -134 87 -157 87 -7 0 -10 -7 -7 -15z"/>
<path d="M2531 2280 c-1 -31 16 -50 44 -50 18 0 18 2 -7 23 -14 12 -28 29 -31
37 -3 9 -6 4 -6 -10z"/>
<path d="M3142 2271 c13 -15 24 -27 26 -26 6 5 -23 45 -36 50 -7 3 -3 -8 10
-24z"/>
<path d="M1318 2212 c-38 -42 -55 -100 -38 -131 13 -25 13 -44 0 -36 -5 3 -7
0 -4 -9 7 -18 31 -9 114 43 55 35 157 74 224 87 20 3 39 11 42 16 4 6 -4 8
-22 4 -16 -3 -83 -10 -149 -17 -66 -6 -128 -15 -138 -21 -10 -5 -21 -7 -24 -4
-9 8 24 54 52 72 32 21 32 34 1 34 -15 0 -37 -14 -58 -38z"/>
<path d="M492 2211 c-16 -46 -15 -60 10 -126 l21 -57 18 23 c9 12 25 36 34 52
17 28 17 29 -3 18 -11 -6 -23 -11 -26 -11 -6 0 -35 80 -38 110 -3 23 -4 23
-16 -9z"/>
<path d="M1248 2198 c-19 -18 -43 -54 -52 -80 -17 -43 -17 -50 -2 -100 8 -30
32 -76 51 -101 34 -44 39 -47 83 -47 45 0 46 0 24 16 -13 9 -33 37 -46 62 -13
26 -33 66 -45 89 -27 54 -27 70 5 133 14 28 24 54 21 56 -2 3 -20 -10 -39 -28z"/>
<path d="M3016 2222 c5 -4 26 -23 47 -41 29 -27 37 -31 37 -18 0 25 -45 67
-72 67 -12 0 -18 -3 -12 -8z"/>
<path d="M3211 2205 c-2 -36 -21 -72 -21 -41 0 11 -3 17 -6 13 -3 -3 -3 -20 1
-37 8 -37 44 -64 71 -53 15 6 12 9 -15 13 -19 3 -37 12 -39 20 -5 13 -3 13 11
1 10 -8 27 -11 42 -7 29 7 34 26 6 26 -25 0 -39 18 -44 60 -4 33 -4 33 -6 5z"/>
<path d="M2846 2202 c-3 -5 18 -7 47 -5 75 6 81 11 15 12 -31 1 -59 -3 -62 -7z"/>
<path d="M2715 2180 c-10 -11 -13 -20 -7 -20 6 0 16 9 22 20 6 11 9 20 7 20
-2 0 -12 -9 -22 -20z"/>
<path d="M2930 2161 c30 -3 66 -13 80 -20 24 -13 24 -13 8 5 -13 13 -35 18
-80 20 l-63 2 55 -7z"/>
<path d="M684 2136 c-28 -13 -54 -28 -57 -33 -3 -5 17 2 46 16 41 21 66 26
127 26 64 0 85 -5 144 -33 66 -31 88 -54 32 -32 -45 17 -89 11 -146 -17 -68
-35 -78 -57 -24 -49 30 4 33 4 14 -3 -14 -5 -18 -10 -10 -10 9 -1 1 -10 -18
-22 -41 -27 -36 -34 15 -20 47 13 110 14 117 2 4 -5 -13 -18 -36 -30 -24 -11
-86 -63 -138 -116 -96 -97 -108 -122 -29 -61 60 45 144 91 205 110 28 9 59 23
70 30 16 12 16 16 5 30 -8 9 -11 19 -7 23 14 14 29 -18 33 -69 3 -29 11 -67
19 -85 8 -17 14 -60 14 -96 0 -78 22 -117 56 -99 10 7 37 18 58 27 38 15 41
15 60 -5 l21 -21 -30 -26 -30 -25 50 6 c37 4 45 3 30 -4 -16 -8 -13 -9 15 -5
20 3 46 17 60 32 18 19 20 23 5 14 -11 -8 -3 3 17 23 l38 36 -38 2 c-20 0 -42
1 -48 1 -20 -1 -10 47 11 53 11 4 39 20 63 37 44 32 55 64 28 86 -11 9 -12 6
-8 -16 5 -25 4 -26 -18 -10 -20 14 -27 14 -63 1 -23 -8 -45 -22 -50 -30 -5 -9
-29 -24 -53 -34 -35 -15 -50 -17 -74 -9 -16 6 -30 15 -30 20 0 17 5 24 14 21
16 -5 96 33 96 46 0 19 -38 14 -71 -10 -39 -29 -49 -16 -49 67 -1 81 -26 134
-97 201 -67 63 -123 84 -222 84 -48 0 -80 -7 -117 -24z m404 -452 c-7 -15 -14
-21 -16 -15 -2 7 2 18 8 26 18 22 21 18 8 -11z"/>
<path d="M2714 2137 c-50 -26 -113 -77 -98 -77 6 0 17 7 25 16 7 8 33 26 58
39 25 13 53 29 61 34 27 19 -4 11 -46 -12z"/>
<path d="M2745 2120 c-16 -11 -25 -20 -19 -20 11 0 64 39 54 40 -3 0 -18 -9
-35 -20z"/>
<path d="M2728 2084 c-46 -26 -148 -115 -148 -129 0 -5 9 0 20 10 12 11 20 13
20 6 0 -7 5 -9 11 -5 6 3 3 -6 -6 -20 -26 -39 -10 -49 55 -35 91 19 201 -5
264 -60 18 -15 18 -15 11 19 -4 19 -16 52 -27 73 -33 66 -126 93 -213 61 -11
-4 -17 -4 -13 1 4 4 31 14 60 21 l53 14 -45 -5 -45 -5 43 22 c23 11 41 23 38
25 -2 3 -33 -9 -68 -25 -59 -29 -61 -29 -33 -6 17 14 46 34 65 44 19 11 28 19
20 19 -8 0 -36 -11 -62 -25z"/>
<path d="M3170 2102 c0 -18 38 -52 58 -52 10 0 26 6 37 13 16 13 15 14 -14 9
-24 -3 -38 1 -57 19 -13 12 -24 17 -24 11z"/>
<path d="M446 2054 c5 -27 3 -35 -11 -41 -12 -4 -23 0 -31 12 -22 30 -18 -4 6
-50 17 -34 18 -45 9 -75 -16 -50 -17 -50 -45 -38 -17 8 -23 17 -18 30 7 23
-24 37 -37 17 -13 -20 52 -79 89 -79 25 0 27 -3 27 -40 0 -49 -15 -52 -70 -15
-39 27 -52 27 -41 0 9 -24 75 -48 118 -42 53 7 47 -10 -9 -27 l-48 -15 63 0
c35 -1 62 -5 62 -11 0 -6 -15 -8 -39 -4 -24 4 -41 2 -45 -5 -5 -7 2 -11 18
-11 24 0 56 -23 56 -40 0 -5 -7 -7 -15 -4 -11 4 -13 2 -10 -9 4 -8 -1 -21 -9
-30 -13 -13 -13 -17 -2 -26 8 -7 20 -10 27 -9 9 2 14 -7 14 -27 0 -25 5 -31
30 -36 l30 -7 -28 -1 c-19 -1 -37 9 -58 32 -17 17 -27 25 -23 17 5 -9 -1 -8
-16 5 l-23 20 8 -25 c5 -14 8 -33 7 -43 -1 -13 15 -25 52 -42 53 -23 66 -44
43 -73 -7 -9 -7 -16 1 -24 9 -9 12 -8 12 5 0 22 15 22 38 -1 10 -10 27 -22 36
-25 14 -6 17 -4 11 10 -8 21 -27 110 -45 207 -7 38 -26 105 -42 150 -34 93
-47 216 -29 267 9 26 8 35 -3 48 -8 9 -18 31 -23 50 -5 21 -16 35 -26 37 -15
2 -17 -3 -11 -32z"/>
<path d="M584 2068 l-19 -23 23 19 c21 18 27 26 19 26 -2 0 -12 -10 -23 -22z"/>
<path d="M1389 2054 c-30 -20 -64 -36 -77 -36 -18 0 -20 -3 -11 -14 15 -18 71
-28 112 -20 33 6 126 59 95 54 -9 -2 -16 -1 -16 2 3 13 -24 50 -36 50 -8 0
-38 -16 -67 -36z"/>
<path d="M2938 2027 c23 -26 42 -50 43 -54 0 -5 8 -39 18 -78 l18 -70 10 35
c10 36 9 40 -21 100 -12 23 -14 36 -7 38 6 2 -1 13 -15 25 -25 19 -26 21 -8
28 15 6 12 8 -13 8 -17 1 -40 4 -50 8 -10 4 0 -13 25 -40z"/>
<path d="M3159 2021 c-7 -20 -25 -63 -41 -96 l-29 -60 43 47 c31 35 57 52 96
64 28 10 52 20 51 23 0 3 -24 18 -54 32 l-55 26 -11 -36z"/>
<path d="M575 2013 c-19 -20 -40 -54 -46 -77 -14 -53 -3 -162 22 -202 10 -17
19 -37 19 -44 0 -8 8 -30 18 -50 l17 -37 82 44 c46 24 115 55 155 69 122 44
178 96 178 165 0 21 -1 21 -12 6 -7 -10 -48 -30 -90 -46 -100 -37 -150 -67
-218 -130 -44 -41 -61 -51 -85 -49 -29 3 -30 5 -30 53 0 44 3 50 23 53 13 2
22 -2 22 -9 0 -29 19 9 29 60 14 64 40 111 84 147 18 14 22 21 11 15 -26 -12
-82 -75 -96 -107 -6 -13 -15 -24 -20 -24 -9 0 0 71 13 108 12 30 11 32 -5 32
-36 0 -89 -67 -107 -135 -6 -21 -7 -15 -3 20 7 56 30 107 69 148 14 15 21 27
16 27 -6 0 -26 -16 -46 -37z"/>
<path d="M3210 1950 c-19 -11 -31 -19 -27 -20 11 0 67 29 67 35 0 7 -1 7 -40
-15z"/>
<path d="M1660 1905 c-98 -14 -200 -42 -200 -54 0 -16 25 -28 122 -60 54 -18
110 -31 125 -29 22 3 8 11 -70 42 -55 22 -96 43 -94 50 5 16 90 25 185 19 56
-4 82 -2 82 5 0 13 -40 42 -55 41 -5 -1 -48 -7 -95 -14z"/>
<path d="M267 1904 c-13 -13 -7 -24 14 -24 11 0 19 5 17 12 -5 14 -22 21 -31
12z"/>
<path d="M2645 1890 c-8 -13 85 -13 105 0 11 7 -1 10 -42 10 -31 0 -60 -4 -63
-10z"/>
<path d="M1666 1831 c-8 -12 119 -79 130 -68 11 10 -3 35 -29 52 -32 21 -92
31 -101 16z"/>
<path d="M3102 1828 c-7 -7 -12 -18 -12 -26 0 -8 -6 -12 -14 -9 -8 3 -21 -7
-32 -29 -16 -30 -17 -39 -6 -81 7 -26 18 -53 24 -60 12 -15 68 -18 68 -3 0 6
-6 10 -14 10 -19 0 -46 28 -46 47 0 11 6 7 21 -11 24 -30 54 -33 89 -9 l24 17
-24 6 c-22 5 -24 10 -22 45 2 22 11 46 20 53 14 10 13 12 -10 12 -17 0 -34
-10 -47 -26 l-21 -27 0 25 c0 27 16 50 45 66 19 11 19 11 -5 12 -15 0 -31 -5
-38 -12z"/>
<path d="M2640 1806 c0 -2 7 -7 16 -10 8 -3 12 -2 9 4 -6 10 -25 14 -25 6z"/>
<path d="M671 1784 c0 -11 3 -14 6 -6 3 7 2 16 -1 19 -3 4 -6 -2 -5 -13z"/>
<path d="M2715 1742 c31 -34 83 -67 92 -58 3 2 -10 12 -29 21 -18 10 -46 29
-63 44 l-30 26 30 -33z"/>
<path d="M3187 1735 c-9 -22 8 -26 21 -4 10 15 10 19 -2 19 -8 0 -16 -7 -19
-15z"/>
<path d="M1726 1721 c-4 -5 3 -7 14 -4 23 6 26 13 6 13 -8 0 -17 -4 -20 -9z"/>
<path d="M1780 1711 c0 -18 64 -113 85 -127 38 -25 65 -11 65 36 0 60 -14 88
-42 83 -13 -2 -42 0 -65 5 -24 6 -43 7 -43 3z"/>
<path d="M1705 1673 c-22 -15 -56 -37 -76 -50 -19 -13 -44 -23 -55 -23 -43 0
-127 -29 -182 -63 -32 -19 -71 -39 -87 -43 -51 -12 -125 -53 -170 -95 -23 -21
-47 -39 -52 -39 -6 0 -30 -9 -54 -19 -67 -29 -101 -36 -57 -11 43 23 101 79
119 112 7 14 -7 6 -37 -23 -27 -25 -62 -54 -77 -64 -32 -20 -51 -12 -21 9 15
12 17 17 7 27 -20 20 -16 40 32 139 25 51 45 102 43 113 -3 17 -9 15 -64 -22
-34 -22 -102 -79 -152 -126 -70 -66 -96 -85 -119 -85 -37 0 -53 16 -53 54 0
49 -12 106 -22 106 -40 0 -4 -124 52 -174 61 -55 56 -58 188 92 58 66 92 89
92 61 0 -6 -13 -41 -29 -77 -16 -37 -32 -82 -36 -101 -6 -29 -5 -33 9 -28 13
5 16 0 16 -25 0 -17 -3 -29 -6 -25 -9 9 -64 -102 -64 -129 0 -62 242 -255 425
-340 120 -56 240 -57 345 -3 58 29 11 36 -58 8 -44 -19 -76 -24 -142 -24 -102
0 -151 20 -302 121 -120 81 -193 156 -183 187 4 12 9 39 12 60 3 20 8 37 12
37 3 0 42 -36 86 -81 169 -169 224 -195 387 -180 119 11 205 49 188 81 -13 25
-24 25 -58 0 -41 -30 -208 -73 -255 -66 -51 8 -97 33 -97 51 0 8 -5 15 -10 15
-13 0 -242 221 -236 228 3 2 33 -20 66 -51 33 -30 87 -69 119 -86 50 -26 70
-31 127 -31 93 0 186 24 239 60 62 42 170 156 199 209 13 26 29 73 35 105 12
68 15 236 4 235 -5 0 -26 -12 -48 -26z m-51 -119 c39 -38 10 -66 -84 -79 -24
-3 -60 -16 -80 -28 -52 -32 -125 -65 -184 -82 -30 -9 -74 -33 -106 -60 -61
-50 -65 -52 -74 -29 -11 29 -6 41 35 88 40 45 84 73 162 101 20 8 54 28 75 44
50 41 105 59 179 60 43 1 66 -4 77 -15z m-44 -244 c0 -9 -51 -40 -66 -40 -4 0
3 11 16 25 24 25 50 33 50 15z m0 -55 c-19 -20 -40 -33 -47 -31 -7 3 -13 -1
-13 -9 0 -9 -25 -26 -57 -41 -32 -14 -65 -30 -74 -34 -10 -5 -21 -4 -29 3 -10
9 -12 8 -7 -5 7 -21 -9 -26 -88 -27 l-60 0 69 34 c66 33 100 55 63 42 -11 -4
-31 -10 -45 -13 -21 -5 -24 -4 -16 6 7 6 29 13 50 14 22 2 61 13 87 25 27 11
61 24 75 27 15 4 32 11 39 16 11 9 58 25 77 27 6 1 -5 -15 -24 -34z"/>
<path d="M1782 1625 c0 -16 2 -22 5 -12 2 9 2 23 0 30 -3 6 -5 -1 -5 -18z"/>
<path d="M1794 1455 c0 -66 1 -92 3 -57 2 34 2 88 0 120 -2 31 -3 3 -3 -63z"/>
<path d="M3049 1558 c7 -10 25 -17 40 -17 l26 2 -25 4 c-14 3 -32 10 -40 16
-13 11 -13 10 -1 -5z"/>
<path d="M2960 1405 c-26 -27 -21 -51 12 -64 20 -8 21 -10 5 -16 -10 -4 -27
-1 -42 9 -15 10 -26 12 -30 6 -6 -10 34 -30 59 -30 21 0 49 26 51 46 0 11 5
26 10 34 5 9 0 7 -13 -4 -26 -23 -38 -16 -23 13 16 30 -3 34 -29 6z"/>
<path d="M3065 1391 c-28 -6 -29 -8 -26 -56 3 -51 10 -70 18 -48 3 10 9 10 23
1 29 -18 36 -1 9 21 -13 11 -19 20 -12 21 6 0 15 -4 18 -10 3 -5 10 -10 16
-10 13 0 11 37 -2 46 -8 5 -8 8 0 14 20 12 -11 27 -44 21z"/>
<path d="M2865 1310 c-3 -5 2 -10 12 -11 10 0 5 -5 -12 -10 -16 -5 -36 -7 -44
-4 -17 7 -103 -48 -135 -86 -35 -41 -53 -98 -35 -111 11 -7 11 -11 2 -15 -18
-7 -16 -49 4 -68 29 -30 64 -38 84 -19 11 10 19 14 19 9 0 -4 7 -2 15 5 21 18
19 27 -10 37 l-26 8 21 22 c24 27 25 33 4 33 -9 0 -12 5 -8 11 4 7 -8 3 -25
-7 -31 -18 -33 -21 -27 -64 l6 -45 -26 29 c-16 18 -23 34 -18 45 4 9 6 25 6
35 -2 42 52 108 114 139 68 35 115 46 145 35 46 -16 46 -2 0 21 -45 24 -57 25
-66 11z"/>
<path d="M2855 1249 c-16 -4 -23 -8 -15 -9 8 -1 -3 -6 -24 -11 -41 -10 -106
-53 -106 -70 0 -5 18 4 40 20 36 26 109 54 165 64 17 2 16 4 -5 8 -14 3 -38 2
-55 -2z"/>
<path d="M1529 1125 c-39 -29 -136 -61 -224 -74 -36 -5 -47 -9 -28 -10 44 -1
167 26 217 48 23 10 50 28 60 40 25 28 18 27 -25 -4z"/>
<path d="M1544 1081 c-18 -11 -59 -27 -93 -37 -87 -24 -90 -39 -7 -31 69 7
116 30 136 68 13 24 3 24 -36 0z"/>
<path d="M2144 796 c-36 -36 -44 -78 -24 -117 13 -24 66 -52 88 -46 10 2 2 8
-22 15 -44 13 -65 36 -66 72 0 40 35 88 72 99 27 7 29 9 10 10 -15 1 -37 -12
-58 -33z"/>
<path d="M2158 778 c-28 -23 -31 -54 -6 -82 29 -32 67 -41 93 -22 20 15 20 15
-3 9 -30 -7 -52 13 -52 48 0 25 5 30 30 35 16 4 27 10 24 15 -8 13 -68 11 -86
-3z"/>
<path d="M2214 736 c-8 -22 -2 -27 16 -16 12 7 12 12 3 21 -10 10 -14 9 -19
-5z"/>
<path d="M1290 730 c8 -5 20 -10 25 -10 6 0 3 5 -5 10 -8 5 -19 10 -25 10 -5
0 -3 -5 5 -10z"/>
<path d="M2320 722 c0 -5 7 -12 15 -16 22 -8 18 -24 -7 -29 -13 -2 2 -5 32 -6
48 -1 52 0 35 12 -56 39 -75 48 -75 39z"/>
<path d="M2478 723 c7 -3 16 -2 19 1 4 3 -2 6 -13 5 -11 0 -14 -3 -6 -6z"/>
<path d="M1620 709 c-14 -6 -63 -14 -110 -19 l-85 -8 85 2 c52 1 98 8 120 18
38 18 30 23 -10 7z"/>
<path d="M2275 710 c-3 -5 -2 -10 4 -10 5 0 13 5 16 10 3 6 2 10 -4 10 -5 0
-13 -4 -16 -10z"/>
<path d="M1398 693 c7 -3 16 -2 19 1 4 3 -2 6 -13 5 -11 0 -14 -3 -6 -6z"/>
</g>
</svg>
