<?xml version="1.0" encoding="UTF-8" standalone="no"?>
<svg
   height="256"
   width="256"
   version="1.1"
   id="svg16166"
   sodipodi:docname="Openstreetmap_logo.svg"
   inkscape:version="1.2.2 (732a01da63, 2022-12-09)"
   xmlns:inkscape="http://www.inkscape.org/namespaces/inkscape"
   xmlns:sodipodi="http://sodipodi.sourceforge.net/DTD/sodipodi-0.dtd"
   xmlns:xlink="http://www.w3.org/1999/xlink"
   xmlns="http://www.w3.org/2000/svg"
   xmlns:svg="http://www.w3.org/2000/svg">
  <sodipodi:namedview
     id="namedview16168"
     pagecolor="#ffffff"
     bordercolor="#111111"
     borderopacity="1"
     inkscape:showpageshadow="0"
     inkscape:pageopacity="0"
     inkscape:pagecheckerboard="1"
     inkscape:deskcolor="#d1d1d1"
     showgrid="false"
     inkscape:zoom="1.9966906"
     inkscape:cx="129.21381"
     inkscape:cy="161.76768"
     inkscape:window-width="1920"
     inkscape:window-height="1009"
     inkscape:window-x="-8"
     inkscape:window-y="-8"
     inkscape:window-maximized="1"
     inkscape:current-layer="svg16166" />
  <defs
     id="defs15946">
    <linearGradient
       id="c">
      <stop
         stop-color="#2d3335"
         offset="0"
         id="stop15744" />
      <stop
         stop-color="#4c464a"
         offset=".5"
         id="stop15746" />
      <stop
         stop-color="#384042"
         offset="1"
         id="stop15748" />
    </linearGradient>
    <linearGradient
       id="a">
      <stop
         offset="0"
         id="stop15751" />
      <stop
         stop-opacity="0"
         offset="1"
         id="stop15753" />
    </linearGradient>
    <linearGradient
       id="u"
       y2="-179.97"
       xlink:href="#a"
       gradientUnits="userSpaceOnUse"
       x2="9"
       y1="-94.672"
       x1="94.25" />
    <linearGradient
       id="v"
       y2="-30.438"
       xlink:href="#a"
       gradientUnits="userSpaceOnUse"
       x2="35.75"
       y1="-114.44"
       x1="50.75" />
    <linearGradient
       id="w"
       y2="-74.625"
       xlink:href="#a"
       gradientUnits="userSpaceOnUse"
       x2="115.25"
       y1="-163.12"
       x1="77.625" />
    <linearGradient
       id="x"
       y2="7.063"
       xlink:href="#a"
       gradientUnits="userSpaceOnUse"
       x2="125.72"
       y1="-50.438"
       x1="56.5" />
    <linearGradient
       id="y"
       y2="-146.8"
       xlink:href="#a"
       gradientUnits="userSpaceOnUse"
       x2="180.75"
       y1="-163.3"
       x1="35" />
    <linearGradient
       id="z"
       y2="-41.609"
       xlink:href="#a"
       gradientUnits="userSpaceOnUse"
       x2="179"
       y1="-141.11"
       x1="57" />
    <linearGradient
       id="A"
       y2="39.75"
       xlink:href="#a"
       gradientUnits="userSpaceOnUse"
       x2="208.25"
       y1="-26.5"
       x1="156" />
    <linearGradient
       id="B"
       y2="-77.297"
       xlink:href="#a"
       gradientUnits="userSpaceOnUse"
       x2="235"
       y1="-169.3"
       x1="142.75" />
    <linearGradient
       id="m"
       y2="-113.72"
       xlink:href="#b"
       gradientUnits="userSpaceOnUse"
       x2="166.5"
       y1="-161.36"
       x1="214.25" />
    <linearGradient
       id="b">
      <stop
         stop-color="#fff"
         offset="0"
         id="stop15765" />
      <stop
         stop-color="#fff"
         stop-opacity="0"
         offset="1"
         id="stop15767" />
    </linearGradient>
    <linearGradient
       id="n"
       y2="-62.469"
       xlink:href="#b"
       gradientUnits="userSpaceOnUse"
       x2="57.656"
       y1="-126.5"
       x1="53.25" />
    <linearGradient
       id="o"
       y2="-17.125"
       xlink:href="#b"
       gradientUnits="userSpaceOnUse"
       x2="75.719"
       y1="6.625"
       x1="39.5" />
    <linearGradient
       id="p"
       y2="-121.44"
       xlink:href="#b"
       gradientUnits="userSpaceOnUse"
       x2="85.312"
       y1="-162.34"
       x1="102" />
    <linearGradient
       id="q"
       y2="-14.75"
       xlink:href="#b"
       gradientUnits="userSpaceOnUse"
       x2="63.5"
       y1="-78.094"
       x1="117.75" />
    <linearGradient
       id="r"
       y2="-60.75"
       xlink:href="#b"
       gradientUnits="userSpaceOnUse"
       x2="133.94"
       y1="-125.12"
       x1="180.69" />
    <linearGradient
       id="s"
       y2="33.375"
       xlink:href="#b"
       gradientUnits="userSpaceOnUse"
       x2="130.22"
       y1="-23.5"
       x1="170.75" />
    <linearGradient
       id="t"
       y2="-5.656"
       xlink:href="#b"
       gradientUnits="userSpaceOnUse"
       y1="-76"
       x2="181.75"
       x1="213.5" />
    <linearGradient
       id="l"
       y2="-213.25"
       xlink:href="#a"
       gradientUnits="userSpaceOnUse"
       x2="9"
       gradientTransform="translate(0 -10)"
       y1="72.064"
       x1="210.17" />
    <linearGradient
       id="M"
       y2="150.38"
       xlink:href="#c"
       gradientUnits="userSpaceOnUse"
       x2="133"
       gradientTransform="matrix(-1 0 0 1 46 0)"
       y1="150.38"
       x1="123" />
    <linearGradient
       id="L"
       y2="143.36"
       xlink:href="#c"
       gradientUnits="userSpaceOnUse"
       x2="130.88"
       gradientTransform="translate(-210)"
       y1="134.36"
       x1="128" />
    <linearGradient
       id="O"
       y2="150.38"
       gradientUnits="userSpaceOnUse"
       y1="150.38"
       gradientTransform="matrix(-2 0 0 1.7699 174 -86.65)"
       x2="133"
       x1="123">
      <stop
         stop-color="#2d3335"
         offset="0"
         id="stop15780" />
      <stop
         stop-color="#4c464a"
         offset=".5"
         id="stop15782" />
      <stop
         stop-color="#384042"
         offset="1"
         id="stop15784" />
    </linearGradient>
    <linearGradient
       id="N"
       y2="186.5"
       gradientUnits="userSpaceOnUse"
       x2="136"
       gradientTransform="translate(-210)"
       y1="186.5"
       x1="120">
      <stop
         stop-color="#f9e295"
         offset="0"
         id="stop15787" />
      <stop
         stop-color="#f7dd84"
         offset=".125"
         id="stop15789" />
      <stop
         stop-color="#fff"
         offset=".206"
         id="stop15791" />
      <stop
         stop-color="#f4ce51"
         offset=".301"
         id="stop15793" />
      <stop
         stop-color="#f9e7aa"
         offset=".341"
         id="stop15795" />
      <stop
         stop-color="#efbb0e"
         offset="1"
         id="stop15797" />
    </linearGradient>
    <linearGradient
       id="P"
       y2="186.5"
       gradientUnits="userSpaceOnUse"
       y1="186.5"
       gradientTransform="translate(-210 67)"
       x2="136"
       x1="120">
      <stop
         stop-color="#f9e295"
         offset="0"
         id="stop15800" />
      <stop
         stop-color="#f7dd84"
         offset=".125"
         id="stop15802" />
      <stop
         stop-color="#fff"
         offset=".206"
         id="stop15804" />
      <stop
         stop-color="#f4ce51"
         offset=".301"
         id="stop15806" />
      <stop
         stop-color="#f9e7aa"
         offset=".341"
         id="stop15808" />
      <stop
         stop-color="#efbb0e"
         offset="1"
         id="stop15810" />
    </linearGradient>
    <linearGradient
       id="J"
       y2="186.5"
       gradientUnits="userSpaceOnUse"
       x2="136"
       gradientTransform="rotate(45 104.976 51.258) scale(1.39197)"
       y1="186.5"
       x1="120">
      <stop
         stop-color="#f9e295"
         offset="0"
         id="stop15813" />
      <stop
         stop-color="#f7dd84"
         offset=".125"
         id="stop15815" />
      <stop
         stop-color="#fff"
         offset=".206"
         id="stop15817" />
      <stop
         stop-color="#f4ce51"
         offset=".301"
         id="stop15819" />
      <stop
         stop-color="#f9e7aa"
         offset=".341"
         id="stop15821" />
      <stop
         stop-color="#efbb0e"
         offset="1"
         id="stop15823" />
    </linearGradient>
    <linearGradient
       id="U"
       y2="150.38"
       gradientUnits="userSpaceOnUse"
       x2="133"
       gradientTransform="rotate(-135 332.789 -39.72) scale(2.7839 -2.4637)"
       y1="150.38"
       x1="123">
      <stop
         stop-color="#2d3335"
         offset="0"
         id="stop15826" />
      <stop
         stop-color="#4c464a"
         offset=".5"
         id="stop15828" />
      <stop
         stop-color="#384042"
         offset="1"
         id="stop15830" />
    </linearGradient>
    <linearGradient
       id="T"
       y2="186.5"
       gradientUnits="userSpaceOnUse"
       x2="136"
       gradientTransform="rotate(45 217.552 97.892) scale(1.39197)"
       y1="186.5"
       x1="120">
      <stop
         stop-color="#f9e295"
         offset="0"
         id="stop15833" />
      <stop
         stop-color="#f7dd84"
         offset=".125"
         id="stop15835" />
      <stop
         stop-color="#fff"
         offset=".206"
         id="stop15837" />
      <stop
         stop-color="#f4ce51"
         offset=".301"
         id="stop15839" />
      <stop
         stop-color="#f9e7aa"
         offset=".341"
         id="stop15841" />
      <stop
         stop-color="#efbb0e"
         offset="1"
         id="stop15843" />
    </linearGradient>
    <linearGradient
       id="S"
       y2="150.38"
       xlink:href="#c"
       gradientUnits="userSpaceOnUse"
       x2="133"
       gradientTransform="scale(-1.39197 1.39197) rotate(-45 -28.292 379.342)"
       y1="150.38"
       x1="123" />
    <linearGradient
       id="R"
       y2="143.36"
       xlink:href="#c"
       gradientUnits="userSpaceOnUse"
       x2="130.88"
       gradientTransform="rotate(45 217.552 97.892) scale(1.39197)"
       y1="134.36"
       x1="128" />
    <linearGradient
       id="V"
       y2="150.38"
       xlink:href="#a"
       gradientUnits="userSpaceOnUse"
       y1="167.73"
       gradientTransform="matrix(-1.9685146,-1.9685146,-1.742099,1.742099,631.75148,265.17268)"
       x2="133"
       x1="108" />
    <linearGradient
       id="W"
       y2="137.2"
       gradientUnits="userSpaceOnUse"
       x2="179.96"
       gradientTransform="translate(0 -10)"
       y1="29.815"
       x1="126.64">
      <stop
         stop-color="#fff"
         offset="0"
         id="stop15849" />
      <stop
         stop-color="#fff"
         stop-opacity="0"
         offset="1"
         id="stop15851" />
    </linearGradient>
    <linearGradient
       id="Z"
       y2="137.2"
       gradientUnits="userSpaceOnUse"
       y1="29.815"
       gradientTransform="matrix(-.50295 .1984 .1972 -.43254 276.16 123.42)"
       x2="179.96"
       x1="126.64">
      <stop
         stop-color="#fff"
         offset="0"
         id="stop15854" />
      <stop
         stop-color="#fff"
         stop-opacity="0"
         offset="1"
         id="stop15856" />
    </linearGradient>
    <linearGradient
       id="G"
       y2="-213.25"
       gradientUnits="userSpaceOnUse"
       x2="9"
       gradientTransform="translate(0 192)"
       y1="72.064"
       x1="210.17">
      <stop
         offset="0"
         id="stop15859" />
      <stop
         stop-opacity="0"
         offset="1"
         id="stop15861" />
    </linearGradient>
    <linearGradient
       id="h"
       y2="4.302"
       gradientUnits="userSpaceOnUse"
       x2="122"
       y1="245.45"
       x1="122">
      <stop
         offset="0"
         id="stop15864" />
      <stop
         stop-opacity="0"
         offset="1"
         id="stop15866" />
    </linearGradient>
    <linearGradient
       id="e"
       y2="-213.25"
       gradientUnits="userSpaceOnUse"
       x2="9"
       gradientTransform="matrix(1 -.08088 0 1 0 203.06)"
       y1="72.064"
       x1="210.17">
      <stop
         offset="0"
         id="stop15869" />
      <stop
         stop-opacity="0"
         offset="1"
         id="stop15871" />
    </linearGradient>
    <clipPath
       id="j"
       clipPathUnits="userSpaceOnUse">
      <path
         fill="#ceeeab"
         d="M9 12.25s7.5 13 11.75 27.75S27 65.5 27 65.5s-5.5 12.75-8.25 24.75-5.75 23-5.75 23 5.75 16 9.25 30S26 167.5 26 167.5s-4 10.25-7.5 24.25-5 30.75-5 30.75 9.25-2 28.5 1.25 32.25 6 32.25 6 12.75-2.75 24-6.25 16.25-6.5 16.25-6.5 5.5.5 22.5 6.25 29.25 8.5 29.25 8.5 13-2.75 26-5.75 26.5-8 26.5-8-.75-5 4.25-24.5 8.75-28 8.75-28-.5-4.5-3.75-19.75S218 116 218 116s1.75-10.5 6.75-23.75S235 65.5 235 65.5s-4.75-15.25-7.5-29.75S219.25 10 219.25 10 195 19 187.5 20.5s-21 5.25-21 5.25-9.75-4.25-22-8.5-29.75-5.5-29.75-5.5-3.25 3.5-22 8-27.5 5.75-27.5 5.75-18.5-9-31.5-11.5-24-2-24.75-1.75z"
         id="path15874" />
    </clipPath>
    <clipPath
       id="k"
       clipPathUnits="userSpaceOnUse">
      <path
         fill="#ceeeab"
         d="M9 12.25s7.5 13 11.75 27.75S27 65.5 27 65.5s-5.5 12.75-8.25 24.75-5.75 23-5.75 23 5.75 16 9.25 30S26 167.5 26 167.5s-4 10.25-7.5 24.25-5 30.75-5 30.75 9.25-2 28.5 1.25 32.25 6 32.25 6 12.75-2.75 24-6.25 16.25-6.5 16.25-6.5 5.5.5 22.5 6.25 29.25 8.5 29.25 8.5 13-2.75 26-5.75 26.5-8 26.5-8-.75-5 4.25-24.5 8.75-28 8.75-28-.5-4.5-3.75-19.75S218 116 218 116s1.75-10.5 6.75-23.75S235 65.5 235 65.5s-4.75-15.25-7.5-29.75S219.25 10 219.25 10 195 19 187.5 20.5s-21 5.25-21 5.25-9.75-4.25-22-8.5-29.75-5.5-29.75-5.5-3.25 3.5-22 8-27.5 5.75-27.5 5.75-18.5-9-31.5-11.5-24-2-24.75-1.75z"
         id="path15877" />
    </clipPath>
    <clipPath
       id="i"
       clipPathUnits="userSpaceOnUse">
      <path
         fill="#ceeeab"
         d="M9 12.25s7.5 13 11.75 27.75S27 65.5 27 65.5s-5.5 12.75-8.25 24.75-5.75 23-5.75 23 5.75 16 9.25 30S26 167.5 26 167.5s-4 10.25-7.5 24.25-5 30.75-5 30.75 9.25-2 28.5 1.25 32.25 6 32.25 6 12.75-2.75 24-6.25 16.25-6.5 16.25-6.5 5.5.5 22.5 6.25 29.25 8.5 29.25 8.5 13-2.75 26-5.75 26.5-8 26.5-8-.75-5 4.25-24.5 8.75-28 8.75-28-.5-4.5-3.75-19.75S218 116 218 116s1.75-10.5 6.75-23.75S235 65.5 235 65.5s-4.75-15.25-7.5-29.75S219.25 10 219.25 10 195 19 187.5 20.5s-21 5.25-21 5.25-9.75-4.25-22-8.5-29.75-5.5-29.75-5.5-3.25 3.5-22 8-27.5 5.75-27.5 5.75-18.5-9-31.5-11.5-24-2-24.75-1.75z"
         id="path15880" />
    </clipPath>
    <clipPath
       id="D"
       clipPathUnits="userSpaceOnUse">
      <path
         fill="#ceeeab"
         d="M9 12.25s7.5 13 11.75 27.75S27 65.5 27 65.5s-5.5 12.75-8.25 24.75-5.75 23-5.75 23 5.75 16 9.25 30S26 167.5 26 167.5s-4 10.25-7.5 24.25-5 30.75-5 30.75 9.25-2 28.5 1.25 32.25 6 32.25 6 12.75-2.75 24-6.25 16.25-6.5 16.25-6.5 5.5.5 22.5 6.25 29.25 8.5 29.25 8.5 13-2.75 26-5.75 26.5-8 26.5-8-.75-5 4.25-24.5 8.75-28 8.75-28-.5-4.5-3.75-19.75S218 116 218 116s1.75-10.5 6.75-23.75S235 65.5 235 65.5s-4.75-15.25-7.5-29.75S219.25 10 219.25 10 195 19 187.5 20.5s-21 5.25-21 5.25-9.75-4.25-22-8.5-29.75-5.5-29.75-5.5-3.25 3.5-22 8-27.5 5.75-27.5 5.75-18.5-9-31.5-11.5-24-2-24.75-1.75z"
         id="path15883" />
    </clipPath>
    <clipPath
       id="E"
       clipPathUnits="userSpaceOnUse">
      <path
         fill="#ceeeab"
         d="M9 12.25s7.5 13 11.75 27.75S27 65.5 27 65.5s-5.5 12.75-8.25 24.75-5.75 23-5.75 23 5.75 16 9.25 30S26 167.5 26 167.5s-4 10.25-7.5 24.25-5 30.75-5 30.75 9.25-2 28.5 1.25 32.25 6 32.25 6 12.75-2.75 24-6.25 16.25-6.5 16.25-6.5 5.5.5 22.5 6.25 29.25 8.5 29.25 8.5 13-2.75 26-5.75 26.5-8 26.5-8-.75-5 4.25-24.5 8.75-28 8.75-28-.5-4.5-3.75-19.75S218 116 218 116s1.75-10.5 6.75-23.75S235 65.5 235 65.5s-4.75-15.25-7.5-29.75S219.25 10 219.25 10 195 19 187.5 20.5s-21 5.25-21 5.25-9.75-4.25-22-8.5-29.75-5.5-29.75-5.5-3.25 3.5-22 8-27.5 5.75-27.5 5.75-18.5-9-31.5-11.5-24-2-24.75-1.75z"
         id="path15886" />
    </clipPath>
    <clipPath
       id="F"
       clipPathUnits="userSpaceOnUse">
      <path
         fill="#ceeeab"
         d="M9 12.25s7.5 13 11.75 27.75S27 65.5 27 65.5s-5.5 12.75-8.25 24.75-5.75 23-5.75 23 5.75 16 9.25 30S26 167.5 26 167.5s-4 10.25-7.5 24.25-5 30.75-5 30.75 9.25-2 28.5 1.25 32.25 6 32.25 6 12.75-2.75 24-6.25 16.25-6.5 16.25-6.5 5.5.5 22.5 6.25 29.25 8.5 29.25 8.5 13-2.75 26-5.75 26.5-8 26.5-8-.75-5 4.25-24.5 8.75-28 8.75-28-.5-4.5-3.75-19.75S218 116 218 116s1.75-10.5 6.75-23.75S235 65.5 235 65.5s-4.75-15.25-7.5-29.75S219.25 10 219.25 10 195 19 187.5 20.5s-21 5.25-21 5.25-9.75-4.25-22-8.5-29.75-5.5-29.75-5.5-3.25 3.5-22 8-27.5 5.75-27.5 5.75-18.5-9-31.5-11.5-24-2-24.75-1.75z"
         id="path15889" />
    </clipPath>
    <clipPath
       id="C"
       clipPathUnits="userSpaceOnUse">
      <path
         d="M123.62 141.06c20.832 20.243 54.607 19.289 75.439-2.132s20.832-55.196 0-75.439-54.607-19.289-75.439 2.132-20.832 55.196 0 75.439z"
         fill="url(#d)"
         id="path15892" />
    </clipPath>
    <clipPath
       id="H"
       clipPathUnits="userSpaceOnUse">
      <path
         opacity=".039"
         d="M9 22.578s7.5 12.393 11.75 26.8C25 63.784 27 74.373 27 74.373s-5.5 13.195-8.25 25.417C16 112.01 13 123.25 13 123.25s5.75 15.535 9.25 29.252S26 176.449 26 176.449s-4 10.574-7.5 24.857-5 31.154-5 31.154 9.25-2.748 28.5-1.055 32.25 3.392 32.25 3.392 12.75-3.782 24-8.191 16.25-7.815 16.25-7.815 5.5.055 22.5 4.43c17 4.376 29.25 6.135 29.25 6.135s13-3.802 26-7.853 26.5-10.143 26.5-10.143-.75-4.94 4.25-24.844 8.75-28.708 8.75-28.708-.514-4.455-3.75-19.447c-1.75-8.108-2.25-4.068-2.25-4.068s16.264-26.155 16.5-40.334c.25-15.02-7.25-36.413-7.25-36.413s-4.75-14.866-7.5-29.143c-2.75-14.278-8.25-25.083-8.25-25.083S195 14.281 187.5 16.388c-7.5 2.107-21 6.948-21 6.948s-9.75-3.461-22-6.72c-12.25-3.26-29.75-3.094-29.75-3.094s-3.25 3.763-22 9.78c-18.75 6.016-27.5 7.973-27.5 7.973s-18.5-7.504-31.5-8.952-24-.06-24.75.252z"
         fill="url(#e)"
         id="path15895" />
    </clipPath>
    <radialGradient
       id="K"
       gradientUnits="userSpaceOnUse"
       cy="86"
       cx="128"
       gradientTransform="matrix(1.0213 0 0 -1.0213 -212.72 173.83)"
       r="47">
      <stop
         stop-color="#d0e9f2"
         stop-opacity="0"
         offset="0"
         id="stop15898" />
      <stop
         stop-color="#d0e9f2"
         stop-opacity="0"
         offset=".839"
         id="stop15900" />
      <stop
         stop-color="#d0e9f2"
         stop-opacity=".282"
         offset=".943"
         id="stop15902" />
      <stop
         stop-color="#d0e9f2"
         offset="1"
         id="stop15904" />
    </radialGradient>
    <radialGradient
       id="Q"
       gradientUnits="userSpaceOnUse"
       cy="86"
       cx="128"
       gradientTransform="matrix(1.005223,1.005223,1.005223,-1.005223,26.272271,107.35956)"
       r="47">
      <stop
         stop-color="#d0e9f2"
         stop-opacity="0"
         offset="0"
         id="stop15907" />
      <stop
         stop-color="#d0e9f2"
         stop-opacity="0"
         offset=".839"
         id="stop15909" />
      <stop
         stop-color="#d0e9f2"
         stop-opacity=".282"
         offset=".943"
         id="stop15911" />
      <stop
         stop-color="#d0e9f2"
         offset="1"
         id="stop15913" />
    </radialGradient>
    <radialGradient
       id="Y"
       gradientUnits="userSpaceOnUse"
       cy="72.588"
       cx="159.61"
       gradientTransform="matrix(1.2125 0 0 .83915 -46.348 24.528)"
       r="38.417">
      <stop
         stop-color="#fff"
         offset="0"
         id="stop15916" />
      <stop
         stop-color="#fff"
         stop-opacity=".93"
         offset=".5"
         id="stop15918" />
      <stop
         stop-color="#fff"
         stop-opacity="0"
         offset="1"
         id="stop15920" />
    </radialGradient>
    <radialGradient
       id="X"
       gradientUnits="userSpaceOnUse"
       cx="159.61"
       cy="72.588"
       r="38.417"
       gradientTransform="matrix(1.2125 0 0 .83915 -45.92 25.814)">
      <stop
         stop-color="#fff"
         offset="0"
         id="stop15923" />
      <stop
         stop-color="#fff"
         stop-opacity="0"
         offset="1"
         id="stop15925" />
    </radialGradient>
    <radialGradient
       id="d"
       gradientUnits="userSpaceOnUse"
       cy="86"
       cx="128"
       gradientTransform="matrix(.80254 .77986 .80254 -.82522 -10.402 73.423)"
       r="47">
      <stop
         stop-color="#d0e9f2"
         stop-opacity="0"
         offset="0"
         id="stop15928" />
      <stop
         stop-color="#d0e9f2"
         stop-opacity="0"
         offset=".839"
         id="stop15930" />
      <stop
         stop-color="#d0e9f2"
         stop-opacity=".282"
         offset=".943"
         id="stop15932" />
      <stop
         stop-color="#d0e9f2"
         offset="1"
         id="stop15934" />
    </radialGradient>
    <filter
       id="I"
       x="-0.04800092"
       y="-0.048001122"
       width="1.0960018"
       height="1.0960022">
      <feGaussianBlur
         stdDeviation="4.287"
         id="feGaussianBlur15937" />
    </filter>
    <filter
       id="f"
       x="-0.070663352"
       y="-0.070663648"
       width="1.1413267"
       height="1.1413273">
      <feGaussianBlur
         stdDeviation="6.311"
         id="feGaussianBlur15940" />
    </filter>
    <filter
       id="g"
       x="-0.047330971"
       y="-0.048677131"
       width="1.0946619"
       height="1.0973543">
      <feGaussianBlur
         stdDeviation="4.457"
         id="feGaussianBlur15943" />
    </filter>
  </defs>
  <g
     id="g20630"
     transform="matrix(1.173221,0,0,1.173221,-31.968896,-16.995327)">
    <path
       d="m 48.01,227.46 -4.807,4.55 c -5.007,-5.31 -10.24,-10.7 -15.08,-16.13 l 4.491,-4.07 c 6.829,6.53 8.872,8.53 15.396,15.65 z"
       fill="url(#J)"
       id="path16104"
       style="fill:#f2ca43;fill-opacity:1" />
    <path
       d="m 128.02834,131.7117 c 26.1,26.09 68.4,26.09 94.49,0 26.1,-26.1 26.1,-68.399986 0,-94.492986 -26.09,-26.093 -68.39,-26.093 -94.49,0 -26.09,26.093 -26.09,68.392986 0,94.492986 z"
       fill-opacity="0.476"
       fill="#d0e9f2"
       id="path16132"
       style="fill:#d0e9f2;fill-opacity:1;stroke:#404043;stroke-width:5;stroke-dasharray:none;stroke-opacity:1" />
    <path
       fill="url(#R)"
       d="m 116.05,115.28 -5.75,4.09 c 3.3,6.21 7.56,12.05 12.8,17.28 5.23,5.24 11.07,9.5 17.28,12.8 l 4.09,-5.75 c -5.92,-3.04 -11.49,-7.01 -16.45,-11.97 -4.96,-4.96 -8.93,-10.53 -11.97,-16.45 z"
       id="path16136"
       style="fill:#312f31;fill-opacity:1" />
    <path
       fill="url(#S)"
       d="m 124.82,134.93 c 1.73,1.73 3.08,3.67 4.12,5.72 l -26.21,26.21 a 22.302,22.302 0 0 1 -5.718,-4.12 22.268,22.268 0 0 1 -4.121,-5.72 L 119.1,130.81 c 2.05,1.04 3.99,2.39 5.72,4.12 z"
       id="path16138"
       style="fill:#4c464a;fill-opacity:1" />
    <path
       d="M 116.27,159.23 50.199,225.3 c -3.984,-2.19 -5.832,-3 -9.29,-6.46 -3.458,-3.46 -4.267,-5.3 -6.459,-9.29 l 66.07,-66.07 c 5.06,3.75 12.12,10.4 15.75,15.75 z"
       fill="url(#T)"
       id="path16140"
       style="fill:#f2ca43;fill-opacity:1" />
    <path
       d="m 105.78,154.12 c 3.46,3.46 7.43,6.66 8.52,11.02 l -64.101,64.1 C 43.682,224.08 35.644,216.45 30.513,209.55 l 64.1,-64.1 c 3.491,0.23 7.657,5.16 11.117,8.62 z"
       fill="url(#U)"
       id="path16142"
       style="fill:#403a3e;fill-opacity:1" />
  </g>
</svg>
